<svg xmlns="http://www.w3.org/2000/svg" width="1024" height="1024">
<defs>
</defs>
<path d="M0,1023.5 C0,1023.5 0,0 0,0 C0,0 1024,0 1024,0 C1024,0 1024,1024 1024,1024 C1024,1024 0,1024 0,1024 C0,1024 0,1023.5 0,1023.5 Z M499.146,383.989 C497.448,384.671 497.765,387.261 498.365,388.808 C497.3,389.363 496.187,388.984 495.879,388.993 C495.879,388.993 492.437,382.434 492.437,382.434 C491.186,380.049 489.74,378.574 489.15,375.751 C489.15,375.751 484.655,354.246 484.655,354.246 C484.546,353.727 483.072,352.98 483.174,352.517 C483.242,352.209 484.165,351.842 483.821,350.974 C483.821,350.974 477.524,335.086 477.524,335.086 C476.201,331.747 474.823,328.048 473.076,325.088 C473.076,325.088 462.963,307.96 462.963,307.96 C462.963,307.96 455.629,298.667 455.629,298.667 C453.293,297.779 450.967,296.178 450.098,292.767 C444.973,285.689 438.088,284.474 437.915,280.801 C418.216,263.989 395.02,252.854 370.053,245.76 C370.053,245.76 362.133,243.509 362.133,243.509 C362.133,243.509 350.586,240.413 350.586,240.413 C341.583,237.999 333.384,238.127 334.474,242.938 C334.474,242.938 336.486,251.813 336.486,251.813 C336.486,251.813 338.593,262.567 338.593,262.567 C344.361,286.028 353.082,308.096 367.084,327.998 C370.721,333.167 384.339,348.258 386.441,349.34 C392.117,352.26 402.052,367.903 441.467,380.598 C446.275,382.147 451.329,383.129 456.256,384.409 C456.256,384.409 464.926,386.662 464.926,386.662 C468.89,387.692 474.464,388.895 477.265,390.806 C479.288,392.474 481.774,394.594 483.042,396.829 C489.791,408.721 495.162,420.18 498.849,433.576 C498.849,433.576 499.263,490.812 499.263,490.812 C498.374,490.903 497.689,491.488 497.74,493.143 C494.584,491.916 492.512,489.815 491.981,486.081 C490.253,486.192 490.061,485.117 489.941,484.039 C489.941,484.039 477.58,468.923 477.58,468.923 C473.515,463.952 468.232,460.208 463.404,456.914 C463.404,456.914 453.524,450.175 453.524,450.175 C453.524,450.175 440.571,444.294 440.571,444.294 C433.082,440.893 425.319,440.91 421.017,438.301 C419.96,437.66 418.931,438.202 418.81,439.495 C418.637,441.354 419.686,441.91 420.583,442.439 C420.901,444.405 420.988,446.747 422.404,448.456 C426.566,453.482 427.739,459.098 428.953,465.081 C429.956,470.018 431.621,475.663 431.632,480.96 C431.632,480.96 431.7,515.523 431.7,515.523 C431.706,518.713 430.788,521.127 431.657,524.634 C432.753,529.058 431.503,535.339 434.369,540.07 C434.904,540.952 432.995,542.976 435.335,544.023 C436.27,544.524 436.012,547.175 437.355,548.374 C437.468,549.586 437.006,550.88 438.253,552.919 C438.253,552.919 443.824,562.022 443.824,562.022 C445.481,562.403 444.129,563.92 444.443,564.008 C444.443,564.008 447.017,564.725 447.017,564.725 C447.869,566.268 447.504,567.109 447.339,567.644 C447.162,568.215 449.295,569.019 449.694,569.386 C449.694,569.386 460.823,579.616 460.823,579.616 C463.697,582.258 467.037,584.548 471.216,585.637 C478.307,590.925 487.172,591.688 495.467,592.192 C505.223,595.847 515.141,595.197 524.935,593.023 C524.935,593.023 543.802,588.836 543.802,588.836 C553.651,586.649 569.767,575.119 570.355,573.732 C572.187,569.409 579.392,565.097 585.575,554.945 C589.992,547.692 593.593,538.793 595.155,529.974 C595.155,529.974 597.669,515.789 597.669,515.789 C600.061,509.297 599.22,502.078 597.491,495.509 C597.491,495.509 596.452,478.579 596.452,478.579 C596.452,478.579 594.719,466.439 594.719,466.439 C593.386,457.095 593.673,446.938 594.516,437.433 C594.516,437.433 596.543,427.548 596.543,427.548 C596.766,426.461 598.169,424.579 598.475,423.389 C599.662,418.772 599.944,414.33 601.948,409.977 C602.529,408.716 603.076,407.672 603.145,406.61 C603.596,399.689 584.355,410.344 574.824,417.826 C573.772,418.652 573.104,419.188 571.22,419.261 C568.969,421.125 566.486,424.582 564.043,425.486 C560.205,426.906 559.123,430.495 556.672,432.218 C553.337,434.562 552.036,437.735 548.898,440.166 C548.898,440.166 545.263,442.981 545.263,442.981 C542.6,445.043 528.72,463.383 527.505,466.591 C525.227,472.607 519.298,477.529 517.967,485.708 C517.967,485.708 515.837,487.07 515.837,487.07 C515.837,487.07 516.342,463.26 516.342,463.26 C516.342,463.26 517.03,437.895 517.03,437.895 C519.745,417.794 528.361,399.055 539.778,383.054 C542.239,379.604 546.858,380.555 549.854,379.737 C549.854,379.737 570.363,374.138 570.363,374.138 C591.773,366.864 612.524,357.186 627.747,340.113 C627.747,340.113 638.672,327.859 638.672,327.859 C653.521,307.672 663.411,285.76 668.32,261.36 C668.32,261.36 672.851,238.836 672.851,238.836 C673.108,237.561 674.451,235.182 673.817,233.683 C673.374,232.637 671.301,231.803 671.324,229.675 C669.656,227.891 666.126,230.431 664.099,230.779 C652.076,232.842 641.36,235.461 629.993,239.029 C629.993,239.029 623.931,240.932 623.931,240.932 C607.326,246.145 592.722,254.184 578.996,265.502 C558.224,282.629 545.347,306.607 536.976,331.85 C536.04,334.672 535.156,337.424 534.567,340.449 C534.567,340.449 531.778,354.796 531.778,354.796 C529.898,364.467 528.668,373.537 522.819,382.014 C521.076,384.541 520.674,388.587 516.866,390.178 C516.866,390.178 516.346,376.391 516.346,376.391 C516.346,376.391 516.414,349.621 516.414,349.621 C516.414,349.621 516.389,331.628 516.389,331.628 C515.423,324.825 515.469,317.55 516.606,310.272 C514.634,302.224 516.048,294.594 521.999,287.999 C549.157,248.352 564.15,211.973 549.193,163.69 C541.79,139.792 530.964,117.877 516.489,97.5081 C515.099,95.5529 515.461,93.6393 512.401,94.104 C511.699,94.2107 506.678,99.0033 505.407,100.582 C505.407,100.582 495.839,112.466 495.839,112.466 C494.306,114.37 491.955,117.665 490.57,119.977 C490.57,119.977 479.149,139.044 479.149,139.044 C467.257,162.701 459.973,188.331 462.738,215.118 C462.738,215.118 465.975,233.169 465.975,233.169 C471.81,253.936 481.83,272.26 494.119,289.989 C495.621,292.156 498.844,295.426 498.855,298.53 C498.855,298.53 499.146,383.989 499.146,383.989 Z M445.305,709.586 C445.305,709.586 444.351,703.777 444.351,703.777 C441.433,686.005 428.492,674.398 411.35,672.743 C404.29,672.062 393.38,676.327 388.72,681.671 C389.247,683.024 387.54,683.323 386.894,681.817 C386.894,681.817 386.892,643.022 386.892,643.022 C386.891,631.636 374.239,640.04 362.339,644.53 C361.319,644.915 359.414,645.277 359.234,646.78 C358.712,651.122 367.897,652.403 367.914,655.997 C367.914,655.997 368.377,754.294 368.377,754.294 C371.978,755.453 375.338,754.984 378.706,754.736 C381.473,751.223 385.926,752.128 388.76,754.735 C397.091,756.742 405.373,758.642 413.125,756.118 C413.125,756.118 423.003,752.902 423.003,752.902 C438.373,744.951 447.728,724.344 445.305,709.586 Z M842.059,734.982 C842.059,734.982 842.25,685.415 842.25,685.415 C842.25,685.415 857.484,684.598 857.484,684.598 C859.448,684.493 862.313,684.291 863.018,682.476 C863.486,681.272 863.586,677.267 861.79,677.209 C861.79,677.209 842.354,676.586 842.354,676.586 C842.354,676.586 842.291,657.971 842.291,657.971 C842.287,656.829 843.269,654.976 843.935,653.79 C844.258,649.891 846.293,647.164 850.328,645.472 C852.763,645.399 855.961,644.972 859.538,646.783 C859.538,646.783 862.088,650.974 862.088,650.974 C863.607,655.41 865.873,658.654 870.861,660.196 C870.992,658.148 871.906,658.357 873.057,658.095 C876.199,656.727 877.272,652.714 876.982,649.596 C876.096,640.072 867.206,639.915 858.916,638.16 C855.857,637.512 853.832,639.102 850.982,639.468 C840.433,640.823 830.673,647.387 828.464,657.865 C827.958,660.264 826.364,662.139 826.531,665.149 C826.701,668.217 827.313,671.84 825.575,675.238 C823.896,678.52 814.549,674.77 812.993,678.574 C812.472,679.846 812.808,681.673 813.832,682.503 C812.253,683.528 814.187,685.122 815.022,683.274 C817.946,685.681 820.877,685.346 825.846,684.825 C825.846,684.825 825.474,740.388 825.474,740.388 C825.449,744.116 821.098,748.172 818,748.978 C816.648,750.144 816.218,751.733 816.07,754.604 C816.07,754.604 850.304,753.784 850.304,753.784 C852.239,753.738 853.144,753.977 853.62,752.009 C854.615,747.903 841.998,750.937 842.059,734.982 Z M626.388,743.534 C626.388,743.534 625.578,730.33 625.578,730.33 C625.578,730.33 624.678,715.358 624.678,715.358 C624.393,710.63 624.698,706.247 624.715,701.542 C624.715,701.542 624.894,650.953 624.894,650.953 C624.905,647.976 624.342,643.828 624.561,641.358 C618.784,635.358 611.867,642.584 604.537,644.571 C603.005,644.986 599.193,646.254 600.462,648.758 C601.702,651.205 605.704,652.023 607.817,654.619 C607.817,654.619 608.027,738.921 608.027,738.921 C608.042,744.879 605.218,748.772 600.02,750.255 C600.699,752.578 602.102,754.74 604.422,754.728 C604.422,754.728 633.766,754.569 633.766,754.569 C635.745,754.558 635.269,750.24 634.164,749.343 C632.566,748.046 626.629,747.459 626.388,743.534 Z M206.826,685.166 C202.291,683.152 201.541,689.302 199.002,691.896 C198.182,692.735 195.551,693.712 194.541,694.514 C194.541,694.514 182.724,695.398 182.724,695.398 C179.187,695.662 174.828,695.594 171.526,695.406 C168.327,695.224 169.501,690.835 169.455,689.135 C169.13,677.255 168.629,655.602 171.078,654.494 C171.841,654.149 173.864,653.56 174.761,653.569 C174.761,653.569 190.144,653.714 190.144,653.714 C190.144,653.714 198.167,654.728 198.167,654.728 C199.98,654.957 201.601,656.113 203.539,655.38 C204.95,657.4 207.89,658.087 209.075,661.462 C209.275,662.034 210.596,661.102 211.017,661.525 C212.18,662.696 211.154,665.192 213.494,667.37 C213.839,668.969 214.869,670.81 216.302,671.417 C217.248,671.818 220.144,673.091 220.135,671.058 C220.135,671.058 220.07,657.017 220.07,657.017 C220.066,656.046 218.754,655.153 218.252,654.651 C218.608,652.071 218.997,648.825 217.917,646.15 C217.917,646.15 141.223,645.984 141.223,645.984 C136.755,654.352 150.007,650.563 150.039,657.996 C150.039,657.996 150.297,716.569 150.297,716.569 C150.297,716.569 150.425,737.374 150.425,737.374 C150.462,743.354 147.134,748.197 140.568,749.387 C140.93,750.998 140.329,751.961 140.075,752.459 C139.834,752.931 141.823,754.059 142.384,754.06 C142.384,754.06 219.804,754.215 219.804,754.215 C225.297,746.526 221.416,739.033 224.957,732.592 C226.567,729.664 222.15,724.981 219.112,726.134 C214.879,734.287 209.234,743.774 200.165,745.23 C200.165,745.23 170.415,745.791 170.415,745.791 C169.606,734.3 169.037,723.819 169.767,712.795 C169.767,712.795 170.394,703.339 170.394,703.339 C170.394,703.339 188.02,703.51 188.02,703.51 C188.02,703.51 193.117,703.851 193.117,703.851 C196.524,704.079 200.744,709.56 201.351,712.813 C201.688,714.619 202.169,715.132 203.583,715.582 C204.498,715.873 207.093,715.251 207.083,714.13 C207.083,714.13 206.826,685.166 206.826,685.166 Z M707.571,730.285 C707.571,730.285 699.185,738.048 699.185,738.048 C693.678,743.145 668.7,745.37 662.605,726.054 C661.407,722.257 660.043,718.215 661.085,713.957 C661.085,713.957 711.06,713.154 711.06,713.154 C714.17,712.43 713.425,706.319 713.244,704.048 C712.357,692.917 707.045,682.256 696.97,677.232 C682.858,670.195 665.315,672.513 654.257,682.825 C647.201,689.405 640.762,700.299 640.804,710.569 C640.804,710.569 640.85,721.861 640.85,721.861 C640.888,731.144 647.721,743.033 655.972,749.304 C668.628,758.924 687.521,759.916 700.401,751.207 C710.542,744.351 716.363,731.701 711.07,729.478 C710.206,729.116 709.022,728.942 707.571,730.285 Z M303.796,735.899 C303.796,735.899 304.04,700.556 304.04,700.556 C304.04,700.556 305.508,701.479 305.508,701.479 C305.508,701.479 304.609,708.508 304.609,708.508 C304.609,708.508 305.73,709.214 305.73,709.214 C305.73,709.214 305.995,700.718 305.995,700.718 C306.232,693.14 314.171,686.705 321.559,686.1 C323.509,686.89 325.456,688.736 328.066,687.873 C328.965,690.03 328.824,691.921 331.361,693.402 C331.361,693.402 331.316,743.952 331.316,743.952 C330.53,746.21 327.239,747.677 325.225,748.371 C323.411,748.997 323.552,754.573 325.182,754.579 C325.182,754.579 358.742,754.698 358.742,754.698 C360.105,754.703 360.363,750.817 359.519,750.042 C358.753,749.338 357.873,748.157 356.281,747.684 C346.105,744.66 352.426,730.48 350.133,713.894 C349.665,710.507 350.706,707.183 350.47,703.524 C350.47,703.524 349.468,688.014 349.468,688.014 C347.677,680.481 343.674,677.729 337.437,675.502 C326.125,671.462 313.275,674.956 305.997,684.996 C305.365,685.868 304.745,687.278 303.707,686.961 C301.29,686.225 299.001,673.521 281.977,673.76 C270.944,673.915 265.903,678.575 258.703,686.481 C256.862,681.055 258.38,675.647 257.554,674.868 C256.938,674.288 255.288,673.452 253.938,673.986 C253.938,673.986 238.093,680.26 238.093,680.26 C236.551,680.871 233.215,681.439 233.23,684.089 C233.246,686.795 239.357,688.005 241.361,692.943 C241.692,696.814 241.538,700.807 241.525,704.404 C241.525,704.404 241.433,729.592 241.433,729.592 C241.433,729.592 241.972,735.99 241.972,735.99 C242.905,747.081 232.434,747.915 232.844,752.471 C232.918,753.299 233.825,754.749 235.376,754.753 C235.376,754.753 266.035,754.83 266.035,754.83 C267.662,754.834 268.898,752.071 268.481,750.843 C266.905,746.201 259.353,748.501 259.326,736.585 C259.326,736.585 259.252,704.24 259.252,704.24 C259.23,694.421 267.809,684.624 278.143,686.854 C289.034,689.204 287.028,710.285 286.536,722.664 C286.536,722.664 285.782,741.679 285.782,741.679 C285.651,744.983 284.018,746.868 280.859,747.725 C278.339,748.409 276.896,754.47 279.221,754.479 C279.221,754.479 311.853,754.6 311.853,754.6 C313.576,754.607 313.481,749.363 312.154,748.534 C312.154,748.534 307.378,745.552 307.378,745.552 C306.491,744.875 305.41,742.15 305.069,740.858 C305.526,738.124 307.126,734.979 305.195,732.891 C305.447,734.267 305.868,736.232 303.796,735.899 Z M500.423,743.41 C490.275,743.994 479.306,738.693 475.659,728.059 C473.714,722.384 472.183,715.329 475.247,712.482 C475.247,712.482 497.133,712.679 497.133,712.679 C499.913,712.704 502.062,712.764 504.872,712.658 C504.872,712.658 523.048,711.969 523.048,711.969 C523.581,711.949 524.186,711.071 524.472,711.221 C524.757,711.372 525.889,712.266 525.954,711.929 C527.755,702.688 525.118,694.013 519.695,685.783 C514.69,678.188 496.881,672.262 485.604,675.112 C480.306,676.451 476.433,678.742 471.953,680.915 C469.087,682.305 466.581,684.117 465.163,687.393 C463.423,691.411 458.518,695.534 458.143,700.962 C457.814,705.728 453.819,713.81 456.504,722.604 C456.504,722.604 457.865,727.061 457.865,727.061 C460.501,743.278 474.307,754.319 490.438,755.717 C507.014,757.153 524.447,746.751 525.931,732.174 C526.188,729.656 523.919,730.555 523.013,730.377 C520.474,729.878 516.608,742.48 500.423,743.41 Z M560.787,715.313 C560.787,715.313 561.317,701.098 561.317,701.098 C561.538,695.167 566.766,691.57 571.274,688.069 C572.435,687.313 574.505,687.858 575.74,687.565 C575.74,687.565 581.27,694.287 581.27,694.287 C581.589,695.018 580.867,695.804 581.982,696.656 C584.185,698.339 589.573,698.279 592.003,696.57 C594.245,694.991 594.208,693.069 594.737,690.462 C596.083,683.829 594.139,675.335 586.083,674.156 C578.646,673.067 570.822,675.496 566.322,681.358 C564.893,683.22 564.929,686.673 561.538,687.373 C561.538,687.373 560.685,675.377 560.685,675.377 C560.512,672.942 556.478,674.191 555.037,674.758 C555.037,674.758 536.082,682.212 536.082,682.212 C535.411,688.422 540.352,687.038 543.002,691.955 C543.002,691.955 542.994,745.623 542.994,745.623 C542.994,745.623 540.653,747.643 540.653,747.643 C538.804,747.859 537.438,748.846 536.397,749.97 C535.576,750.856 535.597,754.677 537.182,754.681 C537.182,754.681 567.59,754.748 567.59,754.748 C569.699,754.753 570.311,752.755 570.277,751.516 C570.155,747.062 561.947,749 561.389,741.625 C561.389,741.625 560.75,733.165 560.75,733.165 C560.326,727.565 560.558,721.462 560.787,715.313 Z M764.436,753.853 C766.867,752.275 770.625,751.45 771.748,749.184 C772.762,747.139 774.588,747.999 775.256,749.13 C775.643,749.785 776.959,750.213 776.326,751.44 C778.768,756.128 789.17,757.531 793.391,756.388 C799.276,754.793 804.784,751.677 805.676,744.838 C805.826,743.686 804.179,742.414 803.268,742.145 C801.942,741.755 799.295,744.045 794.518,742.908 C793.636,742.698 794.355,740.11 793.941,739.071 C792.41,735.222 793.383,732.143 793.395,728.5 C793.395,728.5 793.48,701.827 793.48,701.827 C793.48,701.827 792.253,696.608 792.253,696.608 C791.965,685.639 784.478,676.736 773.077,674.751 C755.485,671.687 733.706,675.246 729.341,691.75 C727.804,697.563 729.764,703.949 735.514,705.459 C738.868,706.339 744.609,703.359 745.544,700.173 C745.544,700.173 747.458,693.652 747.458,693.652 C748.276,687.157 752.822,682.903 759.447,683.431 C763.867,683.784 767.277,684.098 770.206,687.386 C773.658,691.26 774.459,702.122 773.289,703.774 C772.267,705.217 770.452,705.649 767.95,706.154 C767.95,706.154 760.551,707.649 760.551,707.649 C750.096,709.761 738.65,712.128 731.371,719.845 C726.198,725.328 724.381,732.772 725.564,739.121 C727.373,748.83 733.226,754.209 742.132,756.018 C749.424,757.499 757.317,758.473 764.436,753.853 Z M403.887,894.936 C405.111,894.901 404.636,892.136 403.73,891.932 C403.161,891.804 401.785,892.28 402.603,890.274 C400.481,889.961 394.312,887.462 394.291,883.464 C394.291,883.464 393.852,800.713 393.852,800.713 C401.374,799.236 408.766,799.649 416.009,802.11 C419.165,803.183 420.021,807.006 421.847,808.865 C424.196,811.256 423.031,816.583 425.707,814.042 C426.624,816.216 428.061,816.739 429.572,816.382 C433.204,815.524 429.785,809.354 430.148,800.872 C430.276,797.886 429.964,792.777 426.638,791.294 C426.638,791.294 417.528,790.253 417.528,790.253 C417.528,790.253 343.437,790.144 343.437,790.144 C339.177,790.138 336.548,793.059 336.278,796.713 C336.278,796.713 335.59,806.008 335.59,806.008 C335.59,806.008 334.497,811.091 334.497,811.091 C334.142,812.742 332.943,815.412 334.652,816.929 C335.92,818.054 339.076,819.075 339.97,817.187 C341.456,814.047 342.028,810.524 344.409,808.042 C344.409,808.042 351.197,800.966 351.197,800.966 C351.197,800.966 361.439,798.607 361.439,798.607 C365.292,797.719 369.407,798.851 373.769,799.672 C373.769,799.672 373.852,876.944 373.852,876.944 C373.857,881.122 373.464,885.681 370.003,887.834 C368.36,888.856 367.215,890.925 365.042,890.876 C363.455,890.839 362.565,891.465 361.907,892.526 C361.356,893.414 362.016,894.963 363.091,895.225 C363.747,895.384 364.223,896.146 365.353,895.267 C370.303,896.687 375.345,895.737 380.468,895.593 C380.468,895.593 403.887,894.936 403.887,894.936 Z M642.4,899.464 C651.703,897.802 660.333,894.002 665.178,885.058 C672.605,871.349 664.401,856.382 650.349,850.527 C650.349,850.527 632.196,842.964 632.196,842.964 C630.829,842.394 629.68,841.29 628.535,840.261 C627.961,840.61 627.164,841.222 626.379,840.061 C625.94,839.411 626.44,838.897 626.7,838.386 C625.191,836.983 623.651,834.626 623.919,832.526 C624.796,825.649 634.893,822.492 642.864,826.239 C651.028,830.076 651.437,838.876 655.884,842.236 C658.229,844.008 660.721,842.384 661.872,840.421 C664.141,836.549 660.097,831.436 660.862,824.051 C661.152,821.26 660.552,819.882 659.024,818.436 C656.383,815.936 651.061,817.852 644.172,815.807 C638.962,814.26 635.072,812.961 630.003,815.146 C623.551,817.925 615.262,819.399 611.253,825.804 C606.032,834.144 605.371,844.036 611.375,852.061 C616.021,858.271 624.268,860.303 631.241,863.676 C631.241,863.676 645.993,870.812 645.993,870.812 C649.175,872.351 650.793,876.538 650.664,879.473 C650.558,881.875 648.851,886.465 645.381,887.497 C641.37,888.69 634.561,888.877 630.752,887.489 C616.937,882.454 616.588,866.025 610.51,867.042 C607.516,867.543 606.875,870.053 607.057,872.956 C607.057,872.956 608.07,889.109 608.07,889.109 C608.195,891.11 607.97,893.509 609.68,894.817 C611.018,895.84 612.901,895.931 614.59,896.268 C614.59,896.268 625.006,898.345 625.006,898.345 C627.527,898.847 628.642,899.67 631.595,899.626 C631.595,899.626 642.4,899.464 642.4,899.464 Z M503.026,871.552 C500.649,870.136 498.485,871.524 497.01,874.054 C494.585,878.215 490.019,880.599 485.62,882.786 C485.62,882.786 478.551,883.863 478.551,883.863 C465.859,885.835 453.938,876.289 452.742,862.919 C451.511,861.833 451.255,856.463 453.084,856.247 C464.807,856.996 476.125,856.654 487.93,856.586 C496.344,856.538 504.901,857.729 504.936,850.931 C504.972,843.747 504.301,835.763 500.223,830.287 C500.223,830.287 495.294,823.67 495.294,823.67 C480.507,811.616 459.937,812.186 444.72,824.369 C444.559,826.55 442.418,827.34 441.082,828.864 C438.258,832.087 436.409,835.724 434.505,839.483 C434.505,839.483 432.547,843.347 432.547,843.347 C432.547,843.347 431.662,852.852 431.662,852.852 C430.357,866.858 435.026,881.825 445.806,890.773 C452.562,896.381 464.922,900.626 473.412,899.404 C481.888,898.184 490.072,895.642 496.693,889.357 C501.172,885.104 507.732,874.354 503.026,871.552 Z M519.786,891.153 C520.848,891.643 522.305,893.464 523.103,894.154 C534.816,904.279 555.998,899.392 562.161,891.102 C562.924,890.076 564.476,889.482 565.435,889.825 C566.586,890.236 566.204,896.195 577.016,899.26 C587.61,902.264 601.508,888.521 596,884.435 C594.05,882.989 591.619,885.552 587.588,885.265 C586.375,885.179 585.219,883.327 584.115,881.601 C584.115,881.601 584.196,843.054 584.196,843.054 C584.21,836.371 581.696,826.833 575.961,822.156 C567.764,815.47 555.761,814.409 545.874,815.604 C538.129,816.541 531.934,819.4 526.163,823.534 C522.068,826.468 520.116,831.138 519.503,836.376 C518.97,840.938 522.836,846.726 527.888,847.518 C530.847,847.983 534.232,846.948 535.935,844.095 C540.388,836.637 537.536,825.147 550.05,825.767 C554.067,825.967 558.844,826.17 561.044,829.978 C565.949,838.466 562.528,839.435 563.912,846.514 C563.912,846.514 546.019,850.967 546.019,850.967 C538.688,852.791 530.944,854.606 524.899,859.04 C514.444,866.71 513.181,879.745 519.786,891.153 Z " fill="rgb(254,254,254)"/>
<path d="M499.263,490.812 C501.205,495.452 497.658,501.616 499.912,502.901 C502.396,504.317 501.83,507.421 502.439,509.515 C502.856,510.948 504.214,512.123 504.153,513.258 C504.153,513.258 503.953,517.013 503.953,517.013 C503.849,518.952 504.913,520.11 506.484,520.106 C507.743,520.103 508.949,519.144 508.665,517.296 C508.665,517.296 508.032,513.186 508.032,513.186 C507.792,511.625 508.601,510.647 509.156,509.103 C509.156,509.103 514.705,493.657 514.705,493.657 C514.705,493.657 515.406,488.438 515.406,488.438 C516.546,487.362 517.727,487.178 517.967,485.708 C519.298,477.529 525.227,472.607 527.505,466.591 C528.72,463.383 542.6,445.043 545.263,442.981 C545.263,442.981 548.898,440.166 548.898,440.166 C552.036,437.735 553.337,434.562 556.672,432.218 C559.123,430.495 560.205,426.906 564.043,425.486 C566.486,424.582 568.969,421.125 571.22,419.261 C573.104,419.188 573.772,418.652 574.824,417.826 C584.355,410.344 603.596,399.689 603.145,406.61 C603.076,407.672 602.529,408.716 601.948,409.977 C599.944,414.33 599.662,418.772 598.475,423.389 C598.169,424.579 596.766,426.461 596.543,427.548 C596.543,427.548 594.516,437.433 594.516,437.433 C593.673,446.938 593.386,457.095 594.719,466.439 C594.719,466.439 596.452,478.579 596.452,478.579 C596.452,478.579 597.491,495.509 597.491,495.509 C599.22,502.078 600.061,509.297 597.669,515.789 C597.669,515.789 595.155,529.974 595.155,529.974 C593.593,538.793 589.992,547.692 585.575,554.945 C579.392,565.097 572.187,569.409 570.355,573.732 C569.767,575.119 553.651,586.649 543.802,588.836 C543.802,588.836 524.935,593.023 524.935,593.023 C515.141,595.197 505.223,595.847 495.467,592.192 C487.172,591.688 478.307,590.925 471.216,585.637 C467.037,584.548 463.697,582.258 460.823,579.616 C460.823,579.616 449.694,569.386 449.694,569.386 C449.295,569.019 447.162,568.215 447.339,567.644 C447.504,567.109 447.869,566.268 447.017,564.725 C447.017,564.725 444.443,564.008 444.443,564.008 C444.129,563.92 445.481,562.403 443.824,562.022 C443.824,562.022 438.253,552.919 438.253,552.919 C437.006,550.88 437.468,549.586 437.355,548.374 C436.012,547.175 436.27,544.524 435.335,544.023 C432.995,542.976 434.904,540.952 434.369,540.07 C431.503,535.339 432.753,529.058 431.657,524.634 C430.788,521.127 431.706,518.713 431.7,515.523 C431.7,515.523 431.632,480.96 431.632,480.96 C431.621,475.663 429.956,470.018 428.953,465.081 C427.739,459.098 426.566,453.482 422.404,448.456 C420.988,446.747 420.901,444.405 420.583,442.439 C419.686,441.91 418.637,441.354 418.81,439.495 C418.931,438.202 419.96,437.66 421.017,438.301 C425.319,440.91 433.082,440.893 440.571,444.294 C440.571,444.294 453.524,450.175 453.524,450.175 C453.524,450.175 463.404,456.914 463.404,456.914 C468.232,460.208 473.515,463.952 477.58,468.923 C477.58,468.923 489.941,484.039 489.941,484.039 C490.061,485.117 490.253,486.192 491.981,486.081 C492.512,489.815 494.584,491.916 497.74,493.143 C497.689,491.488 498.374,490.903 499.263,490.812 Z " fill="rgb(200,138,103)"/>
<path d="M303.796,735.899 C305.868,736.232 305.447,734.267 305.195,732.891 C307.126,734.979 305.526,738.124 305.069,740.858 C305.41,742.15 306.491,744.875 307.378,745.552 C307.378,745.552 312.154,748.534 312.154,748.534 C313.481,749.363 313.576,754.607 311.853,754.6 C311.853,754.6 279.221,754.479 279.221,754.479 C276.896,754.47 278.339,748.409 280.859,747.725 C284.018,746.868 285.651,744.983 285.782,741.679 C285.782,741.679 286.536,722.664 286.536,722.664 C287.028,710.285 289.034,689.204 278.143,686.854 C267.809,684.624 259.23,694.421 259.252,704.24 C259.252,704.24 259.326,736.585 259.326,736.585 C259.353,748.501 266.905,746.201 268.481,750.843 C268.898,752.071 267.662,754.834 266.035,754.83 C266.035,754.83 235.376,754.753 235.376,754.753 C233.825,754.749 232.918,753.299 232.844,752.471 C232.434,747.915 242.905,747.081 241.972,735.99 C241.972,735.99 241.433,729.592 241.433,729.592 C241.433,729.592 241.525,704.404 241.525,704.404 C241.538,700.807 241.692,696.814 241.361,692.943 C239.357,688.005 233.246,686.795 233.23,684.089 C233.215,681.439 236.551,680.871 238.093,680.26 C238.093,680.26 253.938,673.986 253.938,673.986 C255.288,673.452 256.938,674.288 257.554,674.868 C258.38,675.647 256.862,681.055 258.703,686.481 C265.903,678.575 270.944,673.915 281.977,673.76 C299.001,673.521 301.29,686.225 303.707,686.961 C304.745,687.278 305.365,685.868 305.997,684.996 C313.275,674.956 326.125,671.462 337.437,675.502 C343.674,677.729 347.677,680.481 349.468,688.014 C349.468,688.014 350.47,703.524 350.47,703.524 C350.706,707.183 349.665,710.507 350.133,713.894 C352.426,730.48 346.105,744.66 356.281,747.684 C357.873,748.157 358.753,749.338 359.519,750.042 C360.363,750.817 360.105,754.703 358.742,754.698 C358.742,754.698 325.182,754.579 325.182,754.579 C323.552,754.573 323.411,748.997 325.225,748.371 C327.239,747.677 330.53,746.21 331.316,743.952 C331.316,743.952 331.361,693.402 331.361,693.402 C328.824,691.921 328.965,690.03 328.066,687.873 C325.456,688.736 323.509,686.89 321.559,686.1 C314.171,686.705 306.232,693.14 305.995,700.718 C305.995,700.718 305.73,709.214 305.73,709.214 C305.73,709.214 304.609,708.508 304.609,708.508 C304.609,708.508 305.508,701.479 305.508,701.479 C305.508,701.479 304.04,700.556 304.04,700.556 C304.04,700.556 303.796,735.899 303.796,735.899 Z " fill="rgb(94,112,93)"/>
<path d="M445.305,709.586 C447.728,724.344 438.373,744.951 423.003,752.902 C423.003,752.902 413.125,756.118 413.125,756.118 C405.373,758.642 397.091,756.742 388.76,754.735 C385.926,752.128 381.473,751.223 378.706,754.736 C375.338,754.984 371.978,755.453 368.377,754.294 C368.377,754.294 367.914,655.997 367.914,655.997 C367.897,652.403 358.712,651.122 359.234,646.78 C359.414,645.277 361.319,644.915 362.339,644.53 C374.239,640.04 386.891,631.636 386.892,643.022 C386.892,643.022 386.894,681.817 386.894,681.817 C387.54,683.323 389.247,683.024 388.72,681.671 C393.38,676.327 404.29,672.062 411.35,672.743 C428.492,674.398 441.433,686.005 444.351,703.777 C444.351,703.777 445.305,709.586 445.305,709.586 Z M421.322,737.094 C425.466,725.764 427.272,719.939 424.956,706.932 C422.982,695.843 416.904,685.875 404.496,684.541 C396.37,685.017 389.885,690.677 386.177,698.464 C386.177,698.464 386.468,735.906 386.468,735.906 C389.014,742.801 393.425,747.23 400.543,748.571 C408.509,750.071 417.97,746.257 421.322,737.094 Z " fill="rgb(94,112,92)"/>
<path d="M206.826,685.166 C206.826,685.166 207.083,714.13 207.083,714.13 C207.093,715.251 204.498,715.873 203.583,715.582 C202.169,715.132 201.688,714.619 201.351,712.813 C200.744,709.56 196.524,704.079 193.117,703.851 C193.117,703.851 188.02,703.51 188.02,703.51 C188.02,703.51 170.394,703.339 170.394,703.339 C170.394,703.339 169.767,712.795 169.767,712.795 C169.037,723.819 169.606,734.3 170.415,745.791 C170.415,745.791 200.165,745.23 200.165,745.23 C209.234,743.774 214.879,734.287 219.112,726.134 C222.15,724.981 226.567,729.664 224.957,732.592 C221.416,739.033 225.297,746.526 219.804,754.215 C219.804,754.215 142.384,754.06 142.384,754.06 C141.823,754.059 139.834,752.931 140.075,752.459 C140.329,751.961 140.93,750.998 140.568,749.387 C147.134,748.197 150.462,743.354 150.425,737.374 C150.425,737.374 150.297,716.569 150.297,716.569 C150.297,716.569 150.039,657.996 150.039,657.996 C150.007,650.563 136.755,654.352 141.223,645.984 C141.223,645.984 217.917,646.15 217.917,646.15 C218.997,648.825 218.608,652.071 218.252,654.651 C218.754,655.153 220.066,656.046 220.07,657.017 C220.07,657.017 220.135,671.058 220.135,671.058 C220.144,673.091 217.248,671.818 216.302,671.417 C214.869,670.81 213.839,668.969 213.494,667.37 C211.154,665.192 212.18,662.696 211.017,661.525 C210.596,661.102 209.275,662.034 209.075,661.462 C207.89,658.087 204.95,657.4 203.539,655.38 C201.601,656.113 199.98,654.957 198.167,654.728 C198.167,654.728 190.144,653.714 190.144,653.714 C190.144,653.714 174.761,653.569 174.761,653.569 C173.864,653.56 171.841,654.149 171.078,654.494 C168.629,655.602 169.13,677.255 169.455,689.135 C169.501,690.835 168.327,695.224 171.526,695.406 C174.828,695.594 179.187,695.662 182.724,695.398 C182.724,695.398 194.541,694.514 194.541,694.514 C195.551,693.712 198.182,692.735 199.002,691.896 C201.541,689.302 202.291,683.152 206.826,685.166 Z " fill="rgb(94,112,93)"/>
<path d="M519.786,891.153 C513.181,879.745 514.444,866.71 524.899,859.04 C530.944,854.606 538.688,852.791 546.019,850.967 C546.019,850.967 563.912,846.514 563.912,846.514 C562.528,839.435 565.949,838.466 561.044,829.978 C558.844,826.17 554.067,825.967 550.05,825.767 C537.536,825.147 540.388,836.637 535.935,844.095 C534.232,846.948 530.847,847.983 527.888,847.518 C522.836,846.726 518.97,840.938 519.503,836.376 C520.116,831.138 522.068,826.468 526.163,823.534 C531.934,819.4 538.129,816.541 545.874,815.604 C555.761,814.409 567.764,815.47 575.961,822.156 C581.696,826.833 584.21,836.371 584.196,843.054 C584.196,843.054 584.115,881.601 584.115,881.601 C585.219,883.327 586.375,885.179 587.588,885.265 C591.619,885.552 594.05,882.989 596,884.435 C601.508,888.521 587.61,902.264 577.016,899.26 C566.204,896.195 566.586,890.236 565.435,889.825 C564.476,889.482 562.924,890.076 562.161,891.102 C555.998,899.392 534.816,904.279 523.103,894.154 C522.305,893.464 520.848,891.643 519.786,891.153 Z M555.088,884.957 C562.138,882.322 564.823,878.241 564.313,870.759 C564.114,867.841 567.019,857.273 562.437,856.036 C561.726,855.844 560.51,857.101 559.296,857.25 C548.934,858.522 536.177,862.844 535.868,872.995 C535.747,876.988 535.871,880.145 538.596,882.923 C542.043,886.439 549.27,887.132 555.088,884.957 Z " fill="rgb(94,112,93)"/>
<path d="M764.436,753.853 C757.317,758.473 749.424,757.499 742.132,756.018 C733.226,754.209 727.373,748.83 725.564,739.121 C724.381,732.772 726.198,725.328 731.371,719.845 C738.65,712.128 750.096,709.761 760.551,707.649 C760.551,707.649 767.95,706.154 767.95,706.154 C770.452,705.649 772.267,705.217 773.289,703.774 C774.459,702.122 773.658,691.26 770.206,687.386 C767.277,684.098 763.867,683.784 759.447,683.431 C752.822,682.903 748.276,687.157 747.458,693.652 C747.458,693.652 745.544,700.173 745.544,700.173 C744.609,703.359 738.868,706.339 735.514,705.459 C729.764,703.949 727.804,697.563 729.341,691.75 C733.706,675.246 755.485,671.687 773.077,674.751 C784.478,676.736 791.965,685.639 792.253,696.608 C792.253,696.608 793.48,701.827 793.48,701.827 C793.48,701.827 793.395,728.5 793.395,728.5 C793.383,732.143 792.41,735.222 793.941,739.071 C794.355,740.11 793.636,742.698 794.518,742.908 C799.295,744.045 801.942,741.755 803.268,742.145 C804.179,742.414 805.826,743.686 805.676,744.838 C804.784,751.677 799.276,754.793 793.391,756.388 C789.17,757.531 778.768,756.128 776.326,751.44 C776.959,750.213 775.643,749.785 775.256,749.13 C774.588,747.999 772.762,747.139 771.748,749.184 C770.625,751.45 766.867,752.275 764.436,753.853 Z M762.733,744.119 C771.64,740.378 776.408,733.763 775.117,723.878 C774.712,720.778 777.144,716.481 774.371,713.338 C772.595,712.374 770.38,713.602 768.773,714.151 C761.762,716.546 753.045,717.377 748.107,723.745 C743.996,729.048 744.076,735.287 747.351,741.269 C747.351,741.269 752.421,744.137 752.421,744.137 C754.95,745.568 760.189,745.188 762.733,744.119 Z " fill="rgb(94,112,93)"/>
<path d="M503.026,871.552 C507.732,874.354 501.172,885.104 496.693,889.357 C490.072,895.642 481.888,898.184 473.412,899.404 C464.922,900.626 452.562,896.381 445.806,890.773 C435.026,881.825 430.357,866.858 431.662,852.852 C431.662,852.852 432.547,843.347 432.547,843.347 C432.547,843.347 434.505,839.483 434.505,839.483 C436.409,835.724 438.258,832.087 441.082,828.864 C442.418,827.34 444.559,826.55 444.72,824.369 C459.937,812.186 480.507,811.616 495.294,823.67 C495.294,823.67 500.223,830.287 500.223,830.287 C504.301,835.763 504.972,843.747 504.936,850.931 C504.901,857.729 496.344,856.538 487.93,856.586 C476.125,856.654 464.807,856.996 453.084,856.247 C451.255,856.463 451.511,861.833 452.742,862.919 C453.938,876.289 465.859,885.835 478.551,883.863 C478.551,883.863 485.62,882.786 485.62,882.786 C490.019,880.599 494.585,878.215 497.01,874.054 C498.485,871.524 500.649,870.136 503.026,871.552 Z M453.362,844.638 C453.362,844.638 484.953,844.976 484.953,844.976 C485.894,838.942 484.343,831.956 480.216,828.181 C474.733,823.164 468.224,822.637 462.123,826.167 C461.157,826.725 459.107,827.459 458.254,828.444 C454.757,832.483 450.263,841.766 453.362,844.638 Z " fill="rgb(94,112,93)"/>
<path d="M403.887,894.936 C403.887,894.936 380.468,895.593 380.468,895.593 C375.345,895.737 370.303,896.687 365.353,895.267 C364.223,896.146 363.747,895.384 363.091,895.225 C362.016,894.963 361.356,893.414 361.907,892.526 C362.565,891.465 363.455,890.839 365.042,890.876 C367.215,890.925 368.36,888.856 370.003,887.834 C373.464,885.681 373.857,881.122 373.852,876.944 C373.852,876.944 373.769,799.672 373.769,799.672 C369.407,798.851 365.292,797.719 361.439,798.607 C361.439,798.607 351.197,800.966 351.197,800.966 C351.197,800.966 344.409,808.042 344.409,808.042 C342.028,810.524 341.456,814.047 339.97,817.187 C339.076,819.075 335.92,818.054 334.652,816.929 C332.943,815.412 334.142,812.742 334.497,811.091 C334.497,811.091 335.59,806.008 335.59,806.008 C335.59,806.008 336.278,796.713 336.278,796.713 C336.548,793.059 339.177,790.138 343.437,790.144 C343.437,790.144 417.528,790.253 417.528,790.253 C417.528,790.253 426.638,791.294 426.638,791.294 C429.964,792.777 430.276,797.886 430.148,800.872 C429.785,809.354 433.204,815.524 429.572,816.382 C428.061,816.739 426.624,816.216 425.707,814.042 C423.031,816.583 424.196,811.256 421.847,808.865 C420.021,807.006 419.165,803.183 416.009,802.11 C408.766,799.649 401.374,799.236 393.852,800.713 C393.852,800.713 394.291,883.464 394.291,883.464 C394.312,887.462 400.481,889.961 402.603,890.274 C401.785,892.28 403.161,891.804 403.73,891.932 C404.636,892.136 405.111,894.901 403.887,894.936 Z " fill="rgb(94,111,92)"/>
<path d="M707.571,730.285 C709.022,728.942 710.206,729.116 711.07,729.478 C716.363,731.701 710.542,744.351 700.401,751.207 C687.521,759.916 668.628,758.924 655.972,749.304 C647.721,743.033 640.888,731.144 640.85,721.861 C640.85,721.861 640.804,710.569 640.804,710.569 C640.762,700.299 647.201,689.405 654.257,682.825 C665.315,672.513 682.858,670.195 696.97,677.232 C707.045,682.256 712.357,692.917 713.244,704.048 C713.425,706.319 714.17,712.43 711.06,713.154 C711.06,713.154 661.085,713.957 661.085,713.957 C660.043,718.215 661.407,722.257 662.605,726.054 C668.7,745.37 693.678,743.145 699.185,738.048 C699.185,738.048 707.571,730.285 707.571,730.285 Z M689.761,686.636 C686.636,682.573 678.141,679.735 673.536,681.88 C664.894,685.905 660.646,694.385 660.066,704.289 C660.066,704.289 689.062,704.076 689.062,704.076 C690.792,704.063 692.74,704.866 694.316,703.772 C697.068,701.862 693.709,691.769 689.761,686.636 Z " fill="rgb(95,112,93)"/>
<path d="M642.4,899.464 C642.4,899.464 631.595,899.626 631.595,899.626 C628.642,899.67 627.527,898.847 625.006,898.345 C625.006,898.345 614.59,896.268 614.59,896.268 C612.901,895.931 611.018,895.84 609.68,894.817 C607.97,893.509 608.195,891.11 608.07,889.109 C608.07,889.109 607.057,872.956 607.057,872.956 C606.875,870.053 607.516,867.543 610.51,867.042 C616.588,866.025 616.937,882.454 630.752,887.489 C634.561,888.877 641.37,888.69 645.381,887.497 C648.851,886.465 650.558,881.875 650.664,879.473 C650.793,876.538 649.175,872.351 645.993,870.812 C645.993,870.812 631.241,863.676 631.241,863.676 C624.268,860.303 616.021,858.271 611.375,852.061 C605.371,844.036 606.032,834.144 611.253,825.804 C615.262,819.399 623.551,817.925 630.003,815.146 C635.072,812.961 638.962,814.26 644.172,815.807 C651.061,817.852 656.383,815.936 659.024,818.436 C660.552,819.882 661.152,821.26 660.862,824.051 C660.097,831.436 664.141,836.549 661.872,840.421 C660.721,842.384 658.229,844.008 655.884,842.236 C651.437,838.876 651.028,830.076 642.864,826.239 C634.893,822.492 624.796,825.649 623.919,832.526 C623.651,834.626 625.191,836.983 626.7,838.386 C626.44,838.897 625.94,839.411 626.379,840.061 C627.164,841.222 627.961,840.61 628.535,840.261 C629.68,841.29 630.829,842.394 632.196,842.964 C632.196,842.964 650.349,850.527 650.349,850.527 C664.401,856.382 672.605,871.349 665.178,885.058 C660.333,894.002 651.703,897.802 642.4,899.464 Z M638.978,815.589 C636.145,814.75 634.765,814.567 632.566,815.102 C634.767,816.699 637.116,816.186 638.978,815.589 Z " fill="rgb(95,112,93)"/>
<path d="M500.423,743.41 C516.608,742.48 520.474,729.878 523.013,730.377 C523.919,730.555 526.188,729.656 525.931,732.174 C524.447,746.751 507.014,757.153 490.438,755.717 C474.307,754.319 460.501,743.278 457.865,727.061 C457.865,727.061 456.504,722.604 456.504,722.604 C453.819,713.81 457.814,705.728 458.143,700.962 C458.518,695.534 463.423,691.411 465.163,687.393 C466.581,684.117 469.087,682.305 471.953,680.915 C476.433,678.742 480.306,676.451 485.604,675.112 C496.881,672.262 514.69,678.188 519.695,685.783 C525.118,694.013 527.755,702.688 525.954,711.929 C525.889,712.266 524.757,711.372 524.472,711.221 C524.186,711.071 523.581,711.949 523.048,711.969 C523.048,711.969 504.872,712.658 504.872,712.658 C502.062,712.764 499.913,712.704 497.133,712.679 C497.133,712.679 475.247,712.482 475.247,712.482 C472.183,715.329 473.714,722.384 475.659,728.059 C479.306,738.693 490.275,743.994 500.423,743.41 Z M507.663,704.271 C513.045,701.319 507.377,695.55 506.441,690.085 C505.477,684.463 501.106,684.226 497.098,682.083 C494.845,680.878 490.538,680.714 488.391,681.906 C488.391,681.906 480.392,686.347 480.392,686.347 C479.323,686.941 471.335,701.569 475.152,704.465 C475.152,704.465 495.823,704.25 495.823,704.25 C499.919,704.208 503.809,704.315 507.663,704.271 Z " fill="rgb(95,111,93)"/>
<path d="M842.059,734.982 C841.998,750.937 854.615,747.903 853.62,752.009 C853.144,753.977 852.239,753.738 850.304,753.784 C850.304,753.784 816.07,754.604 816.07,754.604 C816.218,751.733 816.648,750.144 818,748.978 C821.098,748.172 825.449,744.116 825.474,740.388 C825.474,740.388 825.846,684.825 825.846,684.825 C820.877,685.346 817.946,685.681 815.022,683.274 C814.187,685.122 812.253,683.528 813.832,682.503 C812.808,681.673 812.472,679.846 812.993,678.574 C814.549,674.77 823.896,678.52 825.575,675.238 C827.313,671.84 826.701,668.217 826.531,665.149 C826.364,662.139 827.958,660.264 828.464,657.865 C830.673,647.387 840.433,640.823 850.982,639.468 C853.832,639.102 855.857,637.512 858.916,638.16 C867.206,639.915 876.096,640.072 876.982,649.596 C877.272,652.714 876.199,656.727 873.057,658.095 C871.906,658.357 870.992,658.148 870.861,660.196 C865.873,658.654 863.607,655.41 862.088,650.974 C862.088,650.974 859.538,646.783 859.538,646.783 C855.961,644.972 852.763,645.399 850.328,645.472 C846.293,647.164 844.258,649.891 843.935,653.79 C843.269,654.976 842.287,656.829 842.291,657.971 C842.291,657.971 842.354,676.586 842.354,676.586 C842.354,676.586 861.79,677.209 861.79,677.209 C863.586,677.267 863.486,681.272 863.018,682.476 C862.313,684.291 859.448,684.493 857.484,684.598 C857.484,684.598 842.25,685.415 842.25,685.415 C842.25,685.415 842.059,734.982 842.059,734.982 Z " fill="rgb(94,112,93)"/>
<path d="M626.388,743.534 C626.629,747.459 632.566,748.046 634.164,749.343 C635.269,750.24 635.745,754.558 633.766,754.569 C633.766,754.569 604.422,754.728 604.422,754.728 C602.102,754.74 600.699,752.578 600.02,750.255 C605.218,748.772 608.042,744.879 608.027,738.921 C608.027,738.921 607.817,654.619 607.817,654.619 C605.704,652.023 601.702,651.205 600.462,648.758 C599.193,646.254 603.005,644.986 604.537,644.571 C611.867,642.584 618.784,635.358 624.561,641.358 C624.342,643.828 624.905,647.976 624.894,650.953 C624.894,650.953 624.715,701.542 624.715,701.542 C624.698,706.247 624.393,710.63 624.678,715.358 C624.678,715.358 625.578,730.33 625.578,730.33 C625.578,730.33 626.388,743.534 626.388,743.534 Z " fill="rgb(93,112,92)"/>
<path d="M560.787,715.313 C560.558,721.462 560.326,727.565 560.75,733.165 C560.75,733.165 561.389,741.625 561.389,741.625 C561.947,749 570.155,747.062 570.277,751.516 C570.311,752.755 569.699,754.753 567.59,754.748 C567.59,754.748 537.182,754.681 537.182,754.681 C535.597,754.677 535.576,750.856 536.397,749.97 C537.438,748.846 538.804,747.859 540.653,747.643 C540.653,747.643 542.994,745.623 542.994,745.623 C542.994,745.623 543.002,691.955 543.002,691.955 C540.352,687.038 535.411,688.422 536.082,682.212 C536.082,682.212 555.037,674.758 555.037,674.758 C556.478,674.191 560.512,672.942 560.685,675.377 C560.685,675.377 561.538,687.373 561.538,687.373 C564.929,686.673 564.893,683.22 566.322,681.358 C570.822,675.496 578.646,673.067 586.083,674.156 C594.139,675.335 596.083,683.829 594.737,690.462 C594.208,693.069 594.245,694.991 592.003,696.57 C589.573,698.279 584.185,698.339 581.982,696.656 C580.867,695.804 581.589,695.018 581.27,694.287 C581.27,694.287 575.74,687.565 575.74,687.565 C574.505,687.858 572.435,687.313 571.274,688.069 C566.766,691.57 561.538,695.167 561.317,701.098 C561.317,701.098 560.787,715.313 560.787,715.313 Z M553.184,750.212 C551.734,750.723 551.462,752.777 552.349,753.452 C552.855,753.837 553.773,753.543 555.228,753.005 C556.404,752.57 554.332,749.808 553.184,750.212 Z " fill="rgb(96,112,94)"/>
<path d="M495.879,388.993 C496.187,388.984 497.3,389.363 498.365,388.808 C497.765,387.261 497.448,384.671 499.146,383.989 C499.146,383.989 499.884,392.382 499.884,392.382 C499.942,393.045 499.135,394.311 498.05,394.56 C498.05,394.56 495.879,388.993 495.879,388.993 Z " fill="rgb(222,234,220)"/>
<path d="M517.967,485.708 C517.727,487.178 516.546,487.362 515.406,488.438 C515.406,488.438 514.705,493.657 514.705,493.657 C514.705,493.657 509.156,509.103 509.156,509.103 C508.601,510.647 507.792,511.625 508.032,513.186 C506.565,514.178 505.59,514.321 504.153,513.258 C504.214,512.123 502.856,510.948 502.439,509.515 C501.83,507.421 502.396,504.317 499.912,502.901 C497.658,501.616 501.205,495.452 499.263,490.812 C499.263,490.812 498.849,433.576 498.849,433.576 C495.162,420.18 489.791,408.721 483.042,396.829 C481.774,394.594 479.288,392.474 477.265,390.806 C474.464,388.895 468.89,387.692 464.926,386.662 C464.926,386.662 456.256,384.409 456.256,384.409 C451.329,383.129 446.275,382.147 441.467,380.598 C402.052,367.903 392.117,352.26 386.441,349.34 C384.339,348.258 370.721,333.167 367.084,327.998 C353.082,308.096 344.361,286.028 338.593,262.567 C338.593,262.567 336.486,251.813 336.486,251.813 C336.486,251.813 334.474,242.938 334.474,242.938 C333.384,238.127 341.583,237.999 350.586,240.413 C350.586,240.413 362.133,243.509 362.133,243.509 C362.133,243.509 370.053,245.76 370.053,245.76 C395.02,252.854 418.216,263.989 437.915,280.801 C438.088,284.474 444.973,285.689 450.098,292.767 C450.967,296.178 453.293,297.779 455.629,298.667 C455.629,298.667 462.963,307.96 462.963,307.96 C462.963,307.96 473.076,325.088 473.076,325.088 C474.823,328.048 476.201,331.747 477.524,335.086 C477.524,335.086 483.821,350.974 483.821,350.974 C484.165,351.842 483.242,352.209 483.174,352.517 C483.072,352.98 484.546,353.727 484.655,354.246 C484.655,354.246 489.15,375.751 489.15,375.751 C489.74,378.574 491.186,380.049 492.437,382.434 C492.437,382.434 495.879,388.993 495.879,388.993 C495.879,388.993 498.05,394.56 498.05,394.56 C499.135,394.311 499.942,393.045 499.884,392.382 C499.884,392.382 499.146,383.989 499.146,383.989 C499.146,383.989 498.855,298.53 498.855,298.53 C498.844,295.426 495.621,292.156 494.119,289.989 C481.83,272.26 471.81,253.936 465.975,233.169 C465.975,233.169 462.738,215.118 462.738,215.118 C459.973,188.331 467.257,162.701 479.149,139.044 C479.149,139.044 490.57,119.977 490.57,119.977 C491.955,117.665 494.306,114.37 495.839,112.466 C495.839,112.466 505.407,100.582 505.407,100.582 C506.678,99.0033 511.699,94.2107 512.401,94.104 C515.461,93.6393 515.099,95.5529 516.489,97.5081 C530.964,117.877 541.79,139.792 549.193,163.69 C564.15,211.973 549.157,248.352 521.999,287.999 C516.048,294.594 514.634,302.224 516.606,310.272 C515.469,317.55 515.423,324.825 516.389,331.628 C516.389,331.628 516.414,349.621 516.414,349.621 C516.414,349.621 516.346,376.391 516.346,376.391 C516.346,376.391 516.866,390.178 516.866,390.178 C520.674,388.587 521.076,384.541 522.819,382.014 C528.668,373.537 529.898,364.467 531.778,354.796 C531.778,354.796 534.567,340.449 534.567,340.449 C535.156,337.424 536.04,334.672 536.976,331.85 C545.347,306.607 558.224,282.629 578.996,265.502 C592.722,254.184 607.326,246.145 623.931,240.932 C623.931,240.932 629.993,239.029 629.993,239.029 C641.36,235.461 652.076,232.842 664.099,230.779 C666.126,230.431 669.656,227.891 671.324,229.675 C671.301,231.803 673.374,232.637 673.817,233.683 C674.451,235.182 673.108,237.561 672.851,238.836 C672.851,238.836 668.32,261.36 668.32,261.36 C663.411,285.76 653.521,307.672 638.672,327.859 C638.672,327.859 627.747,340.113 627.747,340.113 C612.524,357.186 591.773,366.864 570.363,374.138 C570.363,374.138 549.854,379.737 549.854,379.737 C546.858,380.555 542.239,379.604 539.778,383.054 C528.361,399.055 519.745,417.794 517.03,437.895 C517.03,437.895 516.342,463.26 516.342,463.26 C516.342,463.26 515.837,487.07 515.837,487.07 C515.837,487.07 517.967,485.708 517.967,485.708 Z M509.608,261.579 C509.608,261.579 510.451,243.616 510.451,243.616 C510.451,243.616 510.527,217.367 510.527,217.367 C510.527,217.367 509.672,202.336 509.672,202.336 C509.326,196.257 510.808,190.717 509.063,183.812 C508.465,181.445 510.57,177.383 507.112,175.852 C507.112,175.852 506.395,181.922 506.395,181.922 C506.395,181.922 505.394,224.157 505.394,224.157 C505.394,224.157 505.361,239.788 505.361,239.788 C505.361,239.788 506.113,268.933 506.113,268.933 C506.136,269.845 506.952,270.821 507.472,271.058 C507.775,271.196 508.783,270.164 508.821,269.765 C508.821,269.765 509.608,261.579 509.608,261.579 Z M605.03,295.355 C604.283,296.093 604.189,296.803 602.281,297.535 C602.281,297.535 597.968,302.278 597.968,302.278 C595.57,304.916 592.652,307.339 590.176,310.047 C582.624,318.304 574.382,325.131 567.943,334.076 C565.136,337.977 561.208,340.581 558.743,345.082 C556.916,348.419 552.738,350.753 551.899,355.034 C551.736,355.866 551.146,355.977 550.516,355.993 C549.83,356.01 549.498,361.981 559.96,350.014 C559.96,350.014 566.996,341.967 566.996,341.967 C566.996,341.967 576.97,330.953 576.97,330.953 C576.97,330.953 588.03,318.994 588.03,318.994 C590.237,316.608 592.217,313.757 594.437,311.633 C597.841,308.376 601.522,305.637 603.828,302.097 C603.828,302.097 617.003,289.023 617.003,289.023 C617.292,288.722 617.717,287.801 617.782,287.495 C617.847,287.189 617.263,286.611 616.973,286.425 C615.131,285.242 608.971,291.465 605.03,295.355 Z M395.661,294.625 C396.733,292.444 394.849,291.8 393.385,291.176 C391.932,290.558 389.453,291.721 390.44,293.698 C391.087,294.993 393.466,295.759 394.817,296.742 C394.066,295.466 395.109,294.939 395.661,294.625 Z M460.614,360.235 C461.036,360.654 466.032,369.861 468.424,368.829 C472.259,367.174 467.046,363.339 463.42,358.7 C456.773,350.198 449.417,342.387 441.967,334.164 C441.967,334.164 439.932,331.917 439.932,331.917 C439.932,331.917 423.047,316.027 423.047,316.027 C423.047,316.027 409.895,304.94 409.895,304.94 C406.121,301.759 403.226,297.84 397.739,296.483 C400.005,303.448 405.655,305.704 409.946,309.962 C409.946,309.962 460.614,360.235 460.614,360.235 Z " fill="rgb(96,112,93)"/>
<path d="M463.42,358.7 C462.311,359.242 461.752,359.806 460.614,360.235 C460.614,360.235 409.946,309.962 409.946,309.962 C405.655,305.704 400.005,303.448 397.739,296.483 C403.226,297.84 406.121,301.759 409.895,304.94 C409.895,304.94 423.047,316.027 423.047,316.027 C423.047,316.027 439.932,331.917 439.932,331.917 C439.932,331.917 441.967,334.164 441.967,334.164 C449.417,342.387 456.773,350.198 463.42,358.7 Z " fill="rgb(232,242,229)"/>
<path d="M509.608,261.579 C509.608,261.579 508.821,269.765 508.821,269.765 C508.783,270.164 507.775,271.196 507.472,271.058 C506.952,270.821 506.136,269.845 506.113,268.933 C506.113,268.933 505.361,239.788 505.361,239.788 C505.361,239.788 505.394,224.157 505.394,224.157 C505.394,224.157 506.395,181.922 506.395,181.922 C506.395,181.922 507.112,175.852 507.112,175.852 C510.57,177.383 508.465,181.445 509.063,183.812 C510.808,190.717 509.326,196.257 509.672,202.336 C509.672,202.336 510.527,217.367 510.527,217.367 C510.527,217.367 510.451,243.616 510.451,243.616 C510.451,243.616 509.608,261.579 509.608,261.579 Z " fill="rgb(230,240,228)"/>
<path d="M603.828,302.097 C601.522,305.637 597.841,308.376 594.437,311.633 C592.217,313.757 590.237,316.608 588.03,318.994 C588.03,318.994 576.97,330.953 576.97,330.953 C576.97,330.953 566.996,341.967 566.996,341.967 C566.996,341.967 559.96,350.014 559.96,350.014 C549.498,361.981 549.83,356.01 550.516,355.993 C551.146,355.977 551.736,355.866 551.899,355.034 C552.738,350.753 556.916,348.419 558.743,345.082 C561.208,340.581 565.136,337.977 567.943,334.076 C574.382,325.131 582.624,318.304 590.176,310.047 C592.652,307.339 595.57,304.916 597.968,302.278 C597.968,302.278 602.281,297.535 602.281,297.535 C604.189,296.803 604.283,296.093 605.03,295.355 C605.787,295.138 606.995,294.971 607.603,295.829 C608.082,296.507 606.16,298.518 603.828,302.097 Z " fill="rgb(231,242,228)"/>
<path d="M460.614,360.235 C461.752,359.806 462.311,359.242 463.42,358.7 C467.046,363.339 472.259,367.174 468.424,368.829 C466.032,369.861 461.036,360.654 460.614,360.235 Z " fill="rgb(179,193,175)"/>
<path d="M508.032,513.186 C508.032,513.186 508.665,517.296 508.665,517.296 C508.949,519.144 507.743,520.103 506.484,520.106 C504.913,520.11 503.849,518.952 503.953,517.013 C503.953,517.013 504.153,513.258 504.153,513.258 C505.59,514.321 506.565,514.178 508.032,513.186 Z " fill="rgb(167,116,84)"/>
<path d="M395.661,294.625 C395.109,294.939 394.066,295.466 394.817,296.742 C393.466,295.759 391.087,294.993 390.44,293.698 C389.453,291.721 391.932,290.558 393.385,291.176 C394.849,291.8 396.733,292.444 395.661,294.625 Z " fill="rgb(137,154,135)"/>
<path d="M603.828,302.097 C606.16,298.518 608.082,296.507 607.603,295.829 C606.995,294.971 605.787,295.138 605.03,295.355 C608.971,291.465 615.131,285.242 616.973,286.425 C617.263,286.611 617.847,287.189 617.782,287.495 C617.717,287.801 617.292,288.722 617.003,289.023 C617.003,289.023 603.828,302.097 603.828,302.097 Z " fill="rgb(161,178,159)"/>
<path d="M421.322,737.094 C417.97,746.257 408.509,750.071 400.543,748.571 C393.425,747.23 389.014,742.801 386.468,735.906 C386.468,735.906 386.177,698.464 386.177,698.464 C389.885,690.677 396.37,685.017 404.496,684.541 C416.904,685.875 422.982,695.843 424.956,706.932 C427.272,719.939 425.466,725.764 421.322,737.094 Z " fill="rgb(253,253,252)"/>
<path d="M555.088,884.957 C549.27,887.132 542.043,886.439 538.596,882.923 C535.871,880.145 535.747,876.988 535.868,872.995 C536.177,862.844 548.934,858.522 559.296,857.25 C560.51,857.101 561.726,855.844 562.437,856.036 C567.019,857.273 564.114,867.841 564.313,870.759 C564.823,878.241 562.138,882.322 555.088,884.957 Z " fill="rgb(251,253,251)"/>
<path d="M762.733,744.119 C760.189,745.188 754.95,745.568 752.421,744.137 C752.421,744.137 747.351,741.269 747.351,741.269 C744.076,735.287 743.996,729.048 748.107,723.745 C753.045,717.377 761.762,716.546 768.773,714.151 C770.38,713.602 772.595,712.374 774.371,713.338 C777.144,716.481 774.712,720.778 775.117,723.878 C776.408,733.763 771.64,740.378 762.733,744.119 Z " fill="rgb(252,253,252)"/>
<path d="M453.362,844.638 C450.263,841.766 454.757,832.483 458.254,828.444 C459.107,827.459 461.157,826.725 462.123,826.167 C468.224,822.637 474.733,823.164 480.216,828.181 C484.343,831.956 485.894,838.942 484.953,844.976 C484.953,844.976 453.362,844.638 453.362,844.638 Z " fill="rgb(253,254,252)"/>
<path d="M689.761,686.636 C693.709,691.769 697.068,701.862 694.316,703.772 C692.74,704.866 690.792,704.063 689.062,704.076 C689.062,704.076 660.066,704.289 660.066,704.289 C660.646,694.385 664.894,685.905 673.536,681.88 C678.141,679.735 686.636,682.573 689.761,686.636 Z " fill="rgb(251,253,251)"/>
<path d="M638.978,815.589 C637.116,816.186 634.767,816.699 632.566,815.102 C634.765,814.567 636.145,814.75 638.978,815.589 Z " fill="rgb(182,192,184)"/>
<path d="M507.663,704.271 C503.809,704.315 499.919,704.208 495.823,704.25 C495.823,704.25 475.152,704.465 475.152,704.465 C471.335,701.569 479.323,686.941 480.392,686.347 C480.392,686.347 488.391,681.906 488.391,681.906 C490.538,680.714 494.845,680.878 497.098,682.083 C501.106,684.226 505.477,684.463 506.441,690.085 C507.377,695.55 513.045,701.319 507.663,704.271 Z " fill="rgb(251,253,250)"/>
<path d="M553.184,750.212 C554.332,749.808 556.404,752.57 555.228,753.005 C553.773,753.543 552.855,753.837 552.349,753.452 C551.462,752.777 551.734,750.723 553.184,750.212 Z " fill="rgb(112,123,110)"/>
</svg>