<svg xmlns="http://www.w3.org/2000/svg" width="1024" height="1024">
<defs>
</defs>
<path d="M0,1023.5 C0,1023.5 0,0 0,0 C0,0 1024,0 1024,0 C1024,0 1024,1024 1024,1024 C1024,1024 0,1024 0,1024 C0,1024 0,1023.5 0,1023.5 Z M159.371,422.329 C164.539,410.539 170.44,392.45 166.308,381.829 C165.392,379.473 162.684,378.374 160.677,379.253 C154.491,381.963 164.692,395.534 151.475,410.285 C154.671,413.872 156.832,417.465 159.371,422.329 Z M170.046,642.11 C177.772,637.327 180.028,629.743 180.964,620.862 C186.097,572.098 183.113,523.785 171.742,476.272 C167.589,458.917 163.03,442.485 155.799,426.212 C151.464,416.458 146.007,407.037 137.442,411.576 C132.213,414.346 132.125,423.691 134.075,432.086 C149.68,499.295 153.143,547.752 144.818,616.927 C144.052,623.292 144.023,629.023 146.336,634.665 C150.284,644.298 161.234,647.566 170.046,642.11 Z M113.819,608.86 C113.819,608.86 139.25,521.18 139.25,521.18 C141.143,514.654 140.81,508.739 136.214,503.674 C136.214,503.674 129.369,496.13 129.369,496.13 C131.212,487.226 133.714,479.323 137.288,470.869 C135.706,460.93 134.055,451.446 131.189,441.367 C123.328,460.559 117.641,478.569 112.034,498.089 C112.034,498.089 81.9387,602.855 81.9387,602.855 C79.2644,612.165 91.944,618.764 100.893,619.075 C107.56,619.307 112.088,614.827 113.819,608.86 Z M278.04,548.676 C278.04,548.676 278.028,471.768 278.028,471.768 C278.028,471.768 265.727,471.638 265.727,471.638 C265.727,471.638 265.738,548.661 265.738,548.661 C265.738,548.661 278.04,548.676 278.04,548.676 Z M256.56,527.341 C256.494,519.744 253.164,513.3 245.838,509.508 C253.608,505.347 256.215,496.745 253.536,488.157 C251.372,481.22 244.34,475.651 236.051,475.601 C236.051,475.601 204.435,475.411 204.435,475.411 C204.435,475.411 204.452,548.68 204.452,548.68 C204.452,548.68 238.166,548.348 238.166,548.348 C249.382,547.259 256.655,538.243 256.56,527.341 Z M734.776,548.741 C734.776,548.741 747.686,548.811 747.686,548.811 C744.489,534.71 750.389,520.223 737.844,512.603 C744.117,509.235 747.721,503.156 747.504,495.877 C748.271,484.951 740.168,475.831 729.169,475.724 C729.169,475.724 697.332,475.413 697.332,475.413 C697.332,475.413 697.265,548.669 697.265,548.669 C697.265,548.669 709.794,548.792 709.794,548.792 C709.794,548.792 709.795,517.849 709.795,517.849 C709.795,517.849 722.966,517.879 722.966,517.879 C729.35,517.894 733.206,522.17 733.574,528.4 C733.574,528.4 734.776,548.741 734.776,548.741 Z M596.847,538.724 C593.021,540.58 587.869,539.431 587.82,536.116 C587.82,536.116 587.352,504.383 587.352,504.383 C587.352,504.383 597.935,504.062 597.935,504.062 C597.935,504.062 597.993,494.294 597.993,494.294 C597.993,494.294 587.357,494.139 587.357,494.139 C587.357,494.139 587.397,478.489 587.397,478.489 C587.397,478.489 575.216,478.736 575.216,478.736 C575.216,478.736 575.158,494.159 575.158,494.159 C575.158,494.159 566.961,494.262 566.961,494.262 C566.961,494.262 566.924,504.253 566.924,504.253 C566.924,504.253 575.073,504.329 575.073,504.329 C575.073,504.329 575.325,537.942 575.325,537.942 C575.377,544.854 580.269,550.407 587.059,549.746 C587.059,549.746 597.042,548.774 597.042,548.774 C597.366,545.376 597.778,542.589 596.847,538.724 Z M319.38,543.92 C319.38,543.92 320.064,548.826 320.064,548.826 C320.064,548.826 331.358,548.806 331.358,548.806 C330.56,536.185 330.786,523.859 330.889,511.028 C330.963,501.829 325.386,494.912 316.22,493.587 C311.194,492.861 305.667,492.888 300.761,494.645 C294.116,497.023 289.945,502.95 289.862,509.666 C289.862,509.666 301.442,509.686 301.442,509.686 C302.425,502.889 307.601,501.835 313.59,502.846 C317.854,503.566 320.857,511.324 318.103,514.763 C318.103,514.763 301.372,516.238 301.372,516.238 C291.651,518.626 286.099,525.924 287.295,535.51 C288.434,544.644 296.15,550.623 306.054,550.001 C311.49,549.66 316.038,547.933 319.38,543.92 Z M429.333,546.728 C438.591,541.627 439.628,527.611 431.91,521.345 C423.307,514.361 408.67,515.413 407.87,508.48 C407.566,505.845 409.156,503.675 411.892,502.857 C417.311,501.236 422.87,503.103 424.346,509.103 C424.346,509.103 435.801,509.205 435.801,509.205 C434.866,500.66 429.149,494.944 421.302,493.605 C409.807,491.644 398.276,495.691 396.45,505.156 C391.798,529.27 425.697,522.147 424.742,534.503 C424.519,537.381 422.31,539.606 419.017,540.312 C412.644,541.678 407.073,538.571 406.029,532.312 C406.029,532.312 394.096,532.452 394.096,532.452 C394.755,537.553 396.939,543.13 401.974,546.179 C409.818,550.928 420.518,551.584 429.333,546.728 Z M550.627,532.489 C549.469,537.072 546.056,539.406 542.421,539.874 C538.155,540.424 534.247,538.882 531.965,535.038 C529.933,531.616 528.914,528.006 528.97,524.181 C528.97,524.181 563.29,524.238 563.29,524.238 C563.745,519.017 563.339,514.368 562.287,509.835 C559.788,499.069 551.029,492.648 539.943,493.063 C530.945,493.4 523.098,498.241 519.67,506.769 C515.941,516.046 515.732,526.414 519.212,535.699 C522.748,545.133 531.054,549.953 541.038,549.992 C551.921,550.035 560.621,543.327 562.762,532.461 C562.762,532.461 550.627,532.489 550.627,532.489 Z M620.525,549.988 C626.589,549.981 631.437,548.236 634.593,543.862 C634.593,543.862 635.169,548.777 635.169,548.777 C635.169,548.777 646.946,548.817 646.946,548.817 C646.946,548.817 646.164,510.081 646.164,510.081 C646.01,502.477 642.051,496.139 634.734,494.261 C628.607,492.688 621.776,492.491 615.821,494.724 C609.449,497.114 605.087,503.015 605.258,509.688 C605.258,509.688 616.869,509.711 616.869,509.711 C617.005,506.044 619.168,503.318 622.993,502.694 C626.537,502.115 630.455,502.481 632.433,505.084 C634.353,507.61 634.73,511.424 633.809,515.169 C627.572,515.105 621.7,515.112 615.754,516.627 C606.721,518.93 601.698,526.311 602.863,535.422 C603.922,543.705 610.655,550.001 620.525,549.988 Z M755.287,535.109 C756.171,544.294 762.998,549.954 772.055,549.988 C777.848,550.009 783.38,548.774 786.661,543.754 C786.661,543.754 788.086,548.837 788.086,548.837 C788.086,548.837 799.327,548.703 799.327,548.703 C799.327,548.703 798.715,510.042 798.715,510.042 C798.602,502.915 794.973,496.951 788.209,494.645 C781.999,492.528 775.01,492.65 768.756,494.636 C761.943,496.799 757.882,502.871 757.904,509.733 C757.904,509.733 769.518,509.606 769.518,509.606 C769.676,506.362 771.448,504.229 773.228,503.424 C775.68,502.314 778.37,502.457 781.283,502.865 C786.216,503.556 788.343,511.334 786.133,515.012 C779.406,515.481 772.41,515.024 766.321,517.231 C758.526,520.057 754.471,526.638 755.287,535.109 Z M841.896,546.971 C847.19,544.345 849.408,539.131 849.721,534.424 C851.211,512.025 819.692,518.215 820.734,507.478 C821.032,504.412 823.515,502.895 826.617,502.485 C831.394,501.854 836.009,503.679 837.187,509.282 C837.187,509.282 848.748,509.183 848.748,509.183 C847.721,499.501 840.371,493.536 830.968,493.16 C824.929,492.918 819.168,493.502 814.245,497.517 C807.703,502.854 806.934,514.435 813.846,520.078 C821.846,526.609 838.459,525.701 837.585,534.113 C837.205,537.771 834.818,539.849 831.382,540.466 C825.411,541.537 819.663,538.507 818.883,532.356 C818.883,532.356 807.085,532.434 807.085,532.434 C807.699,537.907 810.233,543.595 815.462,546.563 C823.379,551.057 833.646,551.062 841.896,546.971 Z M926.076,548.246 C926.076,548.246 926.433,518.384 926.433,518.384 C927.043,510.123 933.396,504.674 942.131,505.915 C942.131,505.915 942.34,493.416 942.34,493.416 C935.519,492.495 929.89,496.466 926.336,502.48 C926.336,502.48 925.138,494.312 925.138,494.312 C925.138,494.312 913.523,494.451 913.523,494.451 C913.523,494.451 913.529,548.588 913.529,548.588 C917.883,548.674 922.263,549.223 926.076,548.246 Z M385.763,494.356 C385.763,494.356 373.547,494.457 373.547,494.457 C373.547,494.457 372.918,530.866 372.918,530.866 C372.824,536.35 367.765,539.589 363.477,539.545 C358.201,539.491 354.886,535.506 354.867,529.943 C354.867,529.943 354.743,494.342 354.743,494.342 C354.743,494.342 342.457,494.447 342.457,494.447 C342.457,494.447 342.685,533.281 342.685,533.281 C342.719,539.173 345.591,545.334 350.909,547.912 C358.993,551.832 367.961,550.171 373.539,543.833 C373.539,543.833 374.177,548.71 374.177,548.71 C374.177,548.71 385.919,548.836 385.919,548.836 C385.919,548.836 385.763,494.356 385.763,494.356 Z M501.222,494.549 C501.222,494.549 492.281,533.619 492.281,533.619 C492.281,533.619 482.565,494.416 482.565,494.416 C482.565,494.416 470.787,494.468 470.787,494.468 C470.787,494.468 461.386,534.356 461.386,534.356 C461.386,534.356 452.442,494.436 452.442,494.436 C452.442,494.436 439.558,494.556 439.558,494.556 C439.558,494.556 454.196,548.689 454.196,548.689 C454.196,548.689 467.35,548.612 467.35,548.612 C467.35,548.612 476.456,509.886 476.456,509.886 C476.456,509.886 485.554,548.762 485.554,548.762 C485.554,548.762 498.484,548.603 498.484,548.603 C498.484,548.603 513.462,494.597 513.462,494.597 C513.462,494.597 501.222,494.549 501.222,494.549 Z M901.162,494.359 C901.162,494.359 888.863,494.491 888.863,494.491 C888.863,494.491 888.435,530.229 888.435,530.229 C888.369,535.786 883.613,539.663 878.547,539.515 C873.24,539.359 870.341,534.691 870.319,528.936 C870.319,528.936 870.186,494.348 870.186,494.348 C870.186,494.348 858.042,494.382 858.042,494.382 C858.042,494.382 858.382,534.596 858.382,534.596 C858.463,544.289 866.583,550.393 876.011,549.884 C881.233,549.603 885.714,548.15 888.627,543.725 C889.514,545.839 889.191,547.057 889.244,548.696 C889.244,548.696 901.246,548.765 901.246,548.765 C901.246,548.765 901.162,494.359 901.162,494.359 Z M685.781,526.269 C685.781,526.269 685.739,515.263 685.739,515.263 C685.739,515.263 657.208,515.246 657.208,515.246 C657.208,515.246 657.164,526.562 657.164,526.562 C657.164,526.562 685.781,526.269 685.781,526.269 Z " fill="rgb(254,254,254)"/>
<path d="M170.046,642.11 C161.234,647.566 150.284,644.298 146.336,634.665 C144.023,629.023 144.052,623.292 144.818,616.927 C153.143,547.752 149.68,499.295 134.075,432.086 C132.125,423.691 132.213,414.346 137.442,411.576 C146.007,407.037 151.464,416.458 155.799,426.212 C163.03,442.485 167.589,458.917 171.742,476.272 C183.113,523.785 186.097,572.098 180.964,620.862 C180.028,629.743 177.772,637.327 170.046,642.11 Z M144.955,426.413 C141.912,426.923 140.626,429.766 141.533,431.988 C142.28,433.818 144.305,435.271 146.373,434.801 C148.684,434.277 150.609,432.479 149.861,429.619 C149.441,428.012 147.814,425.934 144.955,426.413 Z M159.998,622.384 C157.287,624.004 156.806,627.256 158.913,629.396 C160.017,630.517 162.252,631.218 164.403,629.947 C166.34,628.802 167.157,626.365 166.127,624.376 C165.081,622.356 162.225,621.053 159.998,622.384 Z " fill="rgb(71,51,128)"/>
<path d="M113.819,608.86 C112.088,614.827 107.56,619.307 100.893,619.075 C91.944,618.764 79.2644,612.165 81.9387,602.855 C81.9387,602.855 112.034,498.089 112.034,498.089 C117.641,478.569 123.328,460.559 131.189,441.367 C134.055,451.446 135.706,460.93 137.288,470.869 C133.714,479.323 131.212,487.226 129.369,496.13 C129.369,496.13 136.214,503.674 136.214,503.674 C140.81,508.739 141.143,514.654 139.25,521.18 C139.25,521.18 113.819,608.86 113.819,608.86 Z M108.45,607.237 C108.45,607.237 134.675,517.006 134.675,517.006 C135.248,515.035 134.845,513.498 133.137,512.988 C133.137,512.988 103.913,613.802 103.913,613.802 C106.642,612.516 107.648,609.994 108.45,607.237 Z " fill="rgb(21,37,79)"/>
<path d="M256.56,527.341 C256.655,538.243 249.382,547.259 238.166,548.348 C238.166,548.348 204.452,548.68 204.452,548.68 C204.452,548.68 204.435,475.411 204.435,475.411 C204.435,475.411 236.051,475.601 236.051,475.601 C244.34,475.651 251.372,481.22 253.536,488.157 C256.215,496.745 253.608,505.347 245.838,509.508 C253.164,513.3 256.494,519.744 256.56,527.341 Z M232.871,504.6 C238.891,504.569 242.218,499.864 241.813,494.497 C241.426,489.363 237.727,485.867 231.956,485.839 C231.956,485.839 216.789,485.766 216.789,485.766 C216.789,485.766 216.864,504.684 216.864,504.684 C216.864,504.684 232.871,504.6 232.871,504.6 Z M243.39,526.474 C243.782,520.462 239.963,515.584 234.65,515.449 C234.65,515.449 216.767,514.995 216.767,514.995 C216.767,514.995 216.821,538.248 216.821,538.248 C216.821,538.248 233.008,538.259 233.008,538.259 C239.275,538.263 244.019,533.422 243.39,526.474 Z " fill="rgb(23,37,79)"/>
<path d="M734.776,548.741 C734.776,548.741 733.574,528.4 733.574,528.4 C733.206,522.17 729.35,517.894 722.966,517.879 C722.966,517.879 709.795,517.849 709.795,517.849 C709.795,517.849 709.794,548.792 709.794,548.792 C709.794,548.792 697.265,548.669 697.265,548.669 C697.265,548.669 697.332,475.413 697.332,475.413 C697.332,475.413 729.169,475.724 729.169,475.724 C740.168,475.831 748.271,484.951 747.504,495.877 C747.721,503.156 744.117,509.235 737.844,512.603 C750.389,520.223 744.489,534.71 747.686,548.811 C747.686,548.811 734.776,548.741 734.776,548.741 Z M734.748,496.528 C734.79,490.106 730.79,485.987 724.928,485.957 C724.928,485.957 709.818,485.879 709.818,485.879 C709.818,485.879 709.811,507.234 709.811,507.234 C709.811,507.234 725.926,507.005 725.926,507.005 C731.437,506.926 734.711,502.339 734.748,496.528 Z " fill="rgb(22,37,78)"/>
<path d="M501.222,494.549 C501.222,494.549 513.462,494.597 513.462,494.597 C513.462,494.597 498.484,548.603 498.484,548.603 C498.484,548.603 485.554,548.762 485.554,548.762 C485.554,548.762 476.456,509.886 476.456,509.886 C476.456,509.886 467.35,548.612 467.35,548.612 C467.35,548.612 454.196,548.689 454.196,548.689 C454.196,548.689 439.558,494.556 439.558,494.556 C439.558,494.556 452.442,494.436 452.442,494.436 C452.442,494.436 461.386,534.356 461.386,534.356 C461.386,534.356 470.787,494.468 470.787,494.468 C470.787,494.468 482.565,494.416 482.565,494.416 C482.565,494.416 492.281,533.619 492.281,533.619 C492.281,533.619 501.222,494.549 501.222,494.549 Z " fill="rgb(23,37,77)"/>
<path d="M620.525,549.988 C610.655,550.001 603.922,543.705 602.863,535.422 C601.698,526.311 606.721,518.93 615.754,516.627 C621.7,515.112 627.572,515.105 633.809,515.169 C634.73,511.424 634.353,507.61 632.433,505.084 C630.455,502.481 626.537,502.115 622.993,502.694 C619.168,503.318 617.005,506.044 616.869,509.711 C616.869,509.711 605.258,509.688 605.258,509.688 C605.087,503.015 609.449,497.114 615.821,494.724 C621.776,492.491 628.607,492.688 634.734,494.261 C642.051,496.139 646.01,502.477 646.164,510.081 C646.164,510.081 646.946,548.817 646.946,548.817 C646.946,548.817 635.169,548.777 635.169,548.777 C635.169,548.777 634.593,543.862 634.593,543.862 C631.437,548.236 626.589,549.981 620.525,549.988 Z M621.47,540.243 C626.259,541.143 630.598,539.272 632.53,535.604 C634.398,532.058 634.453,528.23 634.228,523.425 C634.228,523.425 624.041,523.785 624.041,523.785 C619.333,523.952 615.857,526.49 615.347,530.687 C614.877,534.545 616.342,539.279 621.47,540.243 Z " fill="rgb(24,38,78)"/>
<path d="M319.38,543.92 C316.038,547.933 311.49,549.66 306.054,550.001 C296.15,550.623 288.434,544.644 287.295,535.51 C286.099,525.924 291.651,518.626 301.372,516.238 C301.372,516.238 318.103,514.763 318.103,514.763 C320.857,511.324 317.854,503.566 313.59,502.846 C307.601,501.835 302.425,502.889 301.442,509.686 C301.442,509.686 289.862,509.666 289.862,509.666 C289.945,502.95 294.116,497.023 300.761,494.645 C305.667,492.888 311.194,492.861 316.22,493.587 C325.386,494.912 330.963,501.829 330.889,511.028 C330.786,523.859 330.56,536.185 331.358,548.806 C331.358,548.806 320.064,548.826 320.064,548.826 C320.064,548.826 319.38,543.92 319.38,543.92 Z M317.08,535.825 C319.385,531.573 318.984,527.196 319.018,523.425 C319.018,523.425 306.982,523.987 306.982,523.987 C303.966,524.128 301.305,526.372 300.527,528.234 C299.341,531.073 299.261,534.425 301.183,537.112 C304.812,542.183 313.868,541.75 317.08,535.825 Z " fill="rgb(23,38,80)"/>
<path d="M755.287,535.109 C754.471,526.638 758.526,520.057 766.321,517.231 C772.41,515.024 779.406,515.481 786.133,515.012 C788.343,511.334 786.216,503.556 781.283,502.865 C778.37,502.457 775.68,502.314 773.228,503.424 C771.448,504.229 769.676,506.362 769.518,509.606 C769.518,509.606 757.904,509.733 757.904,509.733 C757.882,502.871 761.943,496.799 768.756,494.636 C775.01,492.65 781.999,492.528 788.209,494.645 C794.973,496.951 798.602,502.915 798.715,510.042 C798.715,510.042 799.327,548.703 799.327,548.703 C799.327,548.703 788.086,548.837 788.086,548.837 C788.086,548.837 786.661,543.754 786.661,543.754 C783.38,548.774 777.848,550.009 772.055,549.988 C762.998,549.954 756.171,544.294 755.287,535.109 Z M786.617,531.241 C786.617,531.241 786.728,523.355 786.728,523.355 C786.728,523.355 775.013,523.956 775.013,523.956 C771.901,524.115 769.404,526.407 768.492,528.266 C767.121,531.057 767.371,534.421 769.071,537.021 C771.446,540.652 775.927,541.196 779.487,540.199 C783.38,539.108 786.549,536.033 786.617,531.241 Z " fill="rgb(23,37,77)"/>
<path d="M385.763,494.356 C385.763,494.356 385.919,548.836 385.919,548.836 C385.919,548.836 374.177,548.71 374.177,548.71 C374.177,548.71 373.539,543.833 373.539,543.833 C367.961,550.171 358.993,551.832 350.909,547.912 C345.591,545.334 342.719,539.173 342.685,533.281 C342.685,533.281 342.457,494.447 342.457,494.447 C342.457,494.447 354.743,494.342 354.743,494.342 C354.743,494.342 354.867,529.943 354.867,529.943 C354.886,535.506 358.201,539.491 363.477,539.545 C367.765,539.589 372.824,536.35 372.918,530.866 C372.918,530.866 373.547,494.457 373.547,494.457 C373.547,494.457 385.763,494.356 385.763,494.356 Z " fill="rgb(20,35,76)"/>
<path d="M550.627,532.489 C550.627,532.489 562.762,532.461 562.762,532.461 C560.621,543.327 551.921,550.035 541.038,549.992 C531.054,549.953 522.748,545.133 519.212,535.699 C515.732,526.414 515.941,516.046 519.67,506.769 C523.098,498.241 530.945,493.4 539.943,493.063 C551.029,492.648 559.788,499.069 562.287,509.835 C563.339,514.368 563.745,519.017 563.29,524.238 C563.29,524.238 528.97,524.181 528.97,524.181 C528.914,528.006 529.933,531.616 531.965,535.038 C534.247,538.882 538.155,540.424 542.421,539.874 C546.056,539.406 549.469,537.072 550.627,532.489 Z M550.705,515.937 C551.757,511.871 549.772,506.446 546.25,504.163 C542.093,501.469 536.173,502.106 532.973,505.88 C530.508,508.786 529.487,512.17 529.159,515.798 C529.159,515.798 550.705,515.937 550.705,515.937 Z " fill="rgb(23,37,77)"/>
<path d="M901.162,494.359 C901.162,494.359 901.246,548.765 901.246,548.765 C901.246,548.765 889.244,548.696 889.244,548.696 C889.191,547.057 889.514,545.839 888.627,543.725 C885.714,548.15 881.233,549.603 876.011,549.884 C866.583,550.393 858.463,544.289 858.382,534.596 C858.382,534.596 858.042,494.382 858.042,494.382 C858.042,494.382 870.186,494.348 870.186,494.348 C870.186,494.348 870.319,528.936 870.319,528.936 C870.341,534.691 873.24,539.359 878.547,539.515 C883.613,539.663 888.369,535.786 888.435,530.229 C888.435,530.229 888.863,494.491 888.863,494.491 C888.863,494.491 901.162,494.359 901.162,494.359 Z " fill="rgb(23,37,77)"/>
<path d="M429.333,546.728 C420.518,551.584 409.818,550.928 401.974,546.179 C396.939,543.13 394.755,537.553 394.096,532.452 C394.096,532.452 406.029,532.312 406.029,532.312 C407.073,538.571 412.644,541.678 419.017,540.312 C422.31,539.606 424.519,537.381 424.742,534.503 C425.697,522.147 391.798,529.27 396.45,505.156 C398.276,495.691 409.807,491.644 421.302,493.605 C429.149,494.944 434.866,500.66 435.801,509.205 C435.801,509.205 424.346,509.103 424.346,509.103 C422.87,503.103 417.311,501.236 411.892,502.857 C409.156,503.675 407.566,505.845 407.87,508.48 C408.67,515.413 423.307,514.361 431.91,521.345 C439.628,527.611 438.591,541.627 429.333,546.728 Z " fill="rgb(23,37,78)"/>
<path d="M841.896,546.971 C833.646,551.062 823.379,551.057 815.462,546.563 C810.233,543.595 807.699,537.907 807.085,532.434 C807.085,532.434 818.883,532.356 818.883,532.356 C819.663,538.507 825.411,541.537 831.382,540.466 C834.818,539.849 837.205,537.771 837.585,534.113 C838.459,525.701 821.846,526.609 813.846,520.078 C806.934,514.435 807.703,502.854 814.245,497.517 C819.168,493.502 824.929,492.918 830.968,493.16 C840.371,493.536 847.721,499.501 848.748,509.183 C848.748,509.183 837.187,509.282 837.187,509.282 C836.009,503.679 831.394,501.854 826.617,502.485 C823.515,502.895 821.032,504.412 820.734,507.478 C819.692,518.215 851.211,512.025 849.721,534.424 C849.408,539.131 847.19,544.345 841.896,546.971 Z " fill="rgb(23,37,78)"/>
<path d="M596.847,538.724 C597.778,542.589 597.366,545.376 597.042,548.774 C597.042,548.774 587.059,549.746 587.059,549.746 C580.269,550.407 575.377,544.854 575.325,537.942 C575.325,537.942 575.073,504.329 575.073,504.329 C575.073,504.329 566.924,504.253 566.924,504.253 C566.924,504.253 566.961,494.262 566.961,494.262 C566.961,494.262 575.158,494.159 575.158,494.159 C575.158,494.159 575.216,478.736 575.216,478.736 C575.216,478.736 587.397,478.489 587.397,478.489 C587.397,478.489 587.357,494.139 587.357,494.139 C587.357,494.139 597.993,494.294 597.993,494.294 C597.993,494.294 597.935,504.062 597.935,504.062 C597.935,504.062 587.352,504.383 587.352,504.383 C587.352,504.383 587.82,536.116 587.82,536.116 C587.869,539.431 593.021,540.58 596.847,538.724 Z " fill="rgb(23,38,79)"/>
<path d="M278.04,548.676 C278.04,548.676 265.738,548.661 265.738,548.661 C265.738,548.661 265.727,471.638 265.727,471.638 C265.727,471.638 278.028,471.768 278.028,471.768 C278.028,471.768 278.04,548.676 278.04,548.676 Z " fill="rgb(23,37,78)"/>
<path d="M926.076,548.246 C922.263,549.223 917.883,548.674 913.529,548.588 C913.529,548.588 913.523,494.451 913.523,494.451 C913.523,494.451 925.138,494.312 925.138,494.312 C925.138,494.312 926.336,502.48 926.336,502.48 C929.89,496.466 935.519,492.495 942.34,493.416 C942.34,493.416 942.131,505.915 942.131,505.915 C933.396,504.674 927.043,510.123 926.433,518.384 C926.433,518.384 926.076,548.246 926.076,548.246 Z " fill="rgb(22,35,75)"/>
<path d="M159.371,422.329 C156.832,417.465 154.671,413.872 151.475,410.285 C164.692,395.534 154.491,381.963 160.677,379.253 C162.684,378.374 165.392,379.473 166.308,381.829 C170.44,392.45 164.539,410.539 159.371,422.329 Z " fill="rgb(23,38,79)"/>
<path d="M685.781,526.269 C685.781,526.269 657.164,526.562 657.164,526.562 C657.164,526.562 657.208,515.246 657.208,515.246 C657.208,515.246 685.739,515.263 685.739,515.263 C685.739,515.263 685.781,526.269 685.781,526.269 Z " fill="rgb(23,39,80)"/>
<path d="M159.998,622.384 C162.225,621.053 165.081,622.356 166.127,624.376 C167.157,626.365 166.34,628.802 164.403,629.947 C162.252,631.218 160.017,630.517 158.913,629.396 C156.806,627.256 157.287,624.004 159.998,622.384 Z " fill="rgb(253,252,254)"/>
<path d="M144.955,426.413 C147.814,425.934 149.441,428.012 149.861,429.619 C150.609,432.479 148.684,434.277 146.373,434.801 C144.305,435.271 142.28,433.818 141.533,431.988 C140.626,429.766 141.912,426.923 144.955,426.413 Z " fill="rgb(255,253,255)"/>
<path d="M108.45,607.237 C107.648,609.994 106.642,612.516 103.913,613.802 C103.913,613.802 133.137,512.988 133.137,512.988 C134.845,513.498 135.248,515.035 134.675,517.006 C134.675,517.006 108.45,607.237 108.45,607.237 Z " fill="rgb(248,251,254)"/>
<path d="M243.39,526.474 C244.019,533.422 239.275,538.263 233.008,538.259 C233.008,538.259 216.821,538.248 216.821,538.248 C216.821,538.248 216.767,514.995 216.767,514.995 C216.767,514.995 234.65,515.449 234.65,515.449 C239.963,515.584 243.782,520.462 243.39,526.474 Z " fill="rgb(254,254,255)"/>
<path d="M232.871,504.6 C232.871,504.6 216.864,504.684 216.864,504.684 C216.864,504.684 216.789,485.766 216.789,485.766 C216.789,485.766 231.956,485.839 231.956,485.839 C237.727,485.867 241.426,489.363 241.813,494.497 C242.218,499.864 238.891,504.569 232.871,504.6 Z " fill="rgb(254,254,255)"/>
<path d="M734.748,496.528 C734.711,502.339 731.437,506.926 725.926,507.005 C725.926,507.005 709.811,507.234 709.811,507.234 C709.811,507.234 709.818,485.879 709.818,485.879 C709.818,485.879 724.928,485.957 724.928,485.957 C730.79,485.987 734.79,490.106 734.748,496.528 Z " fill="rgb(254,254,255)"/>
<path d="M621.47,540.243 C616.342,539.279 614.877,534.545 615.347,530.687 C615.857,526.49 619.333,523.952 624.041,523.785 C624.041,523.785 634.228,523.425 634.228,523.425 C634.453,528.23 634.398,532.058 632.53,535.604 C630.598,539.272 626.259,541.143 621.47,540.243 Z " fill="rgb(254,254,254)"/>
<path d="M317.08,535.825 C313.868,541.75 304.812,542.183 301.183,537.112 C299.261,534.425 299.341,531.073 300.527,528.234 C301.305,526.372 303.966,524.128 306.982,523.987 C306.982,523.987 319.018,523.425 319.018,523.425 C318.984,527.196 319.385,531.573 317.08,535.825 Z " fill="rgb(254,254,255)"/>
<path d="M786.617,531.241 C786.549,536.033 783.38,539.108 779.487,540.199 C775.927,541.196 771.446,540.652 769.071,537.021 C767.371,534.421 767.121,531.057 768.492,528.266 C769.404,526.407 771.901,524.115 775.013,523.956 C775.013,523.956 786.728,523.355 786.728,523.355 C786.728,523.355 786.617,531.241 786.617,531.241 Z " fill="rgb(254,254,255)"/>
<path d="M550.705,515.937 C550.705,515.937 529.159,515.798 529.159,515.798 C529.487,512.17 530.508,508.786 532.973,505.88 C536.173,502.106 542.093,501.469 546.25,504.163 C549.772,506.446 551.757,511.871 550.705,515.937 Z " fill="rgb(254,255,255)"/>
</svg>