<svg xmlns="http://www.w3.org/2000/svg" width="1024" height="1024" viewBox="0 0 1024 1024">
<path d="M68.8867,363.732 C68.8867,363.732 72.9561,363.92 72.9561,363.92 C72.9561,363.92 99.6782,363.814 99.6782,363.814 C101.646,363.806 103.48,363.426 105.772,364.051 C105.761,368.53 107.123,372.338 107.776,376.017 C107.776,376.017 110.787,392.986 110.787,392.986 C110.787,392.986 113.805,410.01 113.805,410.01 C113.805,410.01 118.109,435.958 118.109,435.958 C118.173,436.346 117.869,436.964 119.047,437.308 C117.94,439.054 119.618,441.996 119.942,443.856 C119.942,443.856 122.943,461.051 122.943,461.051 C122.943,461.051 126.295,480.185 126.295,480.185 C126.295,480.185 129.028,495.094 129.028,495.094 C129.028,495.094 132.52,514.529 132.52,514.529 C132.52,514.529 133.986,523.99 133.986,523.99 C134.278,525.871 134.527,527.632 135.616,530.066 C136.354,526.851 135.978,523.705 135.911,520.19 C135.657,519.948 135.19,519.913 135,520.04 C135,520.04 135.154,511.984 135.154,511.984 C135.154,511.984 134.736,492.722 134.736,492.722 C134.736,492.722 134.376,477.97 134.376,477.97 C134.376,477.97 134.308,461.016 134.308,461.016 C134.308,461.016 134.358,443.049 134.358,443.049 C134.358,443.049 134.356,426.989 134.356,426.989 C134.356,426.989 134.386,409.052 134.386,409.052 C134.386,409.052 134.358,392.963 134.358,392.963 C134.358,392.963 134.235,375.035 134.235,375.035 C134.235,375.035 134.446,364.284 134.446,364.284 C134.46,363.919 135.665,363.682 135.931,363.747 C136.207,363.418 136.704,363.465 136.809,363.942 C136.809,363.942 170.804,363.82 170.804,363.82 C170.804,363.82 170.837,375.094 170.837,375.094 C170.837,375.094 170.866,392.047 170.866,392.047 C170.866,392.047 170.801,409.109 170.801,409.109 C170.801,409.109 170.863,426.047 170.863,426.047 C170.863,426.047 170.84,443.98 170.84,443.98 C170.84,443.98 170.833,460.941 170.833,460.941 C170.833,460.941 170.861,478.043 170.861,478.043 C170.861,478.043 170.845,494.975 170.845,494.975 C170.845,494.975 170.84,512.055 170.84,512.055 C170.84,512.055 170.841,528.958 170.841,528.958 C170.841,528.958 170.863,546.064 170.863,546.064 C170.863,546.064 170.842,562.949 170.842,562.949 C170.842,562.949 170.828,580.072 170.828,580.072 C170.828,580.072 170.84,596.985 170.84,596.985 C170.84,596.985 170.826,614.086 170.826,614.086 C170.826,614.086 170.813,631.886 170.813,631.886 C170.813,631.886 170.847,660.111 170.847,660.111 C170.847,660.111 154.016,660.244 154.016,660.244 C154.016,660.244 131.101,660.107 131.101,660.107 C131.101,660.107 129.033,648.892 129.033,648.892 C129.033,648.892 125.685,631.137 125.685,631.137 C125.685,631.137 122.04,612.871 122.04,612.871 C121.585,610.589 121.92,607.654 120.025,605.618 C121.272,603.154 119.58,599.65 119.113,596.994 C119.113,596.994 116.288,580.92 116.288,580.92 C116.288,580.92 113.061,562.985 113.061,562.985 C113.061,562.985 109.82,545.119 109.82,545.119 C109.82,545.119 103.741,512.055 103.741,512.055 C103.741,512.055 99.3323,488.883 99.3323,488.883 C99.3323,488.883 99.765,511.964 99.765,511.964 C99.765,511.964 100.337,597.062 100.337,597.062 C100.337,597.062 100.423,649.92 100.423,649.92 C100.423,649.92 100.337,660.178 100.337,660.178 C100.337,660.178 85.0222,660.187 85.0222,660.187 C85.0222,660.187 67.0938,660.272 67.0938,660.272 C67.0938,660.272 63.1807,659.938 63.1807,659.938 C63.1807,659.938 63.1266,648.049 63.1266,648.049 C63.1266,648.049 63.1608,631.094 63.1608,631.094 C63.1608,631.094 63.0905,612.858 63.0905,612.858 C63.0905,612.858 63.2174,597.942 63.2174,597.942 C63.2174,597.942 63.1271,578.995 63.1271,578.995 C63.1271,578.995 63.1261,564.148 63.1261,564.148 C63.1261,564.148 63.1266,545.007 63.1266,545.007 C63.1266,545.007 63.1151,530.144 63.1151,530.144 C63.1151,530.144 63.1341,511.958 63.1341,511.958 C63.1341,511.958 63.1296,495.052 63.1296,495.052 C63.1296,495.052 63.1175,477.864 63.1175,477.864 C63.1175,477.864 63.1343,462.014 63.1343,462.014 C63.1343,462.014 63.1736,443.05 63.1736,443.05 C63.1736,443.05 63.1487,427.009 63.1487,427.009 C63.1487,427.009 63.1722,409.063 63.1722,409.063 C63.1722,409.063 63.1519,392.114 63.1519,392.114 C63.1519,392.114 63.1518,375.048 63.1518,375.048 C63.1518,375.048 63.1857,363.986 63.1857,363.986 C63.1857,363.986 68.8867,363.732 68.8867,363.732 Z " fill="#FF1E8C"/>
<path d="M357.007,363.847 C357.007,363.847 363.045,363.938 363.045,363.938 C363.045,363.938 376.17,363.768 376.17,363.768 C378.328,366.121 377.181,369.865 377.202,372.682 C377.202,372.682 377.348,392.076 377.348,392.076 C377.348,392.076 377.355,409.928 377.355,409.928 C377.355,409.928 377.314,428.298 377.314,428.298 C377.314,428.298 377.32,444.872 377.32,444.872 C377.32,444.872 377.48,461.002 377.48,461.002 C377.48,461.002 377.246,474.688 377.246,474.688 C377.246,474.688 377.35,489.89 377.35,489.89 C377.35,489.89 395.653,489.951 395.653,489.951 C395.653,489.951 395.491,409.859 395.491,409.859 C395.491,409.859 395.453,392.137 395.453,392.137 C395.453,392.137 395.446,375.082 395.446,375.082 C395.446,375.082 395.656,363.783 395.656,363.783 C395.656,363.783 433.876,363.987 433.876,363.987 C433.876,363.987 433.78,392.091 433.78,392.091 C433.78,392.091 433.826,409.913 433.826,409.913 C433.826,409.913 433.841,427.001 433.841,427.001 C433.841,427.001 433.832,443.912 433.832,443.912 C433.832,443.912 433.837,461.038 433.837,461.038 C433.837,461.038 433.808,477.946 433.808,477.946 C433.808,477.946 433.829,495.03 433.829,495.03 C433.829,495.03 433.826,511.941 433.826,511.941 C433.826,511.941 433.835,529.048 433.835,529.048 C433.835,529.048 433.837,545.959 433.837,545.959 C433.837,545.959 433.788,563.076 433.788,563.076 C433.788,563.076 433.808,579.991 433.808,579.991 C433.808,579.991 433.776,597.072 433.776,597.072 C433.776,597.072 433.781,614.017 433.781,614.017 C433.781,614.017 433.764,631.966 433.764,631.966 C433.764,631.966 433.82,648.927 433.82,648.927 C433.82,648.927 433.736,660.095 433.736,660.095 C433.736,660.095 427.899,660.284 427.899,660.284 C427.899,660.284 404.848,660.379 404.848,660.379 C404.848,660.379 395.635,660.081 395.635,660.081 C395.635,660.081 395.749,647.935 395.749,647.935 C395.749,647.935 395.729,615.047 395.729,615.047 C395.729,615.047 395.76,596.91 395.76,596.91 C395.76,596.91 395.368,562.897 395.368,562.897 C395.368,562.897 395.261,552.198 395.261,552.198 C396.909,550.227 395.58,547.281 395.552,545.096 C395.552,545.096 395.346,529.314 395.346,529.314 C395.346,529.314 389.735,529.232 389.735,529.232 C389.735,529.232 377.28,529.322 377.28,529.322 C377.28,529.322 377.304,548.329 377.304,548.329 C377.304,548.329 377.349,562.986 377.349,562.986 C377.349,562.986 377.244,576.728 377.244,576.728 C377.244,576.728 377.323,597.896 377.323,597.896 C377.323,597.896 377.301,614.915 377.301,614.915 C377.301,614.915 377.335,648.108 377.335,648.108 C377.335,648.108 377.201,659.947 377.201,659.947 C376.584,660.329 375.331,660.292 375.059,660.252 C375.059,660.252 338.904,660.21 338.904,660.21 C338.904,660.21 338.691,649.101 338.691,649.101 C338.684,648.772 338.787,648.414 338.863,648.147 C338.863,648.147 338.843,630.841 338.843,630.841 C338.752,630.564 338.718,630.22 338.72,629.878 C338.72,629.878 338.832,610.767 338.832,610.767 C338.832,610.767 338.879,606.046 338.879,606.046 C338.879,606.046 338.841,598.181 338.841,598.181 C338.841,598.181 338.83,593.679 338.83,593.679 C338.83,593.679 338.936,564.388 338.936,564.388 C338.936,564.388 338.673,562.087 338.673,562.087 C338.673,562.087 338.76,546.93 338.76,546.93 C338.76,546.93 338.783,509.679 338.783,509.679 C338.783,509.679 338.796,495.931 338.796,495.931 C338.796,495.931 338.802,475.678 338.802,475.678 C338.802,475.678 338.808,461.938 338.808,461.938 C338.808,461.938 338.808,443.894 338.808,443.894 C338.808,443.894 338.838,426.098 338.838,426.098 C338.838,426.098 338.789,408.078 338.789,408.078 C338.789,408.078 338.78,392.961 338.78,392.961 C338.78,392.961 338.747,374.078 338.747,374.078 C338.747,374.078 338.861,363.75 338.861,363.75 C338.861,363.75 357.007,363.847 357.007,363.847 Z " fill="#FF1E8C"/>
<path d="M647.07,363.741 C647.07,363.741 666.928,363.812 666.928,363.812 C666.928,363.812 678.928,363.91 678.928,363.91 C678.928,363.91 679.007,375.852 679.007,375.852 C679.007,375.852 679.101,392.078 679.101,392.078 C679.101,392.078 679.379,463.078 679.379,463.078 C679.379,463.078 679.162,474.775 679.162,474.775 C679.162,474.775 679.123,489.762 679.123,489.762 C679.123,489.762 682.021,489.757 682.021,489.757 C682.021,489.757 696.633,489.686 696.633,489.686 C696.633,489.686 696.752,477.068 696.752,477.068 C696.752,477.068 696.755,444.913 696.755,444.913 C696.755,444.913 696.77,426.884 696.77,426.884 C696.77,426.884 696.776,409.114 696.776,409.114 C696.776,409.114 696.794,388.672 696.794,388.672 C696.794,388.672 696.759,376.893 696.759,376.893 C696.759,376.893 696.991,364.134 696.991,364.134 C696.991,364.134 699.989,363.68 699.989,363.68 C699.989,363.68 713.679,363.769 713.679,363.769 C713.679,363.769 733.11,363.791 733.11,363.791 C733.333,363.568 734.936,363.686 735.008,364.105 C735.008,364.105 735.233,375.912 735.233,375.912 C735.233,375.912 735.29,392.927 735.29,392.927 C735.29,392.927 735.262,410.912 735.262,410.912 C735.262,410.912 735.266,429.321 735.266,429.321 C735.266,429.321 735.282,443.083 735.282,443.083 C735.282,443.083 735.239,456.717 735.239,456.717 C735.239,456.717 735.19,472.959 735.19,472.959 C735.19,472.959 735.286,497.337 735.286,497.337 C735.286,497.337 735.272,512.898 735.272,512.898 C735.272,512.898 735.292,529.079 735.292,529.079 C735.292,529.079 735.161,540.959 735.161,540.959 C735.161,540.959 735.315,563.062 735.315,563.062 C735.315,563.062 735.263,582.286 735.263,582.286 C735.263,582.286 735.305,597.918 735.305,597.918 C735.305,597.918 735.155,608.959 735.155,608.959 C735.155,608.959 735.305,631.904 735.305,631.904 C735.305,631.904 735.258,660.111 735.258,660.111 C735.258,660.111 696.99,660.079 696.99,660.079 C696.99,660.079 696.752,615.926 696.752,615.926 C696.749,615.403 696.777,614.682 696.454,614.214 C696.454,614.214 696.93,561.901 696.93,561.901 C696.93,561.901 696.907,558.945 696.907,558.945 C696.907,558.945 696.772,545.111 696.772,545.111 C696.772,545.111 696.796,529.342 696.796,529.342 C696.796,529.342 678.824,529.491 678.824,529.491 C678.824,529.491 678.95,597.055 678.95,597.055 C678.95,597.055 678.851,660.046 678.851,660.046 C678.851,660.046 665.966,660.212 665.966,660.212 C665.966,660.212 646.666,660.225 646.666,660.225 C646.666,660.225 640.703,659.994 640.703,659.994 C640.703,659.994 640.682,644.667 640.682,644.667 C640.682,644.667 640.776,623.94 640.776,623.94 C640.776,623.94 640.594,614.875 640.594,614.875 C640.594,614.875 640.581,545.986 640.581,545.986 C640.581,545.986 640.627,529.056 640.627,529.056 C640.627,529.056 640.481,511.849 640.481,511.849 C640.481,511.849 640.613,495.017 640.613,495.017 C640.613,495.017 640.666,477.913 640.666,477.913 C640.666,477.913 640.947,475.211 640.947,475.211 C640.947,475.211 640.697,466.884 640.697,466.884 C640.697,466.884 640.585,408.157 640.585,408.157 C640.585,408.157 640.623,393.855 640.623,393.855 C640.623,393.855 640.738,376.394 640.738,376.394 C640.738,376.394 640.818,363.915 640.818,363.915 C640.818,363.915 647.07,363.741 647.07,363.741 Z " fill="#FF1E8C"/>
<path d="M287.746,361.442 C294.333,362.221 301.154,363.473 306.904,367.018 C310.855,369.455 315.305,372.219 317.617,376.144 C317.617,376.144 322.813,384.968 322.813,384.968 C324.193,387.312 325.314,390.324 325.681,393.049 C325.681,393.049 327.703,408.069 327.703,408.069 C327.703,408.069 327.707,426.973 327.707,426.973 C327.707,426.973 327.734,443.923 327.734,443.923 C327.734,443.923 327.812,461.036 327.812,461.036 C327.812,461.036 327.716,469.933 327.716,469.933 C326.508,470.509 325.212,470.436 324.1,470.387 C324.1,470.387 306.154,470.364 306.154,470.364 C306.154,470.364 290.156,470.247 290.156,470.247 C289.178,457.389 289.692,445.579 290.06,432.973 C290.123,430.82 290.429,428.182 289.034,427.019 C289.034,427.019 289.208,426.036 289.208,426.036 C290.08,421.096 289.572,415.869 289.234,410.865 C289.067,408.394 289.389,405.744 287.97,402.991 C286.045,399.259 282.362,397.707 278.727,398.399 C274.599,399.184 271.659,402.227 271.564,406.702 C271.564,406.702 271.111,428.069 271.111,428.069 C271.111,428.069 271.053,444.113 271.053,444.113 C271.053,444.113 271.086,495.794 271.086,495.794 C271.086,495.794 271.082,513.997 271.082,513.997 C271.082,513.997 271.095,527.089 271.095,527.089 C271.095,527.089 271.097,544.9 271.097,544.9 C271.097,544.9 271.139,564.081 271.139,564.081 C271.139,564.081 271.056,578.006 271.056,578.006 C271.056,578.006 271.115,599.079 271.115,599.079 C271.115,599.079 271.022,611.096 271.022,611.096 C270.877,611.874 270.801,612.706 272.254,612.786 C271.861,613.89 271.219,615.105 271.279,616.147 C271.55,620.839 274.182,625.007 278.725,625.714 C283.761,626.499 288.234,623.102 289.043,618.15 C290.174,611.225 289.28,604.029 289.424,597.007 C289.424,597.007 290.06,565.969 290.06,565.969 C290.082,564.903 290.087,564.248 289.06,564.014 C289.06,564.014 289.243,562.97 289.243,562.97 C289.243,562.97 289.87,544.98 289.87,544.98 C289.87,544.98 290.01,542.58 290.01,542.58 C290.036,542.149 289.58,541.548 288.798,541.884 C288.798,541.884 279.908,541.76 279.908,541.76 C279.908,541.76 279.759,531.27 279.759,531.27 C279.759,531.27 279.668,512.901 279.668,512.901 C279.668,512.901 279.833,504.224 279.833,504.224 C279.833,504.224 290.06,504.105 290.06,504.105 C290.06,504.105 306.938,504.13 306.938,504.13 C306.938,504.13 324.919,504.015 324.919,504.015 C324.919,504.015 327.74,504.379 327.74,504.379 C327.74,504.379 327.837,511.987 327.837,511.987 C327.837,511.987 327.762,546.041 327.762,546.041 C327.762,546.041 327.755,562.978 327.755,562.978 C327.755,562.978 327.733,580.075 327.733,580.075 C327.733,580.075 327.751,596.967 327.751,596.967 C327.751,596.967 327.759,614.081 327.759,614.081 C327.759,614.081 327.746,631.028 327.746,631.028 C327.746,631.028 327.787,648.971 327.787,648.971 C327.787,648.971 327.763,660.129 327.763,660.129 C327.763,660.129 306.194,660.113 306.194,660.113 C306.194,660.113 301.706,646.822 301.706,646.822 C298.702,651.929 295.146,657.319 289.794,659.641 C279.518,664.098 267.678,664.096 257.122,660.491 C245.635,656.567 237.276,644.004 234.256,631.859 C233.004,626.828 232.727,621.473 232.717,616.316 C232.717,616.316 232.679,597.092 232.679,597.092 C232.679,597.092 232.651,579.12 232.651,579.12 C232.651,579.12 232.707,560.691 232.707,560.691 C232.707,560.691 232.705,548.294 232.705,548.294 C232.705,548.294 232.645,529.057 232.645,529.057 C232.645,529.057 232.664,509.671 232.664,509.671 C232.664,509.671 232.655,495.882 232.655,495.882 C232.655,495.882 232.66,478.908 232.66,478.908 C232.66,478.908 232.671,463.334 232.671,463.334 C232.671,463.334 232.656,442.128 232.656,442.128 C232.656,442.128 232.667,424.693 232.667,424.693 C232.667,424.693 232.654,409.103 232.654,409.103 C232.649,403.755 233.19,398.214 234.527,393.104 C237.746,380.79 245.264,370.416 257.07,365.216 C262.001,363.044 267.693,361.916 273.089,361.4 C277.912,360.939 282.972,360.877 287.746,361.442 Z " fill="#FF1E8C"/>
<path d="M621.743,378.147 C625.007,382.909 626.946,388.53 628.442,394.053 C629.681,398.633 629.943,403.755 629.939,409.009 C629.939,409.009 629.911,443.027 629.911,443.027 C629.911,443.027 629.886,460.997 629.886,460.997 C629.886,460.997 629.643,468.028 629.643,468.028 C629.643,468.028 616.193,468.097 616.193,468.097 C616.193,468.097 597.112,468.12 597.112,468.12 C597.112,468.12 591.445,467.938 591.445,467.938 C591.445,467.938 591.307,460.938 591.307,460.938 C591.307,460.938 591.568,442.618 591.568,442.618 C591.568,442.618 591.528,430.45 591.528,430.45 C591.528,430.45 591.403,409.876 591.403,409.876 C591.323,406.56 591.057,402.664 588.025,399.929 C585.326,397.494 581.485,398.08 579.023,399.611 C575.661,401.702 574.962,405.337 574.94,409.038 C574.94,409.038 574.832,426.965 574.832,426.965 C574.832,426.965 574.869,443.935 574.869,443.935 C574.881,449.717 574.995,455.597 576.834,461.061 C576.834,461.061 579.237,468.198 579.237,468.198 C580.532,472.048 582.464,475.173 584.599,478.355 C588.233,483.771 592.024,489.463 596.784,494.142 C596.784,494.142 597.642,495.379 597.642,495.379 C597.642,495.379 610.649,513.021 610.649,513.021 C610.649,513.021 615.192,519.256 615.192,519.256 C615.192,519.256 621.555,530.087 621.555,530.087 C624.211,534.609 625.787,539.727 627.057,544.815 C628.802,551.808 630.062,559.132 630.037,566.418 C630.037,566.418 629.854,620.96 629.854,620.96 C629.854,620.96 628.511,630.934 628.511,630.934 C626.587,637.642 623.879,644.129 618.944,649.102 C618.944,649.102 613.964,654.12 613.964,654.12 C609.753,658.364 603.552,660.046 597.948,661.867 C591.622,662.648 585.383,663.238 579.029,662.845 C573.728,662.518 568.114,661.799 563.102,659.911 C550.669,655.227 541.394,644.649 538.233,631.837 C536.877,626.341 536.306,620.612 536.288,614.954 C536.288,614.954 536.224,595.862 536.224,595.862 C536.224,595.862 536.194,581.133 536.194,581.133 C536.194,581.133 536.148,561.975 536.148,561.975 C536.148,561.975 536.392,553.409 536.392,553.409 C536.392,553.409 545.929,553.265 545.929,553.265 C545.929,553.265 564.167,553.188 564.167,553.188 C566.779,553.177 570.506,553.906 572.967,552.977 C573.409,552.997 574.238,552.919 574.931,553.297 C574.931,553.297 574.875,563.034 574.875,563.034 C574.875,563.034 574.827,579.966 574.827,579.966 C574.827,579.966 574.834,597.054 574.834,597.054 C574.834,597.054 575.076,615.856 575.076,615.856 C575.134,620.336 577.251,624.938 581.995,625.586 C588.204,626.435 591.438,620.717 591.485,615.046 C591.485,615.046 591.634,597.023 591.634,597.023 C591.634,597.023 591.664,580.067 591.664,580.067 C591.664,580.067 590.13,562.981 590.13,562.981 C589.502,555.98 586.141,549.508 582.362,543.622 C582.362,543.622 578.063,536.926 578.063,536.926 C578.063,536.926 558.424,511.514 558.424,511.514 C558.424,511.514 549.092,498.149 549.092,498.149 C549.092,498.149 546.223,493.047 546.223,493.047 C546.223,493.047 540.028,478.926 540.028,478.926 C537.487,473.134 536.498,466.332 536.424,459.962 C536.424,459.962 536.253,445.131 536.253,445.131 C536.253,445.131 536.242,426.042 536.242,426.042 C536.242,426.042 536.303,409.964 536.303,409.964 C536.325,404.271 536.639,398.426 537.96,392.913 C539.558,386.239 542.556,379.984 547.081,375.029 C547.005,374.58 546.866,374.199 546.562,374.068 C551.858,370.241 556.882,366.025 563.015,364.129 C583.391,357.83 609.371,360.103 621.743,378.147 Z " fill="#FF1E8C"/>
<path d="M804.268,363.923 C804.268,363.923 836.89,363.798 836.89,363.798 C836.89,363.798 856.315,363.806 856.315,363.806 C856.315,363.806 868.456,363.9 868.456,363.9 C868.456,363.9 868.361,402.647 868.361,402.647 C868.361,402.647 853.085,402.874 853.085,402.874 C853.085,402.874 835.99,402.899 835.99,402.899 C835.99,402.899 835.924,409.971 835.924,409.971 C835.924,409.971 835.864,426.055 835.864,426.055 C835.864,426.055 835.838,444.021 835.838,444.021 C835.838,444.021 835.85,460.916 835.85,460.916 C835.85,460.916 835.869,478.063 835.869,478.063 C835.869,478.063 835.996,489.843 835.996,489.843 C835.996,489.843 853.876,489.902 853.876,489.902 C853.876,489.902 865.635,489.946 865.635,489.946 C865.635,489.946 865.83,494.987 865.83,494.987 C865.83,494.987 865.78,511.967 865.78,511.967 C865.78,511.967 865.87,529.087 865.87,529.087 C865.87,529.087 853.165,529.546 853.165,529.546 C853.165,529.546 835.874,529.753 835.874,529.753 C835.874,529.753 835.85,546.074 835.85,546.074 C835.85,546.074 835.829,562.967 835.829,562.967 C835.829,562.967 835.804,580.077 835.804,580.077 C835.804,580.077 835.833,597.005 835.833,597.005 C835.833,597.005 835.764,614.098 835.764,614.098 C835.764,614.098 835.783,631.886 835.783,631.886 C835.783,631.886 835.811,651.242 835.811,651.242 C835.811,651.242 835.654,660.015 835.654,660.015 C834.279,659.952 832.952,659.905 831.648,660.417 C831.648,660.417 816.719,660.205 816.719,660.205 C816.719,660.205 802.946,660.016 802.946,660.016 C802.946,660.016 796.888,659.969 796.888,659.969 C796.888,659.969 796.997,649.013 796.997,649.013 C796.997,649.013 796.978,614.118 796.978,614.118 C796.978,614.118 796.912,597.871 796.912,597.871 C796.912,597.871 796.85,580.078 796.85,580.078 C796.85,580.078 796.853,563.874 796.853,563.874 C796.853,563.874 796.862,546.078 796.862,546.078 C796.862,546.078 796.968,528.97 796.968,528.97 C796.968,528.97 796.886,509.796 796.886,509.796 C796.886,509.796 796.854,494.042 796.854,494.042 C796.854,494.042 796.93,478.017 796.93,478.017 C796.93,478.017 796.989,460.89 796.989,460.89 C796.989,460.89 796.951,443.146 796.951,443.146 C796.951,443.146 796.994,426.878 796.994,426.878 C796.994,426.878 796.96,409.111 796.96,409.111 C796.96,409.111 796.94,392.894 796.94,392.894 C796.94,392.894 796.94,375.095 796.94,375.095 C796.94,375.095 796.992,363.981 796.992,363.981 C796.992,363.981 804.268,363.923 804.268,363.923 Z " fill="#FF1E8C"/>
<path d="M446.312,363.771 C446.312,363.771 461.885,363.818 461.885,363.818 C461.885,363.818 480.335,363.776 480.335,363.776 C480.335,363.776 494.067,363.791 494.067,363.791 C494.067,363.791 512.02,363.779 512.02,363.779 C512.02,363.779 528.942,363.741 528.942,363.741 C528.942,363.741 529.228,369.121 529.228,369.121 C529.228,369.121 529.414,376.836 529.414,376.836 C529.414,376.836 529.681,392.118 529.681,392.118 C529.681,392.118 529.702,399.897 529.702,399.897 C528.816,400.246 528.876,401.827 528.889,402.823 C528.889,402.823 512.1,402.988 512.1,402.988 C512.1,402.988 505.31,403.013 505.31,403.013 C505.31,403.013 505.126,425.02 505.126,425.02 C505.126,425.02 505.138,446.029 505.138,446.029 C505.138,446.029 505.189,480.018 505.189,480.018 C505.189,480.018 505.203,514.022 505.203,514.022 C505.203,514.022 505.204,548.021 505.204,548.021 C505.204,548.021 505.269,581.903 505.269,581.903 C505.278,586.488 505.879,591.518 504.782,595.93 C504.535,596.167 505.214,597.091 505.2,597.986 C505.2,597.986 505.149,629.983 505.149,629.983 C505.149,629.983 505.001,660.099 505.001,660.099 C505.001,660.099 495.042,660.232 495.042,660.232 C495.042,660.232 477.978,660.213 477.978,660.213 C477.978,660.213 466.029,659.83 466.029,659.83 C466.876,656.967 466.328,651.426 466.371,648.136 C466.371,648.136 466.809,615.047 466.809,615.047 C466.809,615.047 466.797,596.952 466.797,596.952 C466.797,596.952 466.428,563.891 466.428,563.891 C466.428,563.891 466.432,546.039 466.432,546.039 C466.432,546.039 466.451,528.975 466.451,528.975 C466.451,528.975 466.427,511.942 466.427,511.942 C466.427,511.942 466.429,495.058 466.429,495.058 C466.429,495.058 466.446,478.018 466.446,478.018 C466.446,478.018 466.478,461.008 466.478,461.008 C466.478,461.008 466.437,444.009 466.437,444.009 C466.437,444.009 466.494,426.992 466.494,426.992 C466.494,426.992 466.351,409.06 466.351,409.06 C466.351,409.06 466.577,403.023 466.577,403.023 C464.705,402.493 462.839,402.98 461.049,402.985 C461.049,402.985 443.908,402.99 443.908,402.99 C443.376,403.35 441.872,403.066 441.872,402.124 C441.872,402.124 441.872,388.772 441.872,388.772 C441.872,388.772 441.872,363.937 441.872,363.937 C443.788,363.419 445.024,363.767 446.312,363.771 Z " fill="#FF1E8C"/>
<path d="M768.917,363.772 C768.917,363.772 784.364,363.585 784.364,363.585 C785.537,365.909 785.169,369.208 785.168,371.749 C785.168,371.749 785.159,392.062 785.159,392.062 C785.159,392.062 785.188,409.946 785.188,409.946 C785.188,409.946 785.166,427.889 785.166,427.889 C785.166,427.889 785.229,443.111 785.229,443.111 C785.229,443.111 785.273,494.954 785.273,494.954 C785.273,494.954 785.24,512.072 785.24,512.072 C785.24,512.072 785.098,523.941 785.098,523.941 C785.098,523.941 785.123,530.313 785.123,530.313 C785.123,530.313 785.114,540.87 785.114,540.87 C785.114,540.87 785.174,542.767 785.174,542.767 C785.174,542.767 785.269,563.887 785.269,563.887 C785.269,563.887 785.079,568.962 785.079,568.962 C785.079,568.962 785.23,597.885 785.23,597.885 C785.23,597.885 785.193,616.315 785.193,616.315 C785.193,616.315 785.218,631.956 785.218,631.956 C785.218,631.956 785.151,649.926 785.151,649.926 C785.139,653.114 785.613,657.425 784.342,660.389 C784.342,660.389 768.927,660.244 768.927,660.244 C768.927,660.244 748.656,660.251 748.656,660.251 C748.614,660.449 746.893,660.354 746.89,659.859 C746.89,659.859 746.742,631.925 746.742,631.925 C746.742,631.925 746.691,614.05 746.691,614.05 C746.691,614.05 746.715,596.09 746.715,596.09 C746.715,596.09 746.715,580.901 746.715,580.901 C746.715,580.901 746.696,563.903 746.696,563.903 C746.696,563.903 746.674,545.111 746.674,545.111 C746.674,545.111 746.671,528.092 746.671,528.092 C746.671,528.092 746.734,515.299 746.734,515.299 C746.734,515.299 746.705,494.097 746.705,494.097 C746.705,494.097 746.531,477.974 746.531,477.974 C746.531,477.974 746.682,460.102 746.682,460.102 C746.682,460.102 746.639,443.107 746.639,443.107 C746.639,443.107 746.635,427.875 746.635,427.875 C746.635,427.875 746.636,409.903 746.636,409.903 C746.636,409.903 746.634,392.095 746.634,392.095 C746.634,392.095 746.858,374.051 746.858,374.051 C746.898,370.838 745.574,366.724 747.555,363.581 C747.555,363.581 768.917,363.772 768.917,363.772 Z " fill="#FF1E8C"/>
<path d="M187.957,363.731 C187.957,363.731 204.879,363.789 204.879,363.789 C204.879,363.789 221.302,363.971 221.302,363.971 C221.302,363.971 221.299,568.806 221.299,568.806 C221.299,568.806 221.328,603.082 221.328,603.082 C221.328,603.082 221.228,642.922 221.228,642.922 C221.228,642.922 221.318,660.067 221.318,660.067 C221.318,660.067 211.039,660.1 211.039,660.1 C211.039,660.1 184.755,660.183 184.755,660.183 C184.244,660.378 183.773,660.352 183.422,660.118 C182.834,659.727 182.751,658.934 182.751,658.023 C182.751,658.023 182.768,633.249 182.768,633.249 C182.768,633.249 182.757,614.936 182.757,614.936 C182.757,614.936 182.807,600.255 182.807,600.255 C182.807,600.255 182.763,583.329 182.763,583.329 C182.763,583.329 182.751,559.675 182.751,559.675 C182.751,559.675 182.741,548.331 182.741,548.331 C182.741,548.331 182.772,524.679 182.772,524.679 C182.772,524.679 182.746,515.334 182.746,515.334 C182.746,515.334 182.698,492.662 182.698,492.662 C182.698,492.662 182.704,477.099 182.704,477.099 C182.704,477.099 182.728,460.907 182.728,460.907 C182.728,460.907 182.709,443.099 182.709,443.099 C182.709,443.099 182.748,429.267 182.748,429.267 C182.748,429.267 182.731,409.105 182.731,409.105 C182.731,409.105 182.748,391.076 182.748,391.076 C182.748,391.076 182.75,375.118 182.75,375.118 C182.75,375.118 182.763,363.892 182.763,363.892 C182.763,363.892 187.957,363.731 187.957,363.731 Z " fill="#FF1E8C"/>
<path d="M888.923,363.806 C888.923,363.806 903.068,363.802 903.068,363.802 C903.068,363.802 921.124,363.811 921.124,363.811 C921.124,363.811 937.063,363.867 937.063,363.867 C937.063,363.867 956.913,363.811 956.913,363.811 C956.913,363.811 961.743,364.009 961.743,364.009 C961.743,364.009 961.808,375.898 961.808,375.898 C961.808,375.898 961.765,392.11 961.765,392.11 C961.765,392.11 961.678,402.856 961.678,402.856 C961.678,402.856 956.029,402.94 956.029,402.94 C956.029,402.94 937.286,403.017 937.286,403.017 C937.286,403.017 937.257,636.767 937.257,636.767 C937.257,636.767 937.983,660.013 937.983,660.013 C937.983,660.013 904.132,660.224 904.132,660.224 C904.132,660.224 898.801,660.096 898.801,660.096 C898.801,660.096 898.798,652.258 898.798,652.258 C898.798,652.258 898.756,631.953 898.756,631.953 C898.756,631.953 898.739,611.662 898.739,611.662 C898.739,611.662 898.742,597.93 898.742,597.93 C898.742,597.93 898.736,579.098 898.736,579.098 C898.736,579.098 898.733,563.92 898.733,563.92 C898.733,563.92 898.72,545.096 898.72,545.096 C898.72,545.096 898.739,529.921 898.739,529.921 C898.739,529.921 898.738,511.086 898.738,511.086 C898.738,511.086 898.753,495.902 898.753,495.902 C898.753,495.902 898.607,477.959 898.607,477.959 C898.607,477.959 898.787,457.74 898.787,457.74 C898.787,457.74 898.728,443.086 898.728,443.086 C898.728,443.086 898.723,429.333 898.723,429.333 C898.723,429.333 898.698,406.672 898.698,406.672 C898.698,406.672 898.673,402.976 898.673,402.976 C898.673,402.976 887.933,402.857 887.933,402.857 C887.933,402.857 873.631,402.544 873.631,402.544 C873.631,402.544 873.877,370.766 873.877,370.766 C873.877,370.766 873.959,363.851 873.959,363.851 C873.959,363.851 888.923,363.806 888.923,363.806 Z " fill="#FF1E8C"/>
</svg>