<svg xmlns="http://www.w3.org/2000/svg" width="1024" height="1024" viewBox="0 0 1024 1024">
<defs></defs>
<rect width="1024" height="1024" fill="#14322A"/>
<path d="M545.338,549.197 C545.338,549.197 540.387,538.623 540.387,538.623 C540.387,538.623 524.504,497.669 524.504,497.669 C524.504,497.669 517.568,476.684 517.568,476.684 C516.912,479.448 516.455,481.69 516.342,483.799 C516.342,483.799 515.594,497.697 515.594,497.697 C515.594,497.697 512.78,521.991 512.78,521.991 C512.78,521.991 511.514,539.496 511.514,539.496 C511.514,539.496 510.423,549.363 510.423,549.363 C510.423,549.363 509.522,562.487 509.522,562.487 C509.228,566.758 508.94,571.372 508.268,575.973 C508.268,575.973 506.084,590.939 506.084,590.939 C505.678,593.722 505.649,595.662 504.066,597.534 C501.291,600.816 489.295,603.565 486.507,596.314 C485.35,593.305 486.256,587.829 486.521,584.413 C486.521,584.413 487.459,572.314 487.459,572.314 C487.459,572.314 488.539,559.679 488.539,559.679 C488.539,559.679 489.346,548.26 489.346,548.26 C489.346,548.26 492.657,518.741 492.657,518.741 C492.657,518.741 493.451,507.383 493.451,507.383 C493.451,507.383 494.564,497.653 494.564,497.653 C494.564,497.653 495.321,488.269 495.321,488.269 C495.321,488.269 502.616,440.717 502.616,440.717 C502.616,440.717 503.391,429.643 503.391,429.643 C506.247,423.623 512.812,424.757 517.929,425.78 C527.649,427.723 532.963,434.969 536.421,443.681 C536.421,443.681 540.653,454.346 540.653,454.346 C540.653,454.346 548.693,477.283 548.693,477.283 C548.693,477.283 562.268,513.25 562.268,513.25 C562.268,513.25 572.16,487.058 572.16,487.058 C572.16,487.058 577.304,476.259 577.304,476.259 C583.685,459.722 590.861,443.967 598.984,427.973 C599.456,427.045 598.77,424.686 599.349,424.031 C600.959,422.209 605.456,422.765 608.451,420.592 C615.444,423.292 617.862,420.706 618.948,421.468 C618.948,421.468 621.087,422.969 621.087,422.969 C626.978,431.767 628.741,442.153 629.503,452.671 C629.503,452.671 631.571,481.229 631.571,481.229 C631.571,481.229 632.166,498.008 632.166,498.008 C632.287,501.432 632.177,505.105 632.467,508.82 C632.467,508.82 633.527,522.425 633.527,522.425 C634.053,529.161 635.077,536.527 635.604,543.349 C635.604,543.349 636.533,555.362 636.533,555.362 C636.533,555.362 637.376,569.689 637.376,569.689 C637.376,569.689 638.705,585.539 638.705,585.539 C639.028,589.387 637.138,593.525 635.818,597.057 C634.921,596.032 633.695,595.766 633.529,596.043 C633.529,596.043 632.492,597.781 632.492,597.781 C630.876,596.602 631.056,598.12 630.844,598.552 C630.513,599.227 628.683,598.747 627.494,597.731 C627.707,600.32 626.955,602.059 624.781,604.621 C623.967,601.98 622.993,601.717 621.731,600.771 C620.016,599.486 619.059,600.847 617.667,600.682 C610.953,599.887 609.312,588.653 608.517,580.538 C608.517,580.538 607.448,569.624 607.448,569.624 C607.448,569.624 606.653,555.275 606.653,555.275 C606.653,555.275 603.372,526.67 603.372,526.67 C603.372,526.67 602.553,510.238 602.553,510.238 C602.553,510.238 601.431,486.794 601.431,486.794 C601.431,486.794 600.648,472.823 600.648,472.823 C600.648,472.823 597.242,478.935 597.242,478.935 C597.242,478.935 589.921,497.936 589.921,497.936 C589.921,497.936 588.543,504.537 588.543,504.537 C588.543,504.537 577.319,535.299 577.319,535.299 C577.319,535.299 572.788,550.654 572.788,550.654 C571.925,553.579 569.137,555.417 565.893,554.789 C562.877,557.512 558.596,557.83 555.198,555.665 C549.779,557.592 547.293,553.372 545.338,549.197 Z " fill="#F4F1EA"/>
<path d="M727.976,534.939 C727.976,534.939 718.19,535.761 718.19,535.761 C718.19,535.761 686.176,539.405 686.176,539.405 C686.176,539.405 671.808,590.771 671.808,590.771 C670.385,595.859 667.465,599.68 661.046,600.485 C658.154,600.848 655.169,594.617 656.407,591.541 C656.407,591.541 656.976,584.958 656.976,584.958 C656.976,584.958 666.657,538.62 666.657,538.62 C661.857,537.631 655.906,533.597 655.281,529.55 C658.224,524.669 665.287,524.088 670.554,523.741 C670.554,523.741 682.957,482.009 682.957,482.009 C682.957,482.009 692.559,449.395 692.559,449.395 C694.19,443.856 696.698,438.414 699.502,433.464 C701.755,429.486 704.265,426.094 702.729,420.76 C705.247,417.15 710.334,416.595 713.874,419.054 C723.334,420.61 729.486,426.562 733.463,434.638 C736.4,440.601 738.971,446.191 740.481,452.677 C740.481,452.677 748.017,485.048 748.017,485.048 C748.017,485.048 760.362,546.415 760.362,546.415 C760.362,546.415 762.795,555.942 762.795,555.942 C762.795,555.942 770.486,587.176 770.486,587.176 C771.139,589.829 771.386,592.304 770.295,594.641 C768.287,598.94 762.962,596.213 761.746,602.993 C759.363,603.38 756.364,600.809 754.687,601.438 C752.069,602.452 750.288,600.598 748.615,599.265 C747.839,598.959 745.646,599.556 744.998,598.559 C744.998,598.559 743.142,595.703 743.142,595.703 C741.542,593.242 741.204,589.882 740.488,587.107 C740.488,587.107 728.532,540.719 728.532,540.719 C728.05,538.852 727.843,537.223 727.976,534.939 Z M703.937,518.611 C703.937,518.611 724.063,517.961 724.063,517.961 C724.063,517.961 713.986,466.061 713.986,466.061 C713.986,466.061 710.716,451.668 710.716,451.668 C710.716,451.668 707.892,463.036 707.892,463.036 C707.892,463.036 698.959,493.941 698.959,493.941 C698.959,493.941 691.199,520.265 691.199,520.265 C696.161,518.917 699.82,518.745 703.937,518.611 Z " fill="#F4F1EA"/>
<path d="M365.915,427.56 C368.114,425.302 381.616,424.969 387.719,430.877 C392.002,435.023 392.874,443.598 392.648,449.557 C392.648,449.557 391.374,483.259 391.374,483.259 C391.374,483.259 390.787,496.085 390.787,496.085 C390.547,501.341 390.376,509.521 390.189,508.956 C391.242,512.146 390.604,516.032 390.794,518.926 C390.794,518.926 391.432,528.637 391.432,528.637 C391.432,528.637 393.156,543.061 393.156,543.061 C394.789,556.724 398.492,569.376 407.009,580.12 C410.312,584.287 417.766,585.947 422.519,584.565 C429.499,582.535 436.57,570.978 438.428,562.31 C438.428,562.31 441.286,548.976 441.286,548.976 C442.9,541.445 443.738,532.647 444.5,524.494 C444.5,524.494 445.521,513.569 445.521,513.569 C445.521,513.569 446.542,492.467 446.542,492.467 C447.114,480.646 445.981,472.224 446.14,462.915 C446.14,462.915 446.572,437.512 446.572,437.512 C446.639,433.601 449.599,429.938 449.216,425.962 C450.362,427.164 451.683,428.22 452.356,427.943 C453.001,427.678 453.624,426.297 453.961,424.443 C454.992,424.426 457.473,424.531 458.289,426.56 C465.231,423.589 466.115,438.629 466.187,450.463 C466.22,456.014 468.276,461.654 466.282,467.448 C466.282,467.448 466.469,476.394 466.469,476.394 C466.516,478.66 466.855,479.405 466.84,480.89 C466.84,480.89 466.526,511.557 466.526,511.557 C466.526,511.557 465.486,522.395 465.486,522.395 C465.136,526.035 464.01,529.4 463.55,532.926 C463.55,532.926 462.445,541.397 462.445,541.397 C462.445,541.397 461.586,550.862 461.586,550.862 C458.876,567.045 453.295,584.069 440.16,594.518 C425.265,606.367 397.488,606.38 383.682,592.869 C370.787,580.251 364.371,562.536 361.413,544.765 C361.413,544.765 360.585,535.251 360.585,535.251 C360.585,535.251 359.476,523.542 359.476,523.542 C357.967,507.591 358.863,491.527 359.333,475.42 C359.333,475.42 360.631,461.757 360.631,461.757 C360.631,461.757 361.383,452.325 361.383,452.325 C361.383,452.325 363.964,432.989 363.964,432.989 C364.238,430.929 364.35,429.167 365.915,427.56 Z " fill="#F4F1EA"/>
<path d="M354.453,595.381 C353.791,595.658 352.223,595.996 352.068,596.549 C351.875,597.231 352.27,598.067 353.076,598.83 C353.076,598.83 340.457,601.48 340.457,601.48 C340.457,601.48 317.343,602.266 317.343,602.266 C317.343,602.266 291.728,604.574 291.728,604.574 C291.728,604.574 284.575,605.572 284.575,605.572 C284.575,605.572 275.1,606.32 275.1,606.32 C268.955,606.805 261.168,603.889 257.11,599.315 C255.549,597.556 255.645,595.759 254.855,593.838 C254.855,593.838 253.896,591.502 253.896,591.502 C253.055,589.457 261.752,588.978 257.363,585.806 C255.288,576.044 254.58,566.2 254.525,556.286 C254.525,556.286 254.232,502.999 254.232,502.999 C254.232,502.999 254.686,496.62 254.686,496.62 C255.048,491.541 255.835,486.009 254.514,481.521 C253.394,477.713 254.664,474.696 254.773,471.044 C254.773,471.044 255.36,451.326 255.36,451.326 C255.36,451.326 256.395,430.459 256.395,430.459 C256.497,428.399 257.403,426.383 256.963,423.954 C255.517,415.978 276.096,417.508 281.656,428.005 C283.816,432.082 284.34,437.135 284.486,441.449 C284.486,441.449 285.473,470.593 285.473,470.593 C285.473,470.593 285.922,488.135 285.922,488.135 C285.922,488.135 284.901,490.491 284.901,490.491 C284.901,490.491 285.688,492.95 285.688,492.95 C285.688,492.95 284.592,523.462 284.592,523.462 C284.51,525.766 285.818,530.198 284.371,532.246 C285.048,531.287 282.865,543.733 284.483,549.44 C285.177,551.889 284.435,553.264 284.425,555.461 C284.425,555.461 284.297,582.82 284.297,582.82 C286.194,583.401 287.611,582.508 289.443,582.395 C289.443,582.395 302.64,581.587 302.64,581.587 C306.767,581.335 310.667,581.217 314.688,581.315 C314.688,581.315 349.589,582.167 349.589,582.167 C349.589,582.167 352.479,583.19 352.479,583.19 C353.308,583.483 353.043,586.013 353.178,586.608 C354.989,587.399 356.632,588.537 357.125,590.442 C357.628,592.388 358.146,593.836 354.453,595.381 Z " fill="#F4F1EA"/>
<path d="M543.187,391.812 C540.233,371.235 524.099,355.255 504.513,357.346 C497.671,358.076 492.267,360.958 486.873,365.108 C472.481,376.181 471.905,393.771 471.206,394.527 C470.499,395.293 468.018,396.956 467.044,395.725 C463.735,384.017 468.757,371.938 477.092,362.913 C488.076,351.021 507.482,345.136 522.548,348.501 C532.967,350.828 542.623,355.301 548.913,363.917 C555.073,372.356 559.775,381.217 557.651,392.319 C557.134,395.018 550.835,397.201 548.487,395.547 C548.487,395.547 543.187,391.812 543.187,391.812 Z " fill="#F4F1EA"/>
<path d="M600.555,390.557 C592.567,395.3 584.269,394.582 575.952,394.154 C573.558,394.031 570.171,393.464 569.426,390.408 C570.625,387.211 576.255,386.922 579.921,386.973 C587.057,387.074 593.845,386.624 600.555,390.557 Z " fill="#F4F1EA"/>
<path d="M581.994,361.02 C581.994,361.02 571.066,366.083 571.066,366.083 C571.066,366.083 569.424,366.927 569.424,366.927 C568.705,367.297 567.793,366.47 567.504,366.165 C566.284,367.413 565.086,366.915 564.427,366.094 C561.155,362.015 578.036,353.021 589.005,351.667 C589.218,356.592 585.815,359.25 581.994,361.02 Z " fill="#F4F1EA"/>
<path d="M435.699,396.307 C432.029,395.377 426.88,396.393 423.821,392.434 C433.241,388.612 452.073,387.883 453.588,392.388 C454.884,396.24 442.973,398.151 435.699,396.307 Z " fill="#F4F1EA"/>
<path d="M545.205,345.116 C541.059,337.936 550.69,327.712 558.922,321.103 C561.511,324.673 559.319,327.197 558.048,329.948 C555.129,336.264 551.186,341.753 545.205,345.116 Z " fill="#F4F1EA"/>
<path d="M481.948,342.429 C480.26,346.92 471.349,340.401 467.05,324.902 C467.05,324.902 465.906,322.512 465.906,322.512 C465.413,321.483 466.425,320.924 467.479,320.921 C471.568,320.908 483.377,338.624 481.948,342.429 Z " fill="#F4F1EA"/>
<path d="M514.44,316.653 C515.88,324.066 515.017,334.107 512.454,334.937 C509.033,336.046 506.957,329.754 507.619,324.598 C508.316,319.178 507.558,313.596 510.781,308.482 C514.019,310.571 513.877,313.757 514.44,316.653 Z " fill="#F4F1EA"/>
<path d="M458.191,361.652 C458.292,363.002 459.063,363.737 458.931,364.409 C458.122,368.543 441.329,361.324 435.444,350.916 C444.76,351.593 452.065,356.045 458.191,361.652 Z " fill="#F4F1EA"/>
</svg>
