<svg xmlns="http://www.w3.org/2000/svg" width="1024" height="1024">
<defs>
</defs>
<path d="M405.99,724.857 C405.99,724.857 405.979,967.461 405.979,967.461 C405.979,967.461 383.549,967.51 383.549,967.51 C383.549,967.51 378.924,929.841 378.924,929.841 C378.924,929.841 365.205,812.879 365.205,812.879 C365.205,812.879 366.38,967.274 366.38,967.274 C366.38,967.274 345.588,967.244 345.588,967.244 C345.588,967.244 345.611,724.772 345.611,724.772 C345.611,724.772 369.828,724.782 369.828,724.782 C369.828,724.782 384.523,860.214 384.523,860.214 C384.523,860.214 384.961,869.501 384.961,869.501 C385.149,869.901 385.511,870.045 385.791,870.04 C385.791,870.04 386.137,856.846 386.137,856.846 C386.137,856.846 385.243,724.839 385.243,724.839 C385.243,724.839 405.99,724.857 405.99,724.857 Z " fill="rgb(255,255,255)"/>
<path d="M544.052,967.508 C544.052,967.508 520.932,967.43 520.932,967.43 C520.932,967.43 520.949,855.338 520.949,855.338 C520.949,855.338 511.93,855.371 511.93,855.371 C511.93,855.371 511.957,967.547 511.957,967.547 C511.957,967.547 488.847,967.576 488.847,967.576 C488.847,967.576 488.837,724.787 488.837,724.787 C488.837,724.787 511.881,724.92 511.881,724.92 C511.881,724.92 511.936,833.676 511.936,833.676 C511.936,833.676 521.002,833.672 521.002,833.672 C521.002,833.672 520.984,724.874 520.984,724.874 C520.984,724.874 544.019,724.832 544.019,724.832 C544.019,724.832 544.052,967.508 544.052,967.508 Z " fill="rgb(255,255,254)"/>
<path d="M109.293,967.137 C109.293,967.137 86.1864,967.577 86.1864,967.577 C86.1864,967.577 86.1611,855.604 86.1611,855.604 C83.3081,854.983 80.4915,855.274 76.9663,855.377 C76.9663,855.377 77.012,967.593 77.012,967.593 C77.012,967.593 53.8195,967.409 53.8195,967.409 C53.8195,967.409 53.8132,724.777 53.8132,724.777 C53.8132,724.777 76.8897,724.828 76.8897,724.828 C76.8897,724.828 76.8988,833.706 76.8988,833.706 C76.8988,833.706 86.1372,833.718 86.1372,833.718 C86.1372,833.718 86.1787,724.776 86.1787,724.776 C86.1787,724.776 109.249,724.797 109.249,724.797 C109.249,724.797 109.293,967.137 109.293,967.137 Z " fill="rgb(254,254,254)"/>
<path d="M286.081,940.333 C286.076,948.414 282.977,954.48 278.977,959.923 C273.86,964.954 267.38,967.388 260.305,967.423 C260.305,967.423 231.01,967.571 231.01,967.571 C231.01,967.571 230.883,724.69 230.883,724.69 C230.883,724.69 260.966,724.801 260.966,724.801 C268.044,724.827 274.455,727.855 279.319,732.688 C283.561,738.708 286.188,745.265 286.184,753.187 C286.184,753.187 286.081,940.333 286.081,940.333 Z M263.126,939.163 C263.126,939.163 263.115,753.222 263.115,753.222 C263.114,750.432 262.013,747.875 260.815,746.615 C259.259,744.98 256.62,744.738 254.145,745.438 C254.145,745.438 254.181,946.799 254.181,946.799 C257.341,947.018 259.525,946.695 260.908,945.458 C261.954,944.521 263.126,942.437 263.126,939.163 Z " fill="rgb(254,254,254)"/>
<path d="M909.15,938.327 C909.158,946.395 906.905,952.478 903.31,958.291 C898.86,963.829 892.296,967.207 884.947,967.244 C884.947,967.244 853.85,967.4 853.85,967.4 C853.85,967.4 853.946,724.826 853.946,724.826 C853.946,724.826 876.093,724.615 876.093,724.615 C884.578,724.534 893.53,724.834 900.255,730.92 C905.444,735.616 908.954,743.336 908.962,751.213 C908.962,751.213 909.15,938.327 909.15,938.327 Z M886.061,939.16 C886.061,939.16 886.11,753.222 886.11,753.222 C886.111,750.424 884.926,748.038 883.747,746.638 C882.338,744.965 879.662,744.869 876.988,745.496 C876.988,745.496 876.978,946.514 876.978,946.514 C879.504,947.155 882.47,946.864 883.882,945.491 C884.878,944.522 886.061,942.427 886.061,939.16 Z " fill="rgb(254,254,254)"/>
<path d="M774.343,963.875 C763.832,971.579 748.346,971.287 738.551,963.58 C732.184,958.57 729.14,950.222 729.138,941.839 C729.138,941.839 729.104,749.182 729.104,749.182 C729.102,741.443 732.351,733.695 738.079,729.09 C748.403,720.79 764.058,720.593 774.599,728.416 C780.716,732.955 784.296,741.028 784.303,749.197 C784.303,749.197 784.453,941.806 784.453,941.806 C784.459,950.246 781.157,958.881 774.343,963.875 Z M761.289,942.172 C761.289,942.172 761.178,748.308 761.178,748.308 C761.176,744.921 757.468,743.197 755.566,743.77 C753.758,744.314 752.012,746.226 752.013,749.228 C752.013,749.228 752.035,942.77 752.035,942.77 C752.036,946.152 754.185,948.298 756.535,948.324 C758.793,948.349 761.291,946.327 761.289,942.172 Z " fill="rgb(255,255,255)"/>
<path d="M846.657,724.622 C846.657,724.622 846.569,941.815 846.569,941.815 C846.566,949.383 843.98,956.261 839.587,961.481 C834.344,967.71 826.91,968.984 818.881,969.324 C804.791,969.921 791.997,960.277 791.971,944.658 C791.971,944.658 791.606,724.822 791.606,724.822 C791.606,724.822 814.698,724.75 814.698,724.75 C814.698,724.75 814.729,943.77 814.729,943.77 C814.729,946.958 817.629,948.566 819.507,948.429 C821.675,948.272 823.548,946.019 823.548,943.171 C823.548,943.171 823.564,724.797 823.564,724.797 C823.564,724.797 846.657,724.622 846.657,724.622 Z " fill="rgb(255,255,255)"/>
<path d="M201.145,923.337 C201.145,923.337 186.841,923.198 186.841,923.198 C186.841,923.198 184.437,967.507 184.437,967.507 C184.437,967.507 162.111,967.628 162.111,967.628 C162.111,967.628 167.462,890.268 167.462,890.268 C167.462,890.268 178.73,724.71 178.73,724.71 C178.73,724.71 209.208,724.701 209.208,724.701 C209.208,724.701 226.649,967.462 226.649,967.462 C226.649,967.462 203.629,967.551 203.629,967.551 C203.629,967.551 201.145,923.337 201.145,923.337 Z M200.182,902.137 C200.182,902.137 195.096,801.101 195.096,801.101 C195.096,801.101 194.517,785.46 194.517,785.46 C194.517,785.46 193.376,776.91 193.376,776.91 C193.376,776.91 192.854,801.094 192.854,801.094 C192.854,801.094 187.878,902.066 187.878,902.066 C187.878,902.066 200.182,902.137 200.182,902.137 Z " fill="rgb(254,254,254)"/>
<path d="M644.693,943.234 C644.694,946.937 647.752,948.464 649.476,948.51 C652.04,948.579 653.88,945.871 653.884,942.931 C653.884,942.931 653.974,881.336 653.974,881.336 C653.974,881.336 676.858,881.376 676.858,881.376 C676.858,881.376 676.454,944.37 676.454,944.37 C676.35,960.58 663.446,969.953 647.855,969.421 C634.256,968.956 621.976,960.197 621.961,944.602 C621.961,944.602 621.766,748.229 621.766,748.229 C621.758,739.69 626.406,731.291 633.044,727.243 C643.031,721.151 656.066,721.329 665.648,727.336 C673.059,731.981 676.505,740.803 676.543,749.383 C676.543,749.383 676.824,812.951 676.824,812.951 C676.824,812.951 654.015,812.979 654.015,812.979 C654.015,812.979 653.918,749.068 653.918,749.068 C653.913,746.003 651.733,743.828 649.46,743.825 C646.896,743.821 644.663,745.818 644.664,749.217 C644.664,749.217 644.693,943.234 644.693,943.234 Z " fill="rgb(255,255,255)"/>
<path d="M946.246,945.969 C947.224,945.581 947.228,943.919 946.433,943.533 C946.433,943.533 946.453,896.501 946.453,896.501 C946.271,884.022 940.851,872.62 936.173,860.979 C936.173,860.979 925.288,833.891 925.288,833.891 C918.337,816.594 915.844,798.794 916.135,780.011 C916.135,780.011 916.678,744.897 916.678,744.897 C916.87,732.501 926.827,724.134 938.992,723.114 C947.559,722.395 956.173,723.51 962.412,729.679 C967.019,734.235 969.639,741.17 969.664,748.04 C969.664,748.04 969.883,807.984 969.883,807.984 C969.883,807.984 947.756,808.023 947.756,808.023 C947.756,808.023 947.676,748.422 947.676,748.422 C947.672,745.658 945.457,743.707 943.531,743.771 C940.629,743.868 938.881,745.798 938.909,749.026 C938.909,749.026 939.319,796.589 939.319,796.589 C939.319,796.589 940.084,801.924 940.084,801.924 C945.129,837.149 971.361,861.686 970.148,918.971 C970.148,918.971 969.55,947.237 969.55,947.237 C968.02,960.129 959.042,968.819 945.915,969.229 C937.775,969.483 929.47,968.256 923.528,962.438 C918.447,957.464 916.073,950.41 916.046,942.944 C916.046,942.944 915.837,885.127 915.837,885.127 C915.837,885.127 937.96,885.036 937.96,885.036 C937.96,885.036 938.304,945.238 938.304,945.238 C938.314,947.048 941.254,948.681 942.507,948.593 C943.953,948.491 946.062,947.72 946.246,945.969 Z " fill="rgb(254,254,254)"/>
<path d="M156.619,855.489 C156.619,855.489 139.896,855.68 139.896,855.68 C139.896,855.68 139.878,946.681 139.878,946.681 C139.878,946.681 159.333,946.749 159.333,946.749 C159.333,946.749 159.335,967.54 159.335,967.54 C159.335,967.54 116.777,967.492 116.777,967.492 C116.777,967.492 116.758,724.667 116.758,724.667 C116.758,724.667 159.118,724.527 159.118,724.527 C159.118,724.527 159.197,745.243 159.197,745.243 C159.197,745.243 139.898,745.331 139.898,745.331 C139.898,745.331 139.851,835.481 139.851,835.481 C139.851,835.481 156.526,835.434 156.526,835.434 C156.526,835.434 156.619,855.489 156.619,855.489 Z " fill="rgb(255,255,255)"/>
<path d="M591.423,855.163 C591.423,855.163 574.777,855.582 574.777,855.582 C574.777,855.582 574.732,946.528 574.732,946.528 C574.732,946.528 594.267,946.747 594.267,946.747 C594.267,946.747 594.282,967.577 594.282,967.577 C594.282,967.577 551.759,967.627 551.759,967.627 C551.759,967.627 551.704,724.645 551.704,724.645 C551.704,724.645 594.15,724.596 594.15,724.596 C594.15,724.596 594.205,745.253 594.205,745.253 C594.205,745.253 574.766,745.316 574.766,745.316 C574.766,745.316 574.735,835.279 574.735,835.279 C574.735,835.279 591.474,835.475 591.474,835.475 C591.474,835.475 591.423,855.163 591.423,855.163 Z " fill="rgb(255,255,255)"/>
<path d="M469.669,967.429 C469.669,967.429 446.516,967.49 446.516,967.49 C446.516,967.49 446.538,745.519 446.538,745.519 C446.538,745.519 432.718,745.356 432.718,745.356 C432.718,745.356 432.738,724.611 432.738,724.611 C432.738,724.611 483.201,724.558 483.201,724.558 C483.201,724.558 483.214,745.294 483.214,745.294 C483.214,745.294 469.699,745.627 469.699,745.627 C469.699,745.627 469.669,967.429 469.669,967.429 Z " fill="rgb(255,255,255)"/>
<path d="M725.148,946.734 C725.148,946.734 725.035,967.576 725.035,967.576 C725.035,967.576 683.84,967.503 683.84,967.503 C683.84,967.503 683.81,724.538 683.81,724.538 C683.81,724.538 707.005,724.812 707.005,724.812 C707.005,724.812 707.004,946.376 707.004,946.376 C707.004,946.376 725.148,946.734 725.148,946.734 Z " fill="rgb(254,254,254)"/>
<path d="M338.013,967.619 C338.013,967.619 314.839,967.531 314.839,967.531 C314.839,967.531 314.794,724.731 314.794,724.731 C314.794,724.731 338.019,724.775 338.019,724.775 C338.019,724.775 338.013,967.619 338.013,967.619 Z " fill="rgb(255,255,254)"/>
<path d="M944.547,809.836 C943.121,810.067 940.488,797.839 940.447,791.178 C940.447,791.178 940.19,748.555 940.19,748.555 C940.184,747.59 941.998,745.504 942.53,744.751 C943.062,743.998 945.857,746.542 945.865,747.515 C945.865,747.515 946.327,804.968 946.327,804.968 C946.335,805.957 947.974,809.282 944.547,809.836 Z " fill="rgb(0,0,0)"/>
<path d="M946.433,943.533 C947.228,943.919 947.224,945.581 946.246,945.969 C944.535,946.735 944.52,946.834 943.351,946.984 C941.98,947.159 940.542,945.705 940.036,944.619 C940.036,944.619 939.802,891.084 939.802,891.084 C939.792,888.845 939.566,885.595 940.805,883.737 C941.683,882.42 943.236,883.943 943.263,884.665 C943.263,884.665 943.38,887.702 943.38,887.702 C943.38,887.702 945.554,903.466 945.554,903.466 C945.554,903.466 946.433,943.533 946.433,943.533 Z " fill="rgb(0,0,0)"/>
<path d="M263.126,939.163 C263.126,942.437 261.954,944.521 260.908,945.458 C259.525,946.695 257.341,947.018 254.181,946.799 C254.181,946.799 254.145,745.438 254.145,745.438 C256.62,744.738 259.259,744.98 260.815,746.615 C262.013,747.875 263.114,750.432 263.115,753.222 C263.115,753.222 263.126,939.163 263.126,939.163 Z " fill="rgb(0,1,1)"/>
<path d="M886.061,939.16 C886.061,942.427 884.878,944.522 883.882,945.491 C882.47,946.864 879.504,947.155 876.978,946.514 C876.978,946.514 876.988,745.496 876.988,745.496 C879.662,744.869 882.338,744.965 883.747,746.638 C884.926,748.038 886.111,750.424 886.11,753.222 C886.11,753.222 886.061,939.16 886.061,939.16 Z " fill="rgb(0,0,0)"/>
<path d="M761.289,942.172 C761.291,946.327 758.793,948.349 756.535,948.324 C754.185,948.298 752.036,946.152 752.035,942.77 C752.035,942.77 752.013,749.228 752.013,749.228 C752.012,746.226 753.758,744.314 755.566,743.77 C757.468,743.197 761.176,744.921 761.178,748.308 C761.178,748.308 761.289,942.172 761.289,942.172 Z " fill="rgb(0,0,0)"/>
<path d="M200.182,902.137 C200.182,902.137 187.878,902.066 187.878,902.066 C187.878,902.066 192.854,801.094 192.854,801.094 C192.854,801.094 193.376,776.91 193.376,776.91 C193.376,776.91 194.517,785.46 194.517,785.46 C194.517,785.46 195.096,801.101 195.096,801.101 C195.096,801.101 200.182,902.137 200.182,902.137 Z " fill="rgb(0,1,0)"/>
<path d="M0,1023.5 C0,1023.5 0,0 0,0 C0,0 1024,0 1024,0 C1024,0 1024,1024 1024,1024 C1024,1024 0,1024 0,1024 C0,1024 0,1023.5 0,1023.5 Z M644.693,943.234 C644.693,943.234 644.664,749.217 644.664,749.217 C644.663,745.818 646.896,743.821 649.46,743.825 C651.733,743.828 653.913,746.003 653.918,749.068 C653.918,749.068 654.015,812.979 654.015,812.979 C654.015,812.979 676.824,812.951 676.824,812.951 C676.824,812.951 676.543,749.383 676.543,749.383 C676.505,740.803 673.059,731.981 665.648,727.336 C656.066,721.329 643.031,721.151 633.044,727.243 C626.406,731.291 621.758,739.69 621.766,748.229 C621.766,748.229 621.961,944.602 621.961,944.602 C621.976,960.197 634.256,968.956 647.855,969.421 C663.446,969.953 676.35,960.58 676.454,944.37 C676.454,944.37 676.858,881.376 676.858,881.376 C676.858,881.376 653.974,881.336 653.974,881.336 C653.974,881.336 653.884,942.931 653.884,942.931 C653.88,945.871 652.04,948.579 649.476,948.51 C647.752,948.464 644.694,946.937 644.693,943.234 Z M774.343,963.875 C781.157,958.881 784.459,950.246 784.453,941.806 C784.453,941.806 784.303,749.197 784.303,749.197 C784.296,741.028 780.716,732.955 774.599,728.416 C764.058,720.593 748.403,720.79 738.079,729.09 C732.351,733.695 729.102,741.443 729.104,749.182 C729.104,749.182 729.138,941.839 729.138,941.839 C729.14,950.222 732.184,958.57 738.551,963.58 C748.346,971.287 763.832,971.579 774.343,963.875 Z M946.433,943.533 C946.433,943.533 945.554,903.466 945.554,903.466 C945.554,903.466 943.38,887.702 943.38,887.702 C943.38,887.702 943.263,884.665 943.263,884.665 C943.236,883.943 941.683,882.42 940.805,883.737 C939.566,885.595 939.792,888.845 939.802,891.084 C939.802,891.084 940.036,944.619 940.036,944.619 C940.542,945.705 941.98,947.159 943.351,946.984 C944.52,946.834 944.535,946.735 946.246,945.969 C946.062,947.72 943.953,948.491 942.507,948.593 C941.254,948.681 938.314,947.048 938.304,945.238 C938.304,945.238 937.96,885.036 937.96,885.036 C937.96,885.036 915.837,885.127 915.837,885.127 C915.837,885.127 916.046,942.944 916.046,942.944 C916.073,950.41 918.447,957.464 923.528,962.438 C929.47,968.256 937.775,969.483 945.915,969.229 C959.042,968.819 968.02,960.129 969.55,947.237 C969.55,947.237 970.148,918.971 970.148,918.971 C971.361,861.686 945.129,837.149 940.084,801.924 C940.084,801.924 939.319,796.589 939.319,796.589 C939.319,796.589 938.909,749.026 938.909,749.026 C938.881,745.798 940.629,743.868 943.531,743.771 C945.457,743.707 947.672,745.658 947.676,748.422 C947.676,748.422 947.756,808.023 947.756,808.023 C947.756,808.023 969.883,807.984 969.883,807.984 C969.883,807.984 969.664,748.04 969.664,748.04 C969.639,741.17 967.019,734.235 962.412,729.679 C956.173,723.51 947.559,722.395 938.992,723.114 C926.827,724.134 916.87,732.501 916.678,744.897 C916.678,744.897 916.135,780.011 916.135,780.011 C915.844,798.794 918.337,816.594 925.288,833.891 C925.288,833.891 936.173,860.979 936.173,860.979 C940.851,872.62 946.271,884.022 946.453,896.501 C946.453,896.501 946.433,943.533 946.433,943.533 Z M156.619,855.489 C156.619,855.489 156.526,835.434 156.526,835.434 C156.526,835.434 139.851,835.481 139.851,835.481 C139.851,835.481 139.898,745.331 139.898,745.331 C139.898,745.331 159.197,745.243 159.197,745.243 C159.197,745.243 159.118,724.527 159.118,724.527 C159.118,724.527 116.758,724.667 116.758,724.667 C116.758,724.667 116.777,967.492 116.777,967.492 C116.777,967.492 159.335,967.54 159.335,967.54 C159.335,967.54 159.333,946.749 159.333,946.749 C159.333,946.749 139.878,946.681 139.878,946.681 C139.878,946.681 139.896,855.68 139.896,855.68 C139.896,855.68 156.619,855.489 156.619,855.489 Z M725.148,946.734 C725.148,946.734 707.004,946.376 707.004,946.376 C707.004,946.376 707.005,724.812 707.005,724.812 C707.005,724.812 683.81,724.538 683.81,724.538 C683.81,724.538 683.84,967.503 683.84,967.503 C683.84,967.503 725.035,967.576 725.035,967.576 C725.035,967.576 725.148,946.734 725.148,946.734 Z M109.293,967.137 C109.293,967.137 109.249,724.797 109.249,724.797 C109.249,724.797 86.1787,724.776 86.1787,724.776 C86.1787,724.776 86.1372,833.718 86.1372,833.718 C86.1372,833.718 76.8988,833.706 76.8988,833.706 C76.8988,833.706 76.8897,724.828 76.8897,724.828 C76.8897,724.828 53.8132,724.777 53.8132,724.777 C53.8132,724.777 53.8195,967.409 53.8195,967.409 C53.8195,967.409 77.012,967.593 77.012,967.593 C77.012,967.593 76.9663,855.377 76.9663,855.377 C80.4915,855.274 83.3081,854.983 86.1611,855.604 C86.1611,855.604 86.1864,967.577 86.1864,967.577 C86.1864,967.577 109.293,967.137 109.293,967.137 Z M201.145,923.337 C201.145,923.337 203.629,967.551 203.629,967.551 C203.629,967.551 226.649,967.462 226.649,967.462 C226.649,967.462 209.208,724.701 209.208,724.701 C209.208,724.701 178.73,724.71 178.73,724.71 C178.73,724.71 167.462,890.268 167.462,890.268 C167.462,890.268 162.111,967.628 162.111,967.628 C162.111,967.628 184.437,967.507 184.437,967.507 C184.437,967.507 186.841,923.198 186.841,923.198 C186.841,923.198 201.145,923.337 201.145,923.337 Z M286.081,940.333 C286.081,940.333 286.184,753.187 286.184,753.187 C286.188,745.265 283.561,738.708 279.319,732.688 C274.455,727.855 268.044,724.827 260.966,724.801 C260.966,724.801 230.883,724.69 230.883,724.69 C230.883,724.69 231.01,967.571 231.01,967.571 C231.01,967.571 260.305,967.423 260.305,967.423 C267.38,967.388 273.86,964.954 278.977,959.923 C282.977,954.48 286.076,948.414 286.081,940.333 Z M338.013,967.619 C338.013,967.619 338.019,724.775 338.019,724.775 C338.019,724.775 314.794,724.731 314.794,724.731 C314.794,724.731 314.839,967.531 314.839,967.531 C314.839,967.531 338.013,967.619 338.013,967.619 Z M405.99,724.857 C405.99,724.857 385.243,724.839 385.243,724.839 C385.243,724.839 386.137,856.846 386.137,856.846 C386.137,856.846 385.791,870.04 385.791,870.04 C385.511,870.045 385.149,869.901 384.961,869.501 C384.961,869.501 384.523,860.214 384.523,860.214 C384.523,860.214 369.828,724.782 369.828,724.782 C369.828,724.782 345.611,724.772 345.611,724.772 C345.611,724.772 345.588,967.244 345.588,967.244 C345.588,967.244 366.38,967.274 366.38,967.274 C366.38,967.274 365.205,812.879 365.205,812.879 C365.205,812.879 378.924,929.841 378.924,929.841 C378.924,929.841 383.549,967.51 383.549,967.51 C383.549,967.51 405.979,967.461 405.979,967.461 C405.979,967.461 405.99,724.857 405.99,724.857 Z M469.669,967.429 C469.669,967.429 469.699,745.627 469.699,745.627 C469.699,745.627 483.214,745.294 483.214,745.294 C483.214,745.294 483.201,724.558 483.201,724.558 C483.201,724.558 432.738,724.611 432.738,724.611 C432.738,724.611 432.718,745.356 432.718,745.356 C432.718,745.356 446.538,745.519 446.538,745.519 C446.538,745.519 446.516,967.49 446.516,967.49 C446.516,967.49 469.669,967.429 469.669,967.429 Z M544.052,967.508 C544.052,967.508 544.019,724.832 544.019,724.832 C544.019,724.832 520.984,724.874 520.984,724.874 C520.984,724.874 521.002,833.672 521.002,833.672 C521.002,833.672 511.936,833.676 511.936,833.676 C511.936,833.676 511.881,724.92 511.881,724.92 C511.881,724.92 488.837,724.787 488.837,724.787 C488.837,724.787 488.847,967.576 488.847,967.576 C488.847,967.576 511.957,967.547 511.957,967.547 C511.957,967.547 511.93,855.371 511.93,855.371 C511.93,855.371 520.949,855.338 520.949,855.338 C520.949,855.338 520.932,967.43 520.932,967.43 C520.932,967.43 544.052,967.508 544.052,967.508 Z M591.423,855.163 C591.423,855.163 591.474,835.475 591.474,835.475 C591.474,835.475 574.735,835.279 574.735,835.279 C574.735,835.279 574.766,745.316 574.766,745.316 C574.766,745.316 594.205,745.253 594.205,745.253 C594.205,745.253 594.15,724.596 594.15,724.596 C594.15,724.596 551.704,724.645 551.704,724.645 C551.704,724.645 551.759,967.627 551.759,967.627 C551.759,967.627 594.282,967.577 594.282,967.577 C594.282,967.577 594.267,946.747 594.267,946.747 C594.267,946.747 574.732,946.528 574.732,946.528 C574.732,946.528 574.777,855.582 574.777,855.582 C574.777,855.582 591.423,855.163 591.423,855.163 Z M846.657,724.622 C846.657,724.622 823.564,724.797 823.564,724.797 C823.564,724.797 823.548,943.171 823.548,943.171 C823.548,946.019 821.675,948.272 819.507,948.429 C817.629,948.566 814.729,946.958 814.729,943.77 C814.729,943.77 814.698,724.75 814.698,724.75 C814.698,724.75 791.606,724.822 791.606,724.822 C791.606,724.822 791.971,944.658 791.971,944.658 C791.997,960.277 804.791,969.921 818.881,969.324 C826.91,968.984 834.344,967.71 839.587,961.481 C843.98,956.261 846.566,949.383 846.569,941.815 C846.569,941.815 846.657,724.622 846.657,724.622 Z M909.15,938.327 C909.15,938.327 908.962,751.213 908.962,751.213 C908.954,743.336 905.444,735.616 900.255,730.92 C893.53,724.834 884.578,724.534 876.093,724.615 C876.093,724.615 853.946,724.826 853.946,724.826 C853.946,724.826 853.85,967.4 853.85,967.4 C853.85,967.4 884.947,967.244 884.947,967.244 C892.296,967.207 898.86,963.829 903.31,958.291 C906.905,952.478 909.158,946.395 909.15,938.327 Z M944.547,809.836 C947.974,809.282 946.335,805.957 946.327,804.968 C946.327,804.968 945.865,747.515 945.865,747.515 C945.857,746.542 943.062,743.998 942.53,744.751 C941.998,745.504 940.184,747.59 940.19,748.555 C940.19,748.555 940.447,791.178 940.447,791.178 C940.488,797.839 943.121,810.067 944.547,809.836 Z " fill="rgb(0,0,0)"/>
</svg>