<svg xmlns="http://www.w3.org/2000/svg" width="1024" height="1024">
<defs>
</defs>
<path d="M0,1023.5 C0,1023.5 0,0 0,0 C0,0 1024,0 1024,0 C1024,0 1024,1024 1024,1024 C1024,1024 0,1024 0,1024 C0,1024 0,1023.5 0,1023.5 Z M391.895,558.945 C390.176,560.521 390.95,563.552 391.216,565.83 C391.216,565.83 556.481,565.579 556.481,565.579 C556.481,565.579 483.813,538.955 483.813,538.955 C483.813,538.955 442.424,537.615 442.424,537.615 C442.424,537.615 459.584,528.29 459.584,528.29 C459.584,528.29 459.361,365.789 459.361,365.789 C459.326,340.218 443.941,318.995 419.403,309.21 C419.403,309.21 606.473,309.047 606.473,309.047 C606.473,309.047 565.226,334.337 565.226,334.337 C564.746,335.216 564.963,337.147 565.005,338.001 C565.005,338.001 564.995,527.833 564.995,527.833 C564.995,529.41 566.289,529.056 566.678,529.267 C566.678,529.267 573.828,533.127 573.828,533.127 C573.828,533.127 573.893,345.195 573.893,345.195 C573.894,342.712 574.697,341.517 576.178,340.726 C577.359,340.095 580.098,340.038 580.943,342.358 C580.943,342.358 581.036,537.344 581.036,537.344 C581.036,537.344 633.212,565.346 633.212,565.346 C633.212,565.346 633.198,281.936 633.198,281.936 C633.198,281.936 549.088,282.424 549.088,282.424 C549.088,282.424 390.991,282.023 390.991,282.023 C390.991,282.023 391.895,558.945 391.895,558.945 Z M532.408,467.55 C532.408,467.55 523.141,422.124 523.141,422.124 C535.913,415.034 538.398,398.576 529.515,387.785 C520.526,376.866 503.577,376.827 494.463,387.773 C485.681,398.32 488.387,414.874 500.848,422.223 C500.848,422.223 491.685,468.08 491.685,468.08 C491.685,468.08 532.408,467.55 532.408,467.55 Z M765.384,663.853 C761.914,665.935 759.654,665.938 757.519,665.017 C755.695,664.23 754.455,662.021 754.451,659.692 C754.451,659.692 754.419,639.364 754.419,639.364 C754.419,639.364 765.202,639.197 765.202,639.197 C765.781,636.496 765.707,634.23 765.394,631.439 C765.394,631.439 754.333,631.081 754.333,631.081 C754.333,631.081 754.238,621.035 754.238,621.035 C754.238,621.035 744.87,621.037 744.87,621.037 C744.87,621.037 744.555,631.282 744.555,631.282 C744.555,631.282 738.094,631.321 738.094,631.321 C738.094,631.321 737.855,639.012 737.855,639.012 C740.252,639.002 742.528,638.982 744.399,639.586 C744.399,639.586 745.413,665.001 745.413,665.001 C747.784,674.482 760.642,676.377 767.995,671.155 C767.995,671.155 765.384,663.853 765.384,663.853 Z M734.88,640.069 C734.88,640.069 734.915,631.027 734.915,631.027 C729.468,630.412 724.821,631.914 720.805,636.72 C719.919,634.627 720.154,633.184 719.996,631.019 C719.996,631.019 710.998,631.074 710.998,631.074 C710.998,631.074 711,673.043 711,673.043 C711,673.043 720.892,673.008 720.892,673.008 C720.892,673.008 720.891,651.986 720.891,651.986 C720.89,648.113 722.541,644.404 725.052,642.474 C727.884,640.297 731.2,639.672 734.88,640.069 Z " fill="rgb(255,255,255)"/>
<path d="M566.678,529.267 C567.036,528.75 567.043,528.076 566.001,527.654 C566.001,527.654 566,339.179 566,339.179 C566.228,338.017 565.3,337.893 565.005,338.001 C564.963,337.147 564.746,335.216 565.226,334.337 C565.226,334.337 606.473,309.047 606.473,309.047 C606.473,309.047 419.403,309.21 419.403,309.21 C443.941,318.995 459.326,340.218 459.361,365.789 C459.361,365.789 459.584,528.29 459.584,528.29 C459.584,528.29 442.424,537.615 442.424,537.615 C442.424,537.615 483.813,538.955 483.813,538.955 C483.813,538.955 556.481,565.579 556.481,565.579 C556.481,565.579 391.216,565.83 391.216,565.83 C390.95,563.552 390.176,560.521 391.895,558.945 C391.895,558.945 392.016,283.166 392.016,283.166 C392.016,283.166 549.088,282.424 549.088,282.424 C549.088,282.424 633.198,281.936 633.198,281.936 C633.198,281.936 633.212,565.346 633.212,565.346 C633.212,565.346 581.036,537.344 581.036,537.344 C581.036,537.344 580.943,342.358 580.943,342.358 C580.098,340.038 577.359,340.095 576.178,340.726 C574.697,341.517 573.894,342.712 573.893,345.195 C573.893,345.195 573.828,533.127 573.828,533.127 C573.828,533.127 566.678,529.267 566.678,529.267 Z M595.343,432.53 C595.343,432.53 595.264,422.955 595.264,422.955 C595.246,420.64 593.666,419.093 591.576,419.173 C590.421,419.217 588.345,420.448 588.35,422.3 C588.35,422.3 588.378,433.674 588.378,433.674 C588.384,436.191 590.722,437.392 592.516,437.051 C594.363,436.7 595.365,435.271 595.343,432.53 Z " fill="rgb(27,43,65)"/>
<path d="M532.408,467.55 C532.408,467.55 491.685,468.08 491.685,468.08 C491.685,468.08 500.848,422.223 500.848,422.223 C488.387,414.874 485.681,398.32 494.463,387.773 C503.577,376.827 520.526,376.866 529.515,387.785 C538.398,398.576 535.913,415.034 523.141,422.124 C523.141,422.124 532.408,467.55 532.408,467.55 Z " fill="rgb(125,154,118)"/>
<path d="M765.384,663.853 C765.384,663.853 767.995,671.155 767.995,671.155 C760.642,676.377 747.784,674.482 745.413,665.001 C745.413,665.001 744.399,639.586 744.399,639.586 C742.528,638.982 740.252,639.002 737.855,639.012 C737.855,639.012 738.094,631.321 738.094,631.321 C738.094,631.321 744.555,631.282 744.555,631.282 C744.555,631.282 744.87,621.037 744.87,621.037 C744.87,621.037 754.238,621.035 754.238,621.035 C754.238,621.035 754.333,631.081 754.333,631.081 C754.333,631.081 765.394,631.439 765.394,631.439 C765.707,634.23 765.781,636.496 765.202,639.197 C765.202,639.197 754.419,639.364 754.419,639.364 C754.419,639.364 754.451,659.692 754.451,659.692 C754.455,662.021 755.695,664.23 757.519,665.017 C759.654,665.938 761.914,665.935 765.384,663.853 Z " fill="rgb(28,44,65)"/>
<path d="M734.88,640.069 C731.2,639.672 727.884,640.297 725.052,642.474 C722.541,644.404 720.89,648.113 720.891,651.986 C720.891,651.986 720.892,673.008 720.892,673.008 C720.892,673.008 711,673.043 711,673.043 C711,673.043 710.998,631.074 710.998,631.074 C710.998,631.074 719.996,631.019 719.996,631.019 C720.154,633.184 719.919,634.627 720.805,636.72 C724.821,631.914 729.468,630.412 734.915,631.027 C734.915,631.027 734.88,640.069 734.88,640.069 Z " fill="rgb(27,43,64)"/>
<path d="M549.088,282.424 C549.088,282.424 392.016,283.166 392.016,283.166 C392.016,283.166 391.895,558.945 391.895,558.945 C391.895,558.945 390.991,282.023 390.991,282.023 C390.991,282.023 549.088,282.424 549.088,282.424 Z " fill="rgb(10,24,41)"/>
<path d="M566.678,529.267 C566.289,529.056 564.995,529.41 564.995,527.833 C564.995,527.833 565.005,338.001 565.005,338.001 C565.3,337.893 566.228,338.017 566,339.179 C566,339.179 566.001,527.654 566.001,527.654 C567.043,528.076 567.036,528.75 566.678,529.267 Z " fill="rgb(11,25,38)"/>
<path d="M595.343,432.53 C595.365,435.271 594.363,436.7 592.516,437.051 C590.722,437.392 588.384,436.191 588.378,433.674 C588.378,433.674 588.35,422.3 588.35,422.3 C588.345,420.448 590.421,419.217 591.576,419.173 C593.666,419.093 595.246,420.64 595.264,422.955 C595.264,422.955 595.343,432.53 595.343,432.53 Z " fill="rgb(255,255,255)"/>
</svg>