<svg xmlns="http://www.w3.org/2000/svg" width="1024" height="1024">
<defs>
</defs>
<path d="M0,1023.5 C0,1023.5 0,0 0,0 C0,0 1024,0 1024,0 C1024,0 1024,1024 1024,1024 C1024,1024 0,1024 0,1024 C0,1024 0,1023.5 0,1023.5 Z M172.964,378.981 C172.964,378.981 158.282,379.287 158.282,379.287 C158.282,379.287 157.98,426.901 157.98,426.901 C156.996,426.97 155.785,427.086 154.944,427.722 C154.944,427.722 154.705,440.041 154.705,440.041 C154.69,440.852 155.048,442.384 155.457,442.914 C155.901,443.489 156.781,443.686 157.945,443.773 C157.945,443.773 158.125,467.063 158.125,467.063 C158.125,467.063 157.921,555.048 157.921,555.048 C157.921,555.048 197.043,555.048 197.043,555.048 C197.859,555.048 198.308,554.653 198.134,553.991 C197.65,551.155 198.155,548.168 198.591,545.363 C199.467,539.73 198.886,534.203 198.799,528.912 C198.799,528.912 198.509,511.328 198.509,511.328 C198.509,511.328 198.789,502.943 198.789,502.943 C198.854,501.004 198.446,499.188 197.837,497.391 C199.697,496.734 199.046,495.201 198.143,494.725 C198.143,494.725 198.332,476.992 198.332,476.992 C198.332,476.992 198.452,460.662 198.452,460.662 C201.302,461.212 204.188,460.862 207.187,459.769 C207.187,459.769 271.453,541.179 271.453,541.179 C271.453,541.179 282.151,554.996 282.151,554.996 C282.151,554.996 315.487,554.555 315.487,554.555 C315.487,554.555 315.933,546.779 315.933,546.779 C315.933,546.779 315.937,387.218 315.937,387.218 C315.937,387.218 315.511,379.453 315.511,379.453 C307.311,378.981 299.637,378.951 291.886,379.016 C291.864,378.037 291.147,376.971 291.583,375.499 C291.583,375.499 275.361,375.401 275.361,375.401 C275.125,376.986 275.191,378.525 275.18,379.853 C275.18,379.853 275.123,387.126 275.123,387.126 C275.123,387.126 274.967,474.896 274.967,474.896 C274.066,476.489 273.468,477.477 271.486,477.152 C270.143,476.933 268.877,475.67 267.986,474.685 C267.986,474.685 201.135,389.932 201.135,389.932 C194.661,383.854 195.392,378.956 189.005,378.963 C189.271,378.577 189.206,376.703 188.343,376.393 C182.382,374.25 171.774,374.961 172.964,378.981 Z M466.629,463.516 C480.832,454.481 487.534,441.216 487.161,426.026 C487.547,409.901 479.672,396.112 465.686,388.231 C454.468,382.09 442.158,379.436 428.926,379.411 C428.926,379.411 341.288,379.251 341.288,379.251 C341.288,379.251 341.26,554.771 341.26,554.771 C341.26,554.771 432.925,554.667 432.925,554.667 C445.012,554.653 456.447,552.695 467.091,548.359 C485.349,540.933 494.929,524.358 494.423,504.994 C493.932,486.162 484.154,470.473 466.629,463.516 Z M648.83,473.304 C663.89,447.24 658.857,409.854 633.745,392.153 C621.904,384.307 608.604,379.519 593.9,379.452 C593.9,379.452 511.892,379.08 511.892,379.08 C511.892,379.08 511.977,554.815 511.977,554.815 C511.977,554.815 552.249,554.73 552.249,554.73 C552.249,554.73 552.311,503.78 552.311,503.78 C569.561,503.363 585.221,504.508 601.297,502.499 C620.71,500.074 638.597,491.014 648.83,473.304 Z M811.776,409.013 C811.033,409.018 810.745,409.606 810.674,411.15 C809.941,410.277 809.388,409.528 808.425,409.203 C807.397,408.855 806.212,409.264 804.879,409.987 C804.879,409.987 770.986,378.752 770.986,378.752 C770.986,378.752 670.7,472.973 670.7,472.973 C670.7,472.973 694.53,473.534 694.53,473.534 C694.53,473.534 771.047,401.729 771.047,401.729 C771.047,401.729 847.121,473.104 847.121,473.104 C847.121,473.104 872.512,473.251 872.512,473.251 C872.512,473.251 858.959,460.946 858.959,460.946 C858.959,460.946 836.348,439.55 836.348,439.55 C836.348,439.55 836.401,402.165 836.401,402.165 C836.401,402.165 811.821,402.21 811.821,402.21 C811.821,402.21 811.776,409.013 811.776,409.013 Z M771.059,438.653 C771.059,438.653 835.963,499.142 835.963,499.142 C835.963,499.142 836.403,476.51 836.403,476.51 C836.403,476.51 771.186,415.63 771.186,415.63 C771.186,415.63 706.332,476.497 706.332,476.497 C706.332,476.497 706.315,499.352 706.315,499.352 C706.315,499.352 771.059,438.653 771.059,438.653 Z M792.615,554.627 C792.615,554.627 782.675,516.307 782.675,516.307 C789.174,511.658 792.352,504.725 792.074,497.555 C791.812,490.788 788.296,484.001 781.861,480.118 C771.884,474.099 759.128,478.102 753.623,487.303 C747.632,497.318 750.188,509.596 760.068,516.211 C760.068,516.211 749.537,554.642 749.537,554.642 C749.537,554.642 792.615,554.627 792.615,554.627 Z M796.362,590.488 C793.528,591.512 792.384,594.651 793.514,597.001 C794.728,599.526 797.637,600.656 800.014,599.505 C802.564,598.269 803.648,595.437 802.544,592.934 C801.555,590.689 799.017,589.528 796.362,590.488 Z M297.481,633.383 C297.481,633.383 305.608,633.47 305.608,633.47 C305.608,633.47 305.516,615.013 305.516,615.013 C305.491,609.914 302.747,605.546 298.505,603.98 C294.317,602.433 289.982,603.231 286.115,606.224 C286.115,606.224 285.956,592.594 285.956,592.594 C285.956,592.594 277.843,592.721 277.843,592.721 C277.843,592.721 278.085,633.278 278.085,633.278 C278.085,633.278 286.16,633.289 286.16,633.289 C286.16,633.289 286.216,617.018 286.216,617.018 C286.227,613.787 288.29,611.493 290.584,611.029 C293.365,610.467 297.105,611.727 297.161,614.968 C297.161,614.968 297.481,633.383 297.481,633.383 Z M458.793,632.825 C458.793,632.825 458.633,592.606 458.633,592.606 C458.633,592.606 450.519,592.786 450.519,592.786 C450.519,592.786 450.534,633.187 450.534,633.187 C453.796,633.64 456.447,633.827 458.793,632.825 Z M195.328,632.733 C195.328,632.733 195.237,595.116 195.237,595.116 C195.237,595.116 187.154,595.013 187.154,595.013 C187.154,595.013 186.809,617.344 186.809,617.344 C186.809,617.344 169.926,594.905 169.926,594.905 C169.926,594.905 162.755,594.907 162.755,594.907 C162.755,594.907 162.85,633.276 162.85,633.276 C162.85,633.276 171.124,633.376 171.124,633.376 C171.124,633.376 171.281,610.795 171.281,610.795 C171.281,610.795 188.054,633.193 188.054,633.193 C190.334,633.605 192.798,633.895 195.328,632.733 Z M440.527,613.259 C444.755,609.001 444.859,604.7 443.059,600.59 C441.796,597.705 437.892,595.291 433.922,595.245 C433.922,595.245 413.285,595.006 413.285,595.006 C413.285,595.006 413.413,633.423 413.413,633.423 C413.413,633.423 434.949,633.213 434.949,633.213 C440.501,633.159 444.828,629.889 445.634,625.244 C446.501,620.249 444.706,616.004 440.527,613.259 Z M617.671,621.674 C623.562,620.036 626.847,615.001 627.05,609.01 C627.302,601.582 622.575,595.161 614.897,595.083 C614.897,595.083 596.365,594.897 596.365,594.897 C596.365,594.897 596.388,633.484 596.388,633.484 C596.388,633.484 604.655,633.519 604.655,633.519 C604.655,633.519 604.991,622.453 604.991,622.453 C609.638,622.513 613.725,622.771 617.671,621.674 Z M265.79,623.556 C265.79,623.556 265.839,611.177 265.839,611.177 C265.839,611.177 272.353,611.05 272.353,611.05 C272.353,611.05 272.133,604.278 272.133,604.278 C272.133,604.278 265.772,604.189 265.772,604.189 C265.772,604.189 265.753,596.951 265.753,596.951 C265.753,596.951 257.71,596.899 257.71,596.899 C257.71,596.899 257.49,604.303 257.49,604.303 C255.669,603.601 254.345,603.975 253.932,604.549 C253.448,605.222 253.173,610.538 254.473,611.106 C254.924,611.303 256.083,611.187 257.556,610.927 C257.556,610.927 258.395,627.675 258.395,627.675 C260.306,634.529 268.676,635.291 274.064,632.334 C274.064,632.334 271.811,625.954 271.811,625.954 C270.543,627.268 269.012,627.488 267.598,626.872 C266.864,626.552 265.783,625.492 265.79,623.556 Z M781.768,622.551 C781.768,622.551 781.917,611.222 781.917,611.222 C781.917,611.222 788.273,611.061 788.273,611.061 C788.273,611.061 788.127,604.102 788.127,604.102 C788.127,604.102 781.882,604.188 781.882,604.188 C781.882,604.188 781.82,597.044 781.82,597.044 C781.82,597.044 773.768,596.957 773.768,596.957 C773.768,596.957 773.488,604.453 773.488,604.453 C771.724,604.176 770.534,604.296 769.927,604.558 C769.592,604.703 768.883,610.849 770.389,610.99 C770.389,610.99 773.782,611.308 773.782,611.308 C774.312,616.543 772.862,623.089 774.713,628.318 C776.914,634.534 785.227,635.238 790.546,632.335 C789.969,629.628 789.36,627.953 788.343,625.975 C786.488,627.118 785.072,627.324 783.651,626.742 C782.564,626.297 781.739,624.775 781.768,622.551 Z M229.765,614.588 C227.968,606.646 221.361,602.789 214.503,603.271 C207.435,603.768 201.588,608.461 200.575,615.825 C199.666,622.43 202.307,628.804 207.121,631.656 C212.82,635.034 219.499,634.569 224.089,631.419 C229.374,627.793 231.308,621.405 229.765,614.588 Z M242.892,633.119 C242.892,633.119 242.918,618.989 242.918,618.989 C242.923,616.401 243.791,614.158 245.431,612.858 C247.166,611.482 249.301,610.969 251.834,611.126 C251.834,611.126 251.882,603.433 251.882,603.433 C247.804,603.039 245.131,604.72 242.288,607.001 C242.495,606.421 242.636,604.244 242.116,604.083 C239.586,603.299 237.412,603.623 234.901,603.859 C234.901,603.859 234.829,633.262 234.829,633.262 C237.837,633.65 240.215,633.617 242.892,633.119 Z M332.215,624.368 C329.264,627.135 326.405,627.466 323.053,626.543 C321.026,625.986 318.935,624.071 318.221,621.141 C318.221,621.141 338.453,621.077 338.453,621.077 C339.173,614.464 337.069,608.293 332.21,605.328 C327.08,602.198 320.302,602.509 315.362,606.611 C308.416,612.378 308.094,624.549 315.34,630.552 C321.565,635.71 331.354,634.752 336.698,629.408 C336.698,629.408 332.215,624.368 332.215,624.368 Z M351.524,633.18 C351.524,633.18 351.634,617.675 351.634,617.675 C351.663,613.461 355.469,610.332 360.235,611.581 C360.235,611.581 360.188,603.236 360.188,603.236 C356.185,603.34 353.635,604.613 351.265,607.033 C351.265,607.033 351.006,603.792 351.006,603.792 C351.006,603.792 343.46,603.798 343.46,603.798 C343.46,603.798 343.421,633.296 343.421,633.296 C343.421,633.296 351.524,633.18 351.524,633.18 Z M372.985,616.015 C373.024,613.108 375.749,611.442 377.573,611.01 C379.884,610.463 383.83,611.185 383.914,614.061 C383.914,614.061 384.476,633.367 384.476,633.367 C384.476,633.367 392.63,633.443 392.63,633.443 C392.63,633.443 392.237,613.016 392.237,613.016 C392.145,608.234 388.49,604.663 384.53,603.755 C380.362,602.799 375.94,603.431 372.563,606.782 C371.783,606.446 372.159,604.599 371.98,604.035 C370.074,603.487 367.128,603.804 364.685,603.99 C364.685,603.99 364.602,633.133 364.602,633.133 C364.602,633.133 372.757,633.088 372.757,633.088 C372.757,633.088 372.985,616.015 372.985,616.015 Z M493.261,616.982 C492.467,607.833 485.005,602.623 476.777,603.333 C468.446,604.052 462.858,611.27 463.572,620.014 C464.32,629.175 471.894,634.892 480.476,633.884 C488.578,632.932 494.029,625.82 493.261,616.982 Z M525.759,617.97 C525.487,609.063 518.707,603.091 510.439,603.213 C502.065,603.337 495.873,610.118 495.996,619.03 C496.119,628.035 503.015,634.259 511.468,634.012 C519.909,633.765 526.036,627.027 525.759,617.97 Z M557.176,632.927 C557.176,632.927 557.657,614.786 557.657,614.786 C557.734,611.88 561.198,610.362 563.477,610.851 C565.648,611.317 567.406,613.27 567.42,615.983 C567.42,615.983 567.513,633.554 567.513,633.554 C567.513,633.554 575.633,633.154 575.633,633.154 C575.633,633.154 575.609,615.052 575.609,615.052 C575.602,609.594 572.65,605.429 568.514,603.791 C563.624,601.853 558.615,604.457 555.126,607.164 C550.345,602.462 543.659,602.057 538.476,605.851 C537.317,602.435 533.603,603.385 530.45,603.965 C530.45,603.965 530.437,633.469 530.437,633.469 C530.437,633.469 538.516,633.475 538.516,633.475 C538.516,633.475 539.204,614.368 539.204,614.368 C539.306,611.524 543.415,610.397 545.444,610.952 C547.873,611.616 548.995,614.075 548.994,616.987 C548.994,616.987 548.985,633.232 548.985,633.232 C551.811,633.484 554.35,633.78 557.176,632.927 Z M639.71,633.338 C639.71,633.338 639.872,617.983 639.872,617.983 C639.896,615.742 640.784,613.703 642.275,612.633 C643.708,611.606 645.619,611.068 648.522,611.415 C648.748,608.65 648.854,605.897 648.223,603.185 C644.298,603.155 641.815,604.789 639.344,606.86 C639.344,606.86 639.09,603.797 639.09,603.797 C639.09,603.797 631.714,603.847 631.714,603.847 C631.714,603.847 631.657,633.502 631.657,633.502 C631.657,633.502 639.71,633.338 639.71,633.338 Z M680.778,617.465 C680.116,608.5 673.079,603.07 665.441,603.217 C657.398,603.371 651.097,609.574 650.711,618.002 C650.278,627.453 657.361,634.28 666.437,634.017 C674.621,633.779 681.497,627.196 680.778,617.465 Z M693.398,644.107 C693.398,644.107 693.409,631.081 693.409,631.081 C698.138,634.772 703.751,634.713 708.407,632.022 C712.653,629.568 714.9,624.507 714.957,618.991 C715.018,613.127 712.527,607.602 707.631,604.866 C702.993,602.274 697.799,602.929 693.501,605.726 C691.757,602.209 687.718,603.875 685.522,604.062 C685.522,604.062 685.436,644.078 685.436,644.078 C685.436,644.078 693.398,644.107 693.398,644.107 Z M740.45,624.154 C738.025,626.69 735.101,627.617 731.702,626.797 C729.458,626.255 726.59,624.468 725.971,621.178 C725.971,621.178 746.36,621.102 746.36,621.102 C747.563,611.995 742.22,604.387 734.405,603.306 C725.839,602.122 718.58,608.262 717.804,616.94 C716.953,626.451 723.52,633.991 732.988,633.952 C737.506,633.934 741.566,633.019 744.858,629.536 C743.759,627.198 742.092,625.685 740.45,624.154 Z M759.208,633.054 C759.208,633.054 759.103,618.97 759.103,618.97 C759.084,616.412 759.953,614.296 761.505,612.955 C763.222,611.472 765.234,610.979 768.17,611.28 C768.17,611.28 767.955,603.331 767.955,603.331 C764.351,603.01 761.762,604.179 759.24,606.242 C759.24,606.242 758.165,603.648 758.165,603.648 C758.165,603.648 751.217,603.953 751.217,603.953 C751.217,603.953 751.102,633.08 751.102,633.08 C753.823,633.502 756.246,633.568 759.208,633.054 Z M828.846,624.479 C825.741,627.454 822.58,627.281 819.937,626.692 C817.923,626.242 815.514,624.263 815.077,621.117 C815.077,621.117 835.134,621.081 835.134,621.081 C836.454,612.769 832.271,605.025 824.346,603.502 C816.908,602.073 809.163,606.244 807.333,614.293 C806.279,618.928 806.737,624.233 809.864,628.21 C815.667,635.593 827.187,635.912 833.585,629.356 C832.079,627.113 830.695,625.764 828.846,624.479 Z M856.757,632.743 C861.216,631.169 862.96,626.866 862.303,622.513 C860.968,613.673 848.533,617.854 845.912,612.105 C849.515,608.613 854.685,609.628 858.793,612.31 C858.793,612.31 861.382,605.638 861.382,605.638 C855.461,602.588 848.254,602.163 842.537,605.475 C839.683,607.129 838.424,610.467 838.445,613.281 C838.467,616.377 840.011,619.854 843.354,620.597 C843.354,620.597 852.311,622.587 852.311,622.587 C853.525,622.856 854.465,623.509 854.709,624.633 C855.403,627.828 847.787,628.964 840.701,624.456 C840.701,624.456 837.952,630.98 837.952,630.98 C843.841,634.194 850.579,634.924 856.757,632.743 Z M802.282,633.08 C802.282,633.08 802.097,603.771 802.097,603.771 C802.097,603.771 794.018,603.965 794.018,603.965 C794.018,603.965 793.964,633.421 793.964,633.421 C796.599,633.498 799.608,633.922 802.282,633.08 Z " fill="rgb(242,244,244)"/>
<path d="M466.629,463.516 C484.154,470.473 493.932,486.162 494.423,504.994 C494.929,524.358 485.349,540.933 467.091,548.359 C456.447,552.695 445.012,554.653 432.925,554.667 C432.925,554.667 341.26,554.771 341.26,554.771 C341.26,554.771 341.288,379.251 341.288,379.251 C341.288,379.251 428.926,379.411 428.926,379.411 C442.158,379.436 454.468,382.09 465.686,388.231 C479.672,396.112 487.547,409.901 487.161,426.026 C487.534,441.216 480.832,454.481 466.629,463.516 Z M383.708,450.175 C384.079,450.059 384.46,450.178 384.754,450.178 C384.754,450.178 411.727,450.203 411.727,450.203 C411.727,450.203 428.096,449.886 428.096,449.886 C435.093,449.75 442.784,446.065 445.86,439.038 C448.264,433.547 448.347,427.317 445.727,421.903 C443.66,417.633 438.852,413.338 433.231,412.652 C433.231,412.652 420.253,411.067 420.253,411.067 C420.253,411.067 412.324,411.304 412.324,411.304 C412.324,411.304 382.127,410.956 382.127,410.956 C382.127,410.956 381.566,448.138 381.566,448.138 C381.349,449.55 382.067,450.691 383.708,450.175 Z M381.518,489.916 C381.518,489.916 381.709,512.765 381.709,512.765 C381.709,512.765 381.754,522.247 381.754,522.247 C381.754,522.247 392.037,522.328 392.037,522.328 C392.037,522.328 409.916,522.442 409.916,522.442 C409.916,522.442 426.103,522.438 426.103,522.438 C432.355,522.436 438.566,522.214 444.12,518.974 C446.657,517.494 449.212,516.228 451.159,513.254 C454.697,507.849 454.37,500.931 452.967,494.917 C451.884,490.277 448.818,487.04 444.455,484.755 C438.913,481.854 432.999,480.947 426.953,480.93 C426.953,480.93 409.996,480.883 409.996,480.883 C409.996,480.883 392.019,480.913 392.019,480.913 C392.019,480.913 381.469,480.966 381.469,480.966 C381.469,480.966 381.518,489.916 381.518,489.916 Z " fill="rgb(24,24,24)"/>
<path d="M201.135,389.932 C201.135,389.932 267.986,474.685 267.986,474.685 C270.807,478.485 273.608,482.945 275.739,483.106 C275.953,483.122 276.989,483.078 276.989,482.722 C276.989,482.722 276.895,380.773 276.895,380.773 C276.895,380.773 314.071,380.762 314.071,380.762 C314.071,380.762 314.079,553.276 314.079,553.276 C314.079,553.276 282.207,553.044 282.207,553.044 C282.207,553.044 276.741,546.037 276.741,546.037 C275.419,544.343 274.284,541.142 271.453,541.179 C271.453,541.179 207.187,459.769 207.187,459.769 C207.187,459.769 198.406,448.794 198.406,448.794 C198.406,448.794 198.452,460.662 198.452,460.662 C198.452,460.662 198.332,476.992 198.332,476.992 C197.939,476.674 197.034,476.916 197.034,477.254 C197.034,477.254 196.992,552.984 196.992,552.984 C196.992,552.984 160.032,552.997 160.032,552.997 C160.032,552.997 159.73,537.958 159.73,537.958 C159.546,537.98 159.204,538.095 158.954,538.501 C158.954,538.501 159.278,554.096 159.278,554.096 C159.278,554.096 198.134,553.991 198.134,553.991 C198.308,554.653 197.859,555.048 197.043,555.048 C197.043,555.048 157.921,555.048 157.921,555.048 C157.921,555.048 158.125,467.063 158.125,467.063 C158.639,466.676 159.969,465.11 159.987,463.958 C159.987,463.958 159.757,380.856 159.757,380.856 C159.757,380.856 192.796,380.99 192.796,380.99 C192.796,380.99 197.733,387.389 197.733,387.389 C197.733,387.389 198.935,389.556 198.935,389.556 C199.318,390.246 200.309,390.172 201.135,389.932 Z " fill="rgb(186,18,37)"/>
<path d="M648.83,473.304 C638.597,491.014 620.71,500.074 601.297,502.499 C585.221,504.508 569.561,503.363 552.311,503.78 C552.311,503.78 552.249,554.73 552.249,554.73 C552.249,554.73 511.977,554.815 511.977,554.815 C511.977,554.815 511.892,379.08 511.892,379.08 C511.892,379.08 593.9,379.452 593.9,379.452 C608.604,379.519 621.904,384.307 633.745,392.153 C658.857,409.854 663.89,447.24 648.83,473.304 Z M552.316,426.88 C552.316,426.88 552.306,441.492 552.306,441.492 C552.306,441.492 552.368,460.794 552.368,460.794 C552.368,460.794 552.333,469.672 552.333,469.672 C552.333,469.672 562.708,469.617 562.708,469.617 C562.708,469.617 580.146,469.542 580.146,469.542 C586.695,469.514 593.543,469.951 600.23,467.234 C613.157,461.982 618.493,449.628 616.307,435.879 C615.635,431.647 614.76,428.082 612.536,424.76 C609.625,420.413 605.338,417.705 600.461,415.669 C593.815,412.895 586.617,413.104 579.562,413.09 C579.562,413.09 563.387,413.056 563.387,413.056 C563.387,413.056 552.128,413.029 552.128,413.029 C552.128,413.029 552.316,426.88 552.316,426.88 Z " fill="rgb(187,18,37)"/>
<path d="M804.879,409.987 C804.879,409.987 811.554,416.178 811.554,416.178 C812.133,414.046 811.759,411.567 811.776,409.013 C811.776,409.013 811.821,402.21 811.821,402.21 C811.821,402.21 836.401,402.165 836.401,402.165 C836.401,402.165 836.348,439.55 836.348,439.55 C836.348,439.55 858.959,460.946 858.959,460.946 C858.959,460.946 872.512,473.251 872.512,473.251 C872.512,473.251 847.121,473.104 847.121,473.104 C847.121,473.104 771.047,401.729 771.047,401.729 C771.047,401.729 694.53,473.534 694.53,473.534 C694.53,473.534 670.7,472.973 670.7,472.973 C670.7,472.973 770.986,378.752 770.986,378.752 C770.986,378.752 804.879,409.987 804.879,409.987 Z " fill="rgb(187,18,38)"/>
<path d="M771.059,438.653 C771.059,438.653 706.315,499.352 706.315,499.352 C706.315,499.352 706.332,476.497 706.332,476.497 C706.332,476.497 771.186,415.63 771.186,415.63 C771.186,415.63 836.403,476.51 836.403,476.51 C836.403,476.51 835.963,499.142 835.963,499.142 C835.963,499.142 771.059,438.653 771.059,438.653 Z " fill="rgb(23,23,23)"/>
<path d="M792.615,554.627 C792.615,554.627 749.537,554.642 749.537,554.642 C749.537,554.642 760.068,516.211 760.068,516.211 C750.188,509.596 747.632,497.318 753.623,487.303 C759.128,478.102 771.884,474.099 781.861,480.118 C788.296,484.001 791.812,490.788 792.074,497.555 C792.352,504.725 789.174,511.658 782.675,516.307 C782.675,516.307 792.615,554.627 792.615,554.627 Z " fill="rgb(185,18,37)"/>
<path d="M440.527,613.259 C444.706,616.004 446.501,620.249 445.634,625.244 C444.828,629.889 440.501,633.159 434.949,633.213 C434.949,633.213 413.413,633.423 413.413,633.423 C413.413,633.423 413.285,595.006 413.285,595.006 C413.285,595.006 433.922,595.245 433.922,595.245 C437.892,595.291 441.796,597.705 443.059,600.59 C444.859,604.7 444.755,609.001 440.527,613.259 Z M432.824,610.475 C435.197,609.361 436.017,607.55 435.722,605.651 C435.007,601.054 429.134,601.792 421.751,601.984 C421.751,601.984 421.624,610.512 421.624,610.512 C421.624,610.512 432.824,610.475 432.824,610.475 Z M435.244,625.759 C437.498,625.046 437.639,622.311 437.19,620.577 C436.878,619.368 435.838,617.492 433.645,617.486 C433.645,617.486 421.644,617.448 421.644,617.448 C421.644,617.448 421.618,626.516 421.618,626.516 C425.938,626.387 430.51,627.255 435.244,625.759 Z " fill="rgb(17,17,16)"/>
<path d="M557.176,632.927 C554.35,633.78 551.811,633.484 548.985,633.232 C548.985,633.232 548.994,616.987 548.994,616.987 C548.995,614.075 547.873,611.616 545.444,610.952 C543.415,610.397 539.306,611.524 539.204,614.368 C539.204,614.368 538.516,633.475 538.516,633.475 C538.516,633.475 530.437,633.469 530.437,633.469 C530.437,633.469 530.45,603.965 530.45,603.965 C533.603,603.385 537.317,602.435 538.476,605.851 C543.659,602.057 550.345,602.462 555.126,607.164 C558.615,604.457 563.624,601.853 568.514,603.791 C572.65,605.429 575.602,609.594 575.609,615.052 C575.609,615.052 575.633,633.154 575.633,633.154 C575.633,633.154 567.513,633.554 567.513,633.554 C567.513,633.554 567.42,615.983 567.42,615.983 C567.406,613.27 565.648,611.317 563.477,610.851 C561.198,610.362 557.734,611.88 557.657,614.786 C557.657,614.786 557.176,632.927 557.176,632.927 Z " fill="rgb(17,17,17)"/>
<path d="M195.328,632.733 C192.798,633.895 190.334,633.605 188.054,633.193 C188.054,633.193 171.281,610.795 171.281,610.795 C171.281,610.795 171.124,633.376 171.124,633.376 C171.124,633.376 162.85,633.276 162.85,633.276 C162.85,633.276 162.755,594.907 162.755,594.907 C162.755,594.907 169.926,594.905 169.926,594.905 C169.926,594.905 186.809,617.344 186.809,617.344 C186.809,617.344 187.154,595.013 187.154,595.013 C187.154,595.013 195.237,595.116 195.237,595.116 C195.237,595.116 195.328,632.733 195.328,632.733 Z " fill="rgb(16,16,15)"/>
<path d="M617.671,621.674 C613.725,622.771 609.638,622.513 604.991,622.453 C604.991,622.453 604.655,633.519 604.655,633.519 C604.655,633.519 596.388,633.484 596.388,633.484 C596.388,633.484 596.365,594.897 596.365,594.897 C596.365,594.897 614.897,595.083 614.897,595.083 C622.575,595.161 627.302,601.582 627.05,609.01 C626.847,615.001 623.562,620.036 617.671,621.674 Z M614.251,614.665 C618.012,613.792 618.8,610.522 618.444,607.548 C618.167,605.242 616.732,602.478 613.666,602.423 C613.666,602.423 604.954,602.267 604.954,602.267 C604.954,602.267 604.949,614.86 604.949,614.86 C608.081,615.055 611.069,615.404 614.251,614.665 Z " fill="rgb(17,17,17)"/>
<path d="M693.398,644.107 C693.398,644.107 685.436,644.078 685.436,644.078 C685.436,644.078 685.522,604.062 685.522,604.062 C687.718,603.875 691.757,602.209 693.501,605.726 C697.799,602.929 702.993,602.274 707.631,604.866 C712.527,607.602 715.018,613.127 714.957,618.991 C714.9,624.507 712.653,629.568 708.407,632.022 C703.751,634.713 698.138,634.772 693.409,631.081 C693.409,631.081 693.398,644.107 693.398,644.107 Z M706.875,618.493 C706.839,613.463 703.665,610.443 699.497,610.648 C695.624,610.839 693.206,614.754 693.299,618.986 C693.4,623.554 696.328,627.025 700.491,626.766 C704.453,626.52 706.91,623.416 706.875,618.493 Z " fill="rgb(17,17,16)"/>
<path d="M297.481,633.383 C297.481,633.383 297.161,614.968 297.161,614.968 C297.105,611.727 293.365,610.467 290.584,611.029 C288.29,611.493 286.227,613.787 286.216,617.018 C286.216,617.018 286.16,633.289 286.16,633.289 C286.16,633.289 278.085,633.278 278.085,633.278 C278.085,633.278 277.843,592.721 277.843,592.721 C277.843,592.721 285.956,592.594 285.956,592.594 C285.956,592.594 286.115,606.224 286.115,606.224 C289.982,603.231 294.317,602.433 298.505,603.98 C302.747,605.546 305.491,609.914 305.516,615.013 C305.516,615.013 305.608,633.47 305.608,633.47 C305.608,633.47 297.481,633.383 297.481,633.383 Z " fill="rgb(16,16,16)"/>
<path d="M740.45,624.154 C742.092,625.685 743.759,627.198 744.858,629.536 C741.566,633.019 737.506,633.934 732.988,633.952 C723.52,633.991 716.953,626.451 717.804,616.94 C718.58,608.262 725.839,602.122 734.405,603.306 C742.22,604.387 747.563,611.995 746.36,621.102 C746.36,621.102 725.971,621.178 725.971,621.178 C726.59,624.468 729.458,626.255 731.702,626.797 C735.101,627.617 738.025,626.69 740.45,624.154 Z M738.905,615.826 C738.264,611.603 735.24,609.987 732.483,609.936 C729.554,609.881 726.515,611.526 725.681,615.617 C725.681,615.617 738.905,615.826 738.905,615.826 Z " fill="rgb(16,16,16)"/>
<path d="M680.778,617.465 C681.497,627.196 674.621,633.779 666.437,634.017 C657.361,634.28 650.278,627.453 650.711,618.002 C651.097,609.574 657.398,603.371 665.441,603.217 C673.079,603.07 680.116,608.5 680.778,617.465 Z M672.744,619.412 C673.257,614.204 669.687,610.446 665.496,610.604 C661.146,610.767 658.827,614.47 659.027,619.011 C659.211,623.188 661.618,626.541 665.518,626.886 C669.301,627.221 672.285,624.086 672.744,619.412 Z " fill="rgb(17,17,16)"/>
<path d="M229.765,614.588 C231.308,621.405 229.374,627.793 224.089,631.419 C219.499,634.569 212.82,635.034 207.121,631.656 C202.307,628.804 199.666,622.43 200.575,615.825 C201.588,608.461 207.435,603.768 214.503,603.271 C221.361,602.789 227.968,606.646 229.765,614.588 Z M222.362,618.526 C222.25,613.272 218.662,609.977 214.499,610.506 C210.515,611.012 208.387,614.737 208.584,618.987 C208.791,623.443 211.288,626.914 215.512,626.877 C219.294,626.844 222.465,623.385 222.362,618.526 Z " fill="rgb(14,15,14)"/>
<path d="M493.261,616.982 C494.029,625.82 488.578,632.932 480.476,633.884 C471.894,634.892 464.32,629.175 463.572,620.014 C462.858,611.27 468.446,604.052 476.777,603.333 C485.005,602.623 492.467,607.833 493.261,616.982 Z M485.11,618.513 C485.132,613.177 481.753,609.81 477.51,610.597 C473.623,611.319 471.222,614.641 471.443,619.022 C471.656,623.244 474.498,626.801 478.494,626.915 C482.393,627.026 485.09,623.412 485.11,618.513 Z " fill="rgb(16,16,16)"/>
<path d="M525.759,617.97 C526.036,627.027 519.909,633.765 511.468,634.012 C503.015,634.259 496.119,628.035 495.996,619.03 C495.873,610.118 502.065,603.337 510.439,603.213 C518.707,603.091 525.487,609.063 525.759,617.97 Z M517.647,618.581 C517.702,613.692 514.43,610.299 510.922,610.502 C506.165,610.777 503.801,614.478 503.989,618.993 C504.177,623.516 507.083,626.974 511.468,626.781 C515.129,626.619 517.594,623.284 517.647,618.581 Z " fill="rgb(16,17,16)"/>
<path d="M828.846,624.479 C830.695,625.764 832.079,627.113 833.585,629.356 C827.187,635.912 815.667,635.593 809.864,628.21 C806.737,624.233 806.279,618.928 807.333,614.293 C809.163,606.244 816.908,602.073 824.346,603.502 C832.271,605.025 836.454,612.769 835.134,621.081 C835.134,621.081 815.077,621.117 815.077,621.117 C815.514,624.263 817.923,626.242 819.937,626.692 C822.58,627.281 825.741,627.454 828.846,624.479 Z M827.828,615.759 C826.89,611.562 823.663,609.707 820.53,610.028 C817.725,610.316 815.237,612.413 815.162,615.829 C815.162,615.829 827.828,615.759 827.828,615.759 Z " fill="rgb(16,16,16)"/>
<path d="M332.215,624.368 C332.215,624.368 336.698,629.408 336.698,629.408 C331.354,634.752 321.565,635.71 315.34,630.552 C308.094,624.549 308.416,612.378 315.362,606.611 C320.302,602.509 327.08,602.198 332.21,605.328 C337.069,608.293 339.173,614.464 338.453,621.077 C338.453,621.077 318.221,621.141 318.221,621.141 C318.935,624.071 321.026,625.986 323.053,626.543 C326.405,627.466 329.264,627.135 332.215,624.368 Z M330.896,615.628 C330.116,611.485 327.059,609.646 323.585,610.012 C321.326,610.251 318.476,612.262 318.26,615.567 C318.26,615.567 330.896,615.628 330.896,615.628 Z " fill="rgb(15,15,15)"/>
<path d="M372.985,616.015 C372.985,616.015 372.757,633.088 372.757,633.088 C372.757,633.088 364.602,633.133 364.602,633.133 C364.602,633.133 364.685,603.99 364.685,603.99 C367.128,603.804 370.074,603.487 371.98,604.035 C372.159,604.599 371.783,606.446 372.563,606.782 C375.94,603.431 380.362,602.799 384.53,603.755 C388.49,604.663 392.145,608.234 392.237,613.016 C392.237,613.016 392.63,633.443 392.63,633.443 C392.63,633.443 384.476,633.367 384.476,633.367 C384.476,633.367 383.914,614.061 383.914,614.061 C383.83,611.185 379.884,610.463 377.573,611.01 C375.749,611.442 373.024,613.108 372.985,616.015 Z " fill="rgb(16,16,16)"/>
<path d="M856.757,632.743 C850.579,634.924 843.841,634.194 837.952,630.98 C837.952,630.98 840.701,624.456 840.701,624.456 C847.787,628.964 855.403,627.828 854.709,624.633 C854.465,623.509 853.525,622.856 852.311,622.587 C852.311,622.587 843.354,620.597 843.354,620.597 C840.011,619.854 838.467,616.377 838.445,613.281 C838.424,610.467 839.683,607.129 842.537,605.475 C848.254,602.163 855.461,602.588 861.382,605.638 C861.382,605.638 858.793,612.31 858.793,612.31 C854.685,609.628 849.515,608.613 845.912,612.105 C848.533,617.854 860.968,613.673 862.303,622.513 C862.96,626.866 861.216,631.169 856.757,632.743 Z " fill="rgb(13,13,13)"/>
<path d="M781.768,622.551 C781.739,624.775 782.564,626.297 783.651,626.742 C785.072,627.324 786.488,627.118 788.343,625.975 C789.36,627.953 789.969,629.628 790.546,632.335 C785.227,635.238 776.914,634.534 774.713,628.318 C772.862,623.089 774.312,616.543 773.782,611.308 C773.782,611.308 770.389,610.99 770.389,610.99 C768.883,610.849 769.592,604.703 769.927,604.558 C770.534,604.296 771.724,604.176 773.488,604.453 C773.488,604.453 773.768,596.957 773.768,596.957 C773.768,596.957 781.82,597.044 781.82,597.044 C781.82,597.044 781.882,604.188 781.882,604.188 C781.882,604.188 788.127,604.102 788.127,604.102 C788.127,604.102 788.273,611.061 788.273,611.061 C788.273,611.061 781.917,611.222 781.917,611.222 C781.917,611.222 781.768,622.551 781.768,622.551 Z " fill="rgb(16,16,15)"/>
<path d="M265.79,623.556 C265.783,625.492 266.864,626.552 267.598,626.872 C269.012,627.488 270.543,627.268 271.811,625.954 C271.811,625.954 274.064,632.334 274.064,632.334 C268.676,635.291 260.306,634.529 258.395,627.675 C258.395,627.675 257.556,610.927 257.556,610.927 C256.083,611.187 254.924,611.303 254.473,611.106 C253.173,610.538 253.448,605.222 253.932,604.549 C254.345,603.975 255.669,603.601 257.49,604.303 C257.49,604.303 257.71,596.899 257.71,596.899 C257.71,596.899 265.753,596.951 265.753,596.951 C265.753,596.951 265.772,604.189 265.772,604.189 C265.772,604.189 272.133,604.278 272.133,604.278 C272.133,604.278 272.353,611.05 272.353,611.05 C272.353,611.05 265.839,611.177 265.839,611.177 C265.839,611.177 265.79,623.556 265.79,623.556 Z " fill="rgb(16,16,15)"/>
<path d="M458.793,632.825 C456.447,633.827 453.796,633.64 450.534,633.187 C450.534,633.187 450.519,592.786 450.519,592.786 C450.519,592.786 458.633,592.606 458.633,592.606 C458.633,592.606 458.793,632.825 458.793,632.825 Z " fill="rgb(16,17,17)"/>
<path d="M351.524,633.18 C351.524,633.18 343.421,633.296 343.421,633.296 C343.421,633.296 343.46,603.798 343.46,603.798 C343.46,603.798 351.006,603.792 351.006,603.792 C351.006,603.792 351.265,607.033 351.265,607.033 C353.635,604.613 356.185,603.34 360.188,603.236 C360.188,603.236 360.235,611.581 360.235,611.581 C355.469,610.332 351.663,613.461 351.634,617.675 C351.634,617.675 351.524,633.18 351.524,633.18 Z " fill="rgb(16,16,16)"/>
<path d="M759.208,633.054 C756.246,633.568 753.823,633.502 751.102,633.08 C751.102,633.08 751.217,603.953 751.217,603.953 C751.217,603.953 758.165,603.648 758.165,603.648 C758.165,603.648 759.24,606.242 759.24,606.242 C761.762,604.179 764.351,603.01 767.955,603.331 C767.955,603.331 768.17,611.28 768.17,611.28 C765.234,610.979 763.222,611.472 761.505,612.955 C759.953,614.296 759.084,616.412 759.103,618.97 C759.103,618.97 759.208,633.054 759.208,633.054 Z " fill="rgb(20,20,19)"/>
<path d="M242.892,633.119 C240.215,633.617 237.837,633.65 234.829,633.262 C234.829,633.262 234.901,603.859 234.901,603.859 C237.412,603.623 239.586,603.299 242.116,604.083 C242.636,604.244 242.495,606.421 242.288,607.001 C245.131,604.72 247.804,603.039 251.882,603.433 C251.882,603.433 251.834,611.126 251.834,611.126 C249.301,610.969 247.166,611.482 245.431,612.858 C243.791,614.158 242.923,616.401 242.918,618.989 C242.918,618.989 242.892,633.119 242.892,633.119 Z " fill="rgb(15,15,15)"/>
<path d="M639.71,633.338 C639.71,633.338 631.657,633.502 631.657,633.502 C631.657,633.502 631.714,603.847 631.714,603.847 C631.714,603.847 639.09,603.797 639.09,603.797 C639.09,603.797 639.344,606.86 639.344,606.86 C641.815,604.789 644.298,603.155 648.223,603.185 C648.854,605.897 648.748,608.65 648.522,611.415 C645.619,611.068 643.708,611.606 642.275,612.633 C640.784,613.703 639.896,615.742 639.872,617.983 C639.872,617.983 639.71,633.338 639.71,633.338 Z " fill="rgb(16,16,15)"/>
<path d="M802.282,633.08 C799.608,633.922 796.599,633.498 793.964,633.421 C793.964,633.421 794.018,603.965 794.018,603.965 C794.018,603.965 802.097,603.771 802.097,603.771 C802.097,603.771 802.282,633.08 802.282,633.08 Z " fill="rgb(13,13,12)"/>
<path d="M198.134,553.991 C198.134,553.991 159.278,554.096 159.278,554.096 C159.278,554.096 158.954,538.501 158.954,538.501 C159.204,538.095 159.546,537.98 159.73,537.958 C159.73,537.958 160.032,552.997 160.032,552.997 C160.032,552.997 196.992,552.984 196.992,552.984 C196.992,552.984 197.034,477.254 197.034,477.254 C197.034,476.916 197.939,476.674 198.332,476.992 C198.332,476.992 198.143,494.725 198.143,494.725 C199.046,495.201 199.697,496.734 197.837,497.391 C198.446,499.188 198.854,501.004 198.789,502.943 C198.789,502.943 198.509,511.328 198.509,511.328 C198.509,511.328 198.799,528.912 198.799,528.912 C198.886,534.203 199.467,539.73 198.591,545.363 C198.155,548.168 197.65,551.155 198.134,553.991 Z " fill="rgb(150,22,35)"/>
<path d="M796.362,590.488 C799.017,589.528 801.555,590.689 802.544,592.934 C803.648,595.437 802.564,598.269 800.014,599.505 C797.637,600.656 794.728,599.526 793.514,597.001 C792.384,594.651 793.528,591.512 796.362,590.488 Z " fill="rgb(16,17,16)"/>
<path d="M291.886,379.016 C286.334,379.062 280.673,378.974 275.18,379.853 C275.191,378.525 275.125,376.986 275.361,375.401 C275.361,375.401 291.583,375.499 291.583,375.499 C291.147,376.971 291.864,378.037 291.886,379.016 Z " fill="rgb(240,222,223)"/>
<path d="M207.187,459.769 C204.188,460.862 201.302,461.212 198.452,460.662 C198.452,460.662 198.406,448.794 198.406,448.794 C198.406,448.794 207.187,459.769 207.187,459.769 Z " fill="rgb(253,239,240)"/>
<path d="M189.005,378.963 C189.005,378.963 172.964,378.981 172.964,378.981 C171.774,374.961 182.382,374.25 188.343,376.393 C189.206,376.703 189.271,378.577 189.005,378.963 Z " fill="rgb(240,221,222)"/>
<path d="M157.98,426.901 C157.98,426.901 157.945,443.773 157.945,443.773 C156.781,443.686 155.901,443.489 155.457,442.914 C155.048,442.384 154.69,440.852 154.705,440.041 C154.705,440.041 154.944,427.722 154.944,427.722 C155.785,427.086 156.996,426.97 157.98,426.901 Z " fill="rgb(240,227,228)"/>
<path d="M811.776,409.013 C811.759,411.567 812.133,414.046 811.554,416.178 C811.554,416.178 804.879,409.987 804.879,409.987 C806.212,409.264 807.397,408.855 808.425,409.203 C809.388,409.528 809.941,410.277 810.674,411.15 C810.745,409.606 811.033,409.018 811.776,409.013 Z " fill="rgb(249,233,237)"/>
<path d="M291.886,379.016 C299.637,378.951 307.311,378.981 315.511,379.453 C315.511,379.453 315.937,387.218 315.937,387.218 C315.937,387.218 315.933,546.779 315.933,546.779 C315.933,546.779 315.487,554.555 315.487,554.555 C315.487,554.555 282.151,554.996 282.151,554.996 C282.151,554.996 271.453,541.179 271.453,541.179 C274.284,541.142 275.419,544.343 276.741,546.037 C276.741,546.037 282.207,553.044 282.207,553.044 C282.207,553.044 314.079,553.276 314.079,553.276 C314.079,553.276 314.071,380.762 314.071,380.762 C314.071,380.762 276.895,380.773 276.895,380.773 C276.895,380.773 276.989,482.722 276.989,482.722 C276.989,483.078 275.953,483.122 275.739,483.106 C274.591,480.515 274.963,477.649 274.967,474.896 C274.967,474.896 275.123,387.126 275.123,387.126 C275.123,387.126 275.18,379.853 275.18,379.853 C280.673,378.974 286.334,379.062 291.886,379.016 Z " fill="rgb(151,21,36)"/>
<path d="M172.964,378.981 C172.964,378.981 189.005,378.963 189.005,378.963 C195.392,378.956 194.661,383.854 201.135,389.932 C200.309,390.172 199.318,390.246 198.935,389.556 C198.935,389.556 197.733,387.389 197.733,387.389 C197.733,387.389 192.796,380.99 192.796,380.99 C192.796,380.99 159.757,380.856 159.757,380.856 C159.757,380.856 159.987,463.958 159.987,463.958 C159.969,465.11 158.639,466.676 158.125,467.063 C158.125,467.063 157.945,443.773 157.945,443.773 C157.945,443.773 157.98,426.901 157.98,426.901 C157.98,426.901 158.282,379.287 158.282,379.287 C158.282,379.287 172.964,378.981 172.964,378.981 Z " fill="rgb(153,19,35)"/>
<path d="M274.967,474.896 C274.963,477.649 274.591,480.515 275.739,483.106 C273.608,482.945 270.807,478.485 267.986,474.685 C268.877,475.67 270.143,476.933 271.486,477.152 C273.468,477.477 274.066,476.489 274.967,474.896 Z " fill="rgb(254,227,234)"/>
<path d="M412.324,411.304 C411.276,412.221 410.939,413.385 410.963,414.99 C410.963,414.99 411.13,426.583 411.13,426.583 C411.13,426.583 393.247,426.857 393.247,426.857 C393.247,426.857 393.114,443.72 393.114,443.72 C393.114,443.72 411.183,443.388 411.183,443.388 C411.183,443.388 411.196,426.811 411.196,426.811 C411.196,426.811 428.214,426.958 428.214,426.958 C428.214,426.958 428.668,443.451 428.668,443.451 C428.668,443.451 440.108,443.559 440.108,443.559 C444.485,442.634 445.299,436.221 445.069,432.172 C445.069,432.172 444.766,426.838 444.766,426.838 C444.766,426.838 428.496,426.619 428.496,426.619 C428.496,426.619 428.217,412.704 428.217,412.704 C428.217,412.704 417.962,412.652 417.962,412.652 C418.964,411.733 419.889,411.732 420.253,411.067 C420.253,411.067 433.231,412.652 433.231,412.652 C438.852,413.338 443.66,417.633 445.727,421.903 C448.347,427.317 448.264,433.547 445.86,439.038 C442.784,446.065 435.093,449.75 428.096,449.886 C428.507,448.045 429.042,446.322 428.056,443.83 C428.056,443.83 411.899,443.963 411.899,443.963 C410.401,444.832 410.809,448.856 411.727,450.203 C411.727,450.203 384.754,450.178 384.754,450.178 C384.886,448.507 383.634,447.272 384.029,445.032 C384.029,445.032 391.496,445.003 391.496,445.003 C391.496,445.003 391.96,444.348 391.96,444.348 C390.001,443.835 386.603,443.761 383.658,444.186 C382.255,445.049 382.791,448.835 383.708,450.175 C382.067,450.691 381.349,449.55 381.566,448.138 C381.566,448.138 382.127,410.956 382.127,410.956 C382.127,410.956 412.324,411.304 412.324,411.304 Z M393.127,426.153 C393.127,426.153 393.016,412.864 393.016,412.864 C389.385,412.179 385.947,412.713 382.891,413.412 C382.891,413.412 382.912,426.637 382.912,426.637 C385.921,427.012 389.774,427.422 393.127,426.153 Z M392.538,444.993 C392.538,444.993 391.964,445.523 391.964,445.523 C392.279,446.168 392.168,447.842 391.494,447.94 C391.494,447.94 388.932,448.313 388.932,448.313 C389.628,449.453 392.435,449.417 392.884,448.468 C393.365,447.451 393.098,445.618 392.538,444.993 Z " fill="rgb(253,253,253)"/>
<path d="M409.996,480.883 C409.996,480.883 409.772,494.722 409.772,494.722 C409.772,494.722 426.382,495.146 426.382,495.146 C426.382,495.146 426.695,510.699 426.695,510.699 C427.693,511.119 428.496,512.001 428.86,512.001 C428.86,512.001 443.97,512.021 443.97,512.021 C443.97,512.021 443.967,494.889 443.967,494.889 C443.967,494.889 426.852,495.005 426.852,495.005 C426.852,495.005 426.953,480.93 426.953,480.93 C432.999,480.947 438.913,481.854 444.455,484.755 C444.455,484.755 444.091,494.676 444.091,494.676 C444.091,494.676 452.967,494.917 452.967,494.917 C454.37,500.931 454.697,507.849 451.159,513.254 C449.54,511.83 445.44,511.347 444.44,513.084 C443.429,514.843 444.071,517.438 444.12,518.974 C438.566,522.214 432.355,522.436 426.103,522.438 C427.155,518.902 426.74,515.213 426.55,511.973 C426.55,511.973 410.341,512.396 410.341,512.396 C409.45,515.693 409.692,519.079 409.916,522.442 C409.916,522.442 392.037,522.328 392.037,522.328 C392.037,522.328 392.789,512.032 392.789,512.032 C392.789,512.032 409.585,512.112 409.585,512.112 C409.585,512.112 409.692,494.912 409.692,494.912 C409.692,494.912 392.458,494.605 392.458,494.605 C392.458,494.605 392.019,480.913 392.019,480.913 C392.019,480.913 409.996,480.883 409.996,480.883 Z " fill="rgb(253,254,253)"/>
<path d="M420.253,411.067 C419.889,411.732 418.964,411.733 417.962,412.652 C417.962,412.652 428.217,412.704 428.217,412.704 C428.217,412.704 428.496,426.619 428.496,426.619 C428.496,426.619 444.766,426.838 444.766,426.838 C444.766,426.838 445.069,432.172 445.069,432.172 C445.299,436.221 444.485,442.634 440.108,443.559 C440.108,443.559 428.668,443.451 428.668,443.451 C428.668,443.451 428.214,426.958 428.214,426.958 C428.214,426.958 411.196,426.811 411.196,426.811 C411.196,426.811 411.183,443.388 411.183,443.388 C411.183,443.388 393.114,443.72 393.114,443.72 C393.114,443.72 393.247,426.857 393.247,426.857 C393.247,426.857 411.13,426.583 411.13,426.583 C411.13,426.583 410.963,414.99 410.963,414.99 C410.939,413.385 411.276,412.221 412.324,411.304 C412.324,411.304 420.253,411.067 420.253,411.067 Z " fill="rgb(227,230,231)"/>
<path d="M392.019,480.913 C392.019,480.913 392.458,494.605 392.458,494.605 C392.458,494.605 409.692,494.912 409.692,494.912 C409.692,494.912 409.585,512.112 409.585,512.112 C409.585,512.112 392.789,512.032 392.789,512.032 C392.789,512.032 392.037,522.328 392.037,522.328 C392.037,522.328 381.754,522.247 381.754,522.247 C381.754,522.247 381.709,512.765 381.709,512.765 C384.799,511.397 388.14,512.064 392.234,512.214 C392.234,512.214 392.099,495.042 392.099,495.042 C392.099,495.042 382.881,494.849 382.881,494.849 C383.285,489.849 382.959,487.633 381.518,489.916 C381.518,489.916 381.469,480.966 381.469,480.966 C381.469,480.966 392.019,480.913 392.019,480.913 Z " fill="rgb(227,230,232)"/>
<path d="M426.953,480.93 C426.953,480.93 426.852,495.005 426.852,495.005 C426.852,495.005 443.967,494.889 443.967,494.889 C443.967,494.889 443.97,512.021 443.97,512.021 C443.97,512.021 428.86,512.001 428.86,512.001 C428.496,512.001 427.693,511.119 426.695,510.699 C426.695,510.699 426.382,495.146 426.382,495.146 C426.382,495.146 409.772,494.722 409.772,494.722 C409.772,494.722 409.996,480.883 409.996,480.883 C409.996,480.883 426.953,480.93 426.953,480.93 Z " fill="rgb(227,230,232)"/>
<path d="M426.103,522.438 C426.103,522.438 409.916,522.442 409.916,522.442 C409.692,519.079 409.45,515.693 410.341,512.396 C410.341,512.396 426.55,511.973 426.55,511.973 C426.74,515.213 427.155,518.902 426.103,522.438 Z " fill="rgb(227,230,232)"/>
<path d="M381.709,512.765 C381.709,512.765 381.518,489.916 381.518,489.916 C382.959,487.633 383.285,489.849 382.881,494.849 C382.881,494.849 392.099,495.042 392.099,495.042 C392.099,495.042 392.234,512.214 392.234,512.214 C388.14,512.064 384.799,511.397 381.709,512.765 Z " fill="rgb(253,253,253)"/>
<path d="M428.096,449.886 C428.096,449.886 411.727,450.203 411.727,450.203 C410.809,448.856 410.401,444.832 411.899,443.963 C411.899,443.963 428.056,443.83 428.056,443.83 C429.042,446.322 428.507,448.045 428.096,449.886 Z " fill="rgb(227,230,231)"/>
<path d="M452.967,494.917 C452.967,494.917 444.091,494.676 444.091,494.676 C444.091,494.676 444.455,484.755 444.455,484.755 C448.818,487.04 451.884,490.277 452.967,494.917 Z " fill="rgb(227,230,232)"/>
<path d="M451.159,513.254 C449.212,516.228 446.657,517.494 444.12,518.974 C444.071,517.438 443.429,514.843 444.44,513.084 C445.44,511.347 449.54,511.83 451.159,513.254 Z " fill="rgb(227,230,232)"/>
<path d="M600.461,415.669 C605.338,417.705 609.625,420.413 612.536,424.76 C612.213,425.455 611.735,426.572 610.825,426.583 C610.825,426.583 597.474,426.752 597.474,426.752 C597.474,426.752 597.652,443.824 597.652,443.824 C597.652,443.824 614.557,443.43 614.557,443.43 C613.677,440.014 613.736,436.881 616.307,435.879 C618.493,449.628 613.157,461.982 600.23,467.234 C593.543,469.951 586.695,469.514 580.146,469.542 C580.146,469.542 580.024,461.01 580.024,461.01 C580.024,461.01 563.323,461.061 563.323,461.061 C563.323,461.061 563.224,443.817 563.224,443.817 C563.224,443.817 580.178,443.89 580.178,443.89 C580.178,443.89 580.432,460.607 580.432,460.607 C580.432,460.607 596.963,460.874 596.963,460.874 C596.963,460.874 597.199,443.889 597.199,443.889 C597.199,443.889 580.316,443.473 580.316,443.473 C580.316,443.473 580.664,426.879 580.664,426.879 C580.664,426.879 596.956,426.35 596.956,426.35 C596.956,426.35 597.337,415.837 597.337,415.837 C599.072,416.232 599.709,416.029 600.461,415.669 Z " fill="rgb(228,230,231)"/>
<path d="M600.461,415.669 C599.709,416.029 599.072,416.232 597.337,415.837 C597.337,415.837 596.956,426.35 596.956,426.35 C596.956,426.35 580.664,426.879 580.664,426.879 C580.664,426.879 580.316,443.473 580.316,443.473 C580.316,443.473 597.199,443.889 597.199,443.889 C597.199,443.889 596.963,460.874 596.963,460.874 C596.963,460.874 580.432,460.607 580.432,460.607 C580.432,460.607 580.178,443.89 580.178,443.89 C580.178,443.89 563.224,443.817 563.224,443.817 C563.224,443.817 563.323,461.061 563.323,461.061 C563.323,461.061 580.024,461.01 580.024,461.01 C580.024,461.01 580.146,469.542 580.146,469.542 C580.146,469.542 562.708,469.617 562.708,469.617 C562.708,469.617 562.718,461.369 562.718,461.369 C559.122,460.448 555.633,460.804 552.368,460.794 C552.368,460.794 552.306,441.492 552.306,441.492 C552.627,441.725 553.319,442.13 553.023,443.616 C556.182,443.864 559.588,444.219 563.19,443.371 C563.19,443.371 563.48,426.794 563.48,426.794 C563.48,426.794 580.239,426.587 580.239,426.587 C580.177,421.324 580.683,417.202 579.562,413.09 C586.617,413.104 593.815,412.895 600.461,415.669 Z " fill="rgb(253,253,253)"/>
<path d="M579.562,413.09 C580.683,417.202 580.177,421.324 580.239,426.587 C580.239,426.587 563.48,426.794 563.48,426.794 C563.48,426.794 563.19,443.371 563.19,443.371 C559.588,444.219 556.182,443.864 553.023,443.616 C553.319,442.13 552.627,441.725 552.306,441.492 C552.306,441.492 552.316,426.88 552.316,426.88 C555.552,426.448 558.865,426.586 562.895,426.621 C562.895,426.621 563.387,413.056 563.387,413.056 C563.387,413.056 579.562,413.09 579.562,413.09 Z " fill="rgb(228,230,231)"/>
<path d="M616.307,435.879 C613.736,436.881 613.677,440.014 614.557,443.43 C614.557,443.43 597.652,443.824 597.652,443.824 C597.652,443.824 597.474,426.752 597.474,426.752 C597.474,426.752 610.825,426.583 610.825,426.583 C611.735,426.572 612.213,425.455 612.536,424.76 C614.76,428.082 615.635,431.647 616.307,435.879 Z " fill="rgb(253,253,253)"/>
<path d="M563.387,413.056 C563.387,413.056 562.895,426.621 562.895,426.621 C558.865,426.586 555.552,426.448 552.316,426.88 C552.316,426.88 552.128,413.029 552.128,413.029 C552.128,413.029 563.387,413.056 563.387,413.056 Z " fill="rgb(253,253,253)"/>
<path d="M562.708,469.617 C562.708,469.617 552.333,469.672 552.333,469.672 C552.333,469.672 552.368,460.794 552.368,460.794 C555.633,460.804 559.122,460.448 562.718,461.369 C562.718,461.369 562.708,469.617 562.708,469.617 Z " fill="rgb(228,230,231)"/>
<path d="M435.244,625.759 C430.51,627.255 425.938,626.387 421.618,626.516 C421.618,626.516 421.644,617.448 421.644,617.448 C421.644,617.448 433.645,617.486 433.645,617.486 C435.838,617.492 436.878,619.368 437.19,620.577 C437.639,622.311 437.498,625.046 435.244,625.759 Z " fill="rgb(246,247,247)"/>
<path d="M432.824,610.475 C432.824,610.475 421.624,610.512 421.624,610.512 C421.624,610.512 421.751,601.984 421.751,601.984 C429.134,601.792 435.007,601.054 435.722,605.651 C436.017,607.55 435.197,609.361 432.824,610.475 Z " fill="rgb(247,248,248)"/>
<path d="M614.251,614.665 C611.069,615.404 608.081,615.055 604.949,614.86 C604.949,614.86 604.954,602.267 604.954,602.267 C604.954,602.267 613.666,602.423 613.666,602.423 C616.732,602.478 618.167,605.242 618.444,607.548 C618.8,610.522 618.012,613.792 614.251,614.665 Z " fill="rgb(243,245,245)"/>
<path d="M706.875,618.493 C706.91,623.416 704.453,626.52 700.491,626.766 C696.328,627.025 693.4,623.554 693.299,618.986 C693.206,614.754 695.624,610.839 699.497,610.648 C703.665,610.443 706.839,613.463 706.875,618.493 Z " fill="rgb(245,246,246)"/>
<path d="M738.905,615.826 C738.905,615.826 725.681,615.617 725.681,615.617 C726.515,611.526 729.554,609.881 732.483,609.936 C735.24,609.987 738.264,611.603 738.905,615.826 Z " fill="rgb(243,244,244)"/>
<path d="M672.744,619.412 C672.285,624.086 669.301,627.221 665.518,626.886 C661.618,626.541 659.211,623.188 659.027,619.011 C658.827,614.47 661.146,610.767 665.496,610.604 C669.687,610.446 673.257,614.204 672.744,619.412 Z " fill="rgb(243,244,244)"/>
<path d="M222.362,618.526 C222.465,623.385 219.294,626.844 215.512,626.877 C211.288,626.914 208.791,623.443 208.584,618.987 C208.387,614.737 210.515,611.012 214.499,610.506 C218.662,609.977 222.25,613.272 222.362,618.526 Z " fill="rgb(234,237,237)"/>
<path d="M485.11,618.513 C485.09,623.412 482.393,627.026 478.494,626.915 C474.498,626.801 471.656,623.244 471.443,619.022 C471.222,614.641 473.623,611.319 477.51,610.597 C481.753,609.81 485.132,613.177 485.11,618.513 Z " fill="rgb(240,241,241)"/>
<path d="M517.647,618.581 C517.594,623.284 515.129,626.619 511.468,626.781 C507.083,626.974 504.177,623.516 503.989,618.993 C503.801,614.478 506.165,610.777 510.922,610.502 C514.43,610.299 517.702,613.692 517.647,618.581 Z " fill="rgb(243,244,244)"/>
<path d="M827.828,615.759 C827.828,615.759 815.162,615.829 815.162,615.829 C815.237,612.413 817.725,610.316 820.53,610.028 C823.663,609.707 826.89,611.562 827.828,615.759 Z " fill="rgb(251,252,252)"/>
<path d="M330.896,615.628 C330.896,615.628 318.26,615.567 318.26,615.567 C318.476,612.262 321.326,610.251 323.585,610.012 C327.059,609.646 330.116,611.485 330.896,615.628 Z " fill="rgb(245,247,246)"/>
<path d="M393.127,426.153 C389.774,427.422 385.921,427.012 382.912,426.637 C382.912,426.637 382.891,413.412 382.891,413.412 C385.947,412.713 389.385,412.179 393.016,412.864 C393.016,412.864 393.127,426.153 393.127,426.153 Z " fill="rgb(227,230,231)"/>
<path d="M384.754,450.178 C384.46,450.178 384.079,450.059 383.708,450.175 C382.791,448.835 382.255,445.049 383.658,444.186 C386.603,443.761 390.001,443.835 391.96,444.348 C391.96,444.348 392.538,444.993 392.538,444.993 C393.098,445.618 393.365,447.451 392.884,448.468 C392.435,449.417 389.628,449.453 388.932,448.313 C388.932,448.313 391.494,447.94 391.494,447.94 C392.168,447.842 392.279,446.168 391.964,445.523 C391.964,445.523 391.496,445.003 391.496,445.003 C391.496,445.003 384.029,445.032 384.029,445.032 C383.634,447.272 384.886,448.507 384.754,450.178 Z " fill="rgb(227,230,231)"/>
</svg>